<svg xmlns="http://www.w3.org/2000/svg" xmlns:xlink="http://www.w3.org/1999/xlink" width="1080" zoomAndPan="magnify" viewBox="0 0 810 1439.999935" height="1920" preserveAspectRatio="xMidYMid meet" version="1.0"><defs><clipPath id="28a023a5c3"><path d="M 0 0 L 53.519531 0 L 53.519531 189.585938 L 0 189.585938 Z M 0 0 " clip-rule="nonzero"/></clipPath><clipPath id="2072c7dfaf"><path d="M 0 612.996094 L 53.519531 612.996094 L 53.519531 827.078125 L 0 827.078125 Z M 0 612.996094 " clip-rule="nonzero"/></clipPath><clipPath id="d9d09c89fb"><path d="M 0 184.828125 L 53.519531 184.828125 L 53.519531 398.914062 L 0 398.914062 Z M 0 184.828125 " clip-rule="nonzero"/></clipPath><clipPath id="979dba3dfc"><path d="M 0 398.914062 L 53.519531 398.914062 L 53.519531 612.996094 L 0 612.996094 Z M 0 398.914062 " clip-rule="nonzero"/></clipPath><clipPath id="3394ce0d36"><path d="M 0 827.078125 L 53.519531 827.078125 L 53.519531 1041.164062 L 0 1041.164062 Z M 0 827.078125 " clip-rule="nonzero"/></clipPath><clipPath id="364b7c87db"><path d="M 0 1036.328125 L 53.519531 1036.328125 L 53.519531 1250.414062 L 0 1250.414062 Z M 0 1036.328125 " clip-rule="nonzero"/></clipPath><clipPath id="1107c045a1"><path d="M 0 1250.414062 L 53.519531 1250.414062 L 53.519531 1440 L 0 1440 Z M 0 1250.414062 " clip-rule="nonzero"/></clipPath><clipPath id="ad1d5c0137"><path d="M 756.480469 0 L 810 0 L 810 189.585938 L 756.480469 189.585938 Z M 756.480469 0 " clip-rule="nonzero"/></clipPath><clipPath id="b96c4958c9"><path d="M 756.480469 612.996094 L 810 612.996094 L 810 827.078125 L 756.480469 827.078125 Z M 756.480469 612.996094 " clip-rule="nonzero"/></clipPath><clipPath id="f2133b54d6"><path d="M 756.480469 184.828125 L 810 184.828125 L 810 398.914062 L 756.480469 398.914062 Z M 756.480469 184.828125 " clip-rule="nonzero"/></clipPath><clipPath id="c6c3ec8e4a"><path d="M 756.480469 398.914062 L 810 398.914062 L 810 612.996094 L 756.480469 612.996094 Z M 756.480469 398.914062 " clip-rule="nonzero"/></clipPath><clipPath id="ba0948da39"><path d="M 756.480469 827.078125 L 810 827.078125 L 810 1041.164062 L 756.480469 1041.164062 Z M 756.480469 827.078125 " clip-rule="nonzero"/></clipPath><clipPath id="412c7b1548"><path d="M 756.480469 1036.328125 L 810 1036.328125 L 810 1250.414062 L 756.480469 1250.414062 Z M 756.480469 1036.328125 " clip-rule="nonzero"/></clipPath><clipPath id="b0a53d0286"><path d="M 756.480469 1250.414062 L 810 1250.414062 L 810 1440 L 756.480469 1440 Z M 756.480469 1250.414062 " clip-rule="nonzero"/></clipPath></defs><g clip-path="url(#28a023a5c3)"><path fill="#2ab7ca" d="M -53.519531 -24.496094 L 53.519531 -24.496094 L 53.519531 189.585938 L -53.519531 189.585938 Z M -53.519531 -24.496094 " fill-opacity="1" fill-rule="nonzero"/></g><g clip-path="url(#2072c7dfaf)"><path fill="#f4f4f8" d="M -53.519531 612.996094 L 53.519531 612.996094 L 53.519531 827.078125 L -53.519531 827.078125 Z M -53.519531 612.996094 " fill-opacity="1" fill-rule="nonzero"/></g><g clip-path="url(#d9d09c89fb)"><path fill="#fe4a49" d="M -53.519531 184.828125 L 53.519531 184.828125 L 53.519531 398.914062 L -53.519531 398.914062 Z M -53.519531 184.828125 " fill-opacity="1" fill-rule="nonzero"/></g><g clip-path="url(#979dba3dfc)"><path fill="#fed766" d="M -53.519531 398.914062 L 53.519531 398.914062 L 53.519531 612.996094 L -53.519531 612.996094 Z M -53.519531 398.914062 " fill-opacity="1" fill-rule="nonzero"/></g><g clip-path="url(#3394ce0d36)"><path fill="#2ab7ca" d="M -53.519531 827.078125 L 53.519531 827.078125 L 53.519531 1041.164062 L -53.519531 1041.164062 Z M -53.519531 827.078125 " fill-opacity="1" fill-rule="nonzero"/></g><g clip-path="url(#364b7c87db)"><path fill="#fe4a49" d="M -53.519531 1036.328125 L 53.519531 1036.328125 L 53.519531 1250.414062 L -53.519531 1250.414062 Z M -53.519531 1036.328125 " fill-opacity="1" fill-rule="nonzero"/></g><g clip-path="url(#1107c045a1)"><path fill="#fed766" d="M -53.519531 1250.414062 L 53.519531 1250.414062 L 53.519531 1464.496094 L -53.519531 1464.496094 Z M -53.519531 1250.414062 " fill-opacity="1" fill-rule="nonzero"/></g><g clip-path="url(#ad1d5c0137)"><path fill="#2ab7ca" d="M 756.480469 -24.496094 L 863.519531 -24.496094 L 863.519531 189.585938 L 756.480469 189.585938 Z M 756.480469 -24.496094 " fill-opacity="1" fill-rule="nonzero"/></g><g clip-path="url(#b96c4958c9)"><path fill="#f4f4f8" d="M 756.480469 612.996094 L 863.519531 612.996094 L 863.519531 827.078125 L 756.480469 827.078125 Z M 756.480469 612.996094 " fill-opacity="1" fill-rule="nonzero"/></g><g clip-path="url(#f2133b54d6)"><path fill="#fe4a49" d="M 756.480469 184.828125 L 863.519531 184.828125 L 863.519531 398.914062 L 756.480469 398.914062 Z M 756.480469 184.828125 " fill-opacity="1" fill-rule="nonzero"/></g><g clip-path="url(#c6c3ec8e4a)"><path fill="#fed766" d="M 756.480469 398.914062 L 863.519531 398.914062 L 863.519531 612.996094 L 756.480469 612.996094 Z M 756.480469 398.914062 " fill-opacity="1" fill-rule="nonzero"/></g><g clip-path="url(#ba0948da39)"><path fill="#2ab7ca" d="M 756.480469 827.078125 L 863.519531 827.078125 L 863.519531 1041.164062 L 756.480469 1041.164062 Z M 756.480469 827.078125 " fill-opacity="1" fill-rule="nonzero"/></g><g clip-path="url(#412c7b1548)"><path fill="#fe4a49" d="M 756.480469 1036.328125 L 863.519531 1036.328125 L 863.519531 1250.414062 L 756.480469 1250.414062 Z M 756.480469 1036.328125 " fill-opacity="1" fill-rule="nonzero"/></g><g clip-path="url(#b0a53d0286)"><path fill="#fed766" d="M 756.480469 1250.414062 L 863.519531 1250.414062 L 863.519531 1464.496094 L 756.480469 1464.496094 Z M 756.480469 1250.414062 " fill-opacity="1" fill-rule="nonzero"/></g></svg>