<svg xmlns="http://www.w3.org/2000/svg" xmlns:xlink="http://www.w3.org/1999/xlink" width="1920" zoomAndPan="magnify" viewBox="0 0 1440 809.999993" height="1080" preserveAspectRatio="xMidYMid meet" version="1.0"><defs><clipPath id="997b849947"><path d="M 0 607.5 L 50.625 607.5 L 50.625 810 L 0 810 Z M 0 607.5 " clip-rule="nonzero"/></clipPath><clipPath id="2bd860816d"><path d="M 0 405 L 50.625 405 L 50.625 607.5 L 0 607.5 Z M 0 405 " clip-rule="nonzero"/></clipPath><clipPath id="a1745671d3"><path d="M 0 202.5 L 50.625 202.5 L 50.625 405 L 0 405 Z M 0 202.5 " clip-rule="nonzero"/></clipPath><clipPath id="f3e71a4bdc"><path d="M 0 0 L 50.625 0 L 50.625 202.5 L 0 202.5 Z M 0 0 " clip-rule="nonzero"/></clipPath><clipPath id="52dbc6782e"><path d="M 1389.375 0 L 1440 0 L 1440 202.5 L 1389.375 202.5 Z M 1389.375 0 " clip-rule="nonzero"/></clipPath><clipPath id="3f503adbd8"><path d="M 1389.375 202.5 L 1440 202.5 L 1440 405 L 1389.375 405 Z M 1389.375 202.5 " clip-rule="nonzero"/></clipPath><clipPath id="bb0e68702a"><path d="M 1389.375 405 L 1440 405 L 1440 607.5 L 1389.375 607.5 Z M 1389.375 405 " clip-rule="nonzero"/></clipPath><clipPath id="43212c1820"><path d="M 1389.375 607.5 L 1440 607.5 L 1440 810 L 1389.375 810 Z M 1389.375 607.5 " clip-rule="nonzero"/></clipPath></defs><g clip-path="url(#997b849947)"><path fill="#f4f4f8" d="M -50.625 607.5 L 50.625 607.5 L 50.625 810 L -50.625 810 Z M -50.625 607.5 " fill-opacity="1" fill-rule="nonzero"/></g><g clip-path="url(#2bd860816d)"><path fill="#fed766" d="M -50.625 405 L 50.625 405 L 50.625 607.5 L -50.625 607.5 Z M -50.625 405 " fill-opacity="1" fill-rule="nonzero"/></g><g clip-path="url(#a1745671d3)"><path fill="#2ab7ca" d="M -50.625 202.5 L 50.625 202.5 L 50.625 405 L -50.625 405 Z M -50.625 202.5 " fill-opacity="1" fill-rule="nonzero"/></g><g clip-path="url(#f3e71a4bdc)"><path fill="#fe4a49" d="M -50.625 0 L 50.625 0 L 50.625 202.5 L -50.625 202.5 Z M -50.625 0 " fill-opacity="1" fill-rule="nonzero"/></g><g clip-path="url(#52dbc6782e)"><path fill="#f4f4f8" d="M 1490.625 202.5 L 1389.375 202.5 L 1389.375 0 L 1490.625 0 Z M 1490.625 202.5 " fill-opacity="1" fill-rule="nonzero"/></g><g clip-path="url(#3f503adbd8)"><path fill="#fed766" d="M 1490.625 405 L 1389.375 405 L 1389.375 202.5 L 1490.625 202.5 Z M 1490.625 405 " fill-opacity="1" fill-rule="nonzero"/></g><g clip-path="url(#bb0e68702a)"><path fill="#2ab7ca" d="M 1490.625 607.5 L 1389.375 607.5 L 1389.375 405 L 1490.625 405 Z M 1490.625 607.5 " fill-opacity="1" fill-rule="nonzero"/></g><g clip-path="url(#43212c1820)"><path fill="#fe4a49" d="M 1490.625 810 L 1389.375 810 L 1389.375 607.5 L 1490.625 607.5 Z M 1490.625 810 " fill-opacity="1" fill-rule="nonzero"/></g></svg>