<svg xmlns="http://www.w3.org/2000/svg" xmlns:xlink="http://www.w3.org/1999/xlink" width="250" zoomAndPan="magnify" viewBox="0 0 187.5 187.499992" height="250" preserveAspectRatio="xMidYMid meet" version="1.0"><defs><clipPath id="1c0c8b0008"><path d="M 18.804688 39 L 168.804688 39 L 168.804688 183.75 L 18.804688 183.75 Z M 18.804688 39 " clip-rule="nonzero"/></clipPath><clipPath id="b9a9272389"><path d="M 98 19 L 168.804688 19 L 168.804688 45 L 98 45 Z M 98 19 " clip-rule="nonzero"/></clipPath></defs><g clip-path="url(#1c0c8b0008)"><path fill="#dd2e44" d="M 123.746094 39.152344 C 108.773438 39.152344 108.773438 44.136719 93.804688 44.136719 C 78.835938 44.136719 78.835938 39.152344 63.863281 39.152344 C 43.902344 39.152344 18.953125 49.125 18.953125 84.027344 C 18.953125 138.875 48.894531 183.75 68.855469 183.75 C 83.824219 183.75 83.824219 178.765625 93.804688 178.765625 C 103.785156 178.765625 103.785156 183.75 118.753906 183.75 C 138.714844 183.75 168.65625 138.875 168.65625 84.027344 C 168.65625 49.117188 143.703125 39.152344 123.746094 39.152344 Z M 123.746094 39.152344 " fill-opacity="1" fill-rule="nonzero"/></g><g clip-path="url(#b9a9272389)"><path fill="#77b255" d="M 98.792969 39.152344 C 98.792969 39.152344 113.765625 19.207031 138.714844 19.207031 C 158.675781 19.207031 168.65625 29.179688 168.65625 29.179688 C 168.65625 29.179688 148.695312 44.136719 133.726562 44.136719 C 118.753906 44.136719 98.792969 39.152344 98.792969 39.152344 Z M 98.792969 39.152344 " fill-opacity="1" fill-rule="nonzero"/></g><path fill="#662113" d="M 93.804688 54.109375 C 91.050781 54.109375 88.816406 51.875 88.816406 49.125 C 88.816406 31.964844 94.800781 16.140625 105.246094 5.710938 C 107.199219 3.761719 110.351562 3.761719 112.300781 5.710938 C 114.253906 7.660156 114.253906 10.816406 112.300781 12.761719 C 103.714844 21.335938 98.792969 34.589844 98.792969 49.125 C 98.792969 51.875 96.558594 54.109375 93.804688 54.109375 Z M 93.804688 54.109375 " fill-opacity="1" fill-rule="nonzero"/></svg>