<svg xmlns="http://www.w3.org/2000/svg" xmlns:xlink="http://www.w3.org/1999/xlink" width="500" zoomAndPan="magnify" viewBox="0 0 375 374.999991" height="500" preserveAspectRatio="xMidYMid meet" version="1.0"><defs><g/><clipPath id="ef653b9084"><path d="M 17.25 0 L 357.75 0 C 367.277344 0 375 7.722656 375 17.25 L 375 357.75 C 375 367.277344 367.277344 375 357.75 375 L 17.25 375 C 7.722656 375 0 367.277344 0 357.75 L 0 17.25 C 0 7.722656 7.722656 0 17.25 0 " clip-rule="nonzero"/></clipPath><clipPath id="47f19dd952"><path d="M 31.25 17.085938 L 343.75 17.085938 L 343.75 302.121094 L 31.25 302.121094 Z M 31.25 17.085938 " clip-rule="nonzero"/></clipPath><clipPath id="abe066cf0d"><path d="M 48.5 17.085938 L 326.5 17.085938 C 331.074219 17.085938 335.460938 18.902344 338.699219 22.136719 C 341.933594 25.371094 343.75 29.761719 343.75 34.335938 L 343.75 284.777344 C 343.75 289.351562 341.933594 293.738281 338.699219 296.972656 C 335.460938 300.210938 331.074219 302.027344 326.5 302.027344 L 48.5 302.027344 C 43.925781 302.027344 39.539062 300.210938 36.300781 296.972656 C 33.066406 293.738281 31.25 289.351562 31.25 284.777344 L 31.25 34.335938 C 31.25 24.808594 38.972656 17.085938 48.5 17.085938 " clip-rule="nonzero"/></clipPath><clipPath id="0cf23f24cf"><path d="M 31.25 17.089844 L 344 17.089844 L 344 302.085938 L 31.25 302.085938 Z M 31.25 17.089844 " clip-rule="nonzero"/></clipPath><clipPath id="fd7aba8ec7"><path d="M 48.515625 17.089844 L 326.734375 17.089844 C 331.316406 17.089844 335.707031 18.90625 338.945312 22.140625 C 342.179688 25.378906 344 29.765625 344 34.34375 L 344 284.828125 C 344 289.40625 342.179688 293.792969 338.945312 297.027344 C 335.707031 300.265625 331.316406 302.082031 326.734375 302.082031 L 48.515625 302.082031 C 43.933594 302.082031 39.542969 300.265625 36.304688 297.027344 C 33.070312 293.792969 31.25 289.40625 31.25 284.828125 L 31.25 34.34375 C 31.25 24.8125 38.980469 17.089844 48.515625 17.089844 " clip-rule="nonzero"/></clipPath><clipPath id="8e1a5c61b2"><path d="M 201 31 L 338 31 L 338 156 L 201 156 Z M 201 31 " clip-rule="nonzero"/></clipPath><clipPath id="32c466fe9f"><path d="M 217.128906 24.167969 L 343.855469 55.179688 L 318.042969 160.660156 L 191.316406 129.652344 Z M 217.128906 24.167969 " clip-rule="nonzero"/></clipPath><clipPath id="e5d2c46100"><path d="M 217.128906 24.167969 L 343.855469 55.179688 L 318.042969 160.660156 L 191.316406 129.652344 Z M 217.128906 24.167969 " clip-rule="nonzero"/></clipPath><clipPath id="9868a9058e"><path d="M 217.128906 24.167969 L 343.855469 55.179688 L 318.042969 160.660156 L 191.316406 129.652344 Z M 217.128906 24.167969 " clip-rule="nonzero"/></clipPath><clipPath id="5070979cb4"><path d="M 271 87 L 326 87 L 326 107 L 271 107 Z M 271 87 " clip-rule="nonzero"/></clipPath><clipPath id="ec7d4da7b5"><path d="M 217.128906 24.167969 L 343.855469 55.179688 L 318.042969 160.660156 L 191.316406 129.652344 Z M 217.128906 24.167969 " clip-rule="nonzero"/></clipPath><clipPath id="0a2f345374"><path d="M 217.128906 24.167969 L 343.855469 55.179688 L 318.042969 160.660156 L 191.316406 129.652344 Z M 217.128906 24.167969 " clip-rule="nonzero"/></clipPath><clipPath id="8c86902529"><path d="M 217.128906 24.167969 L 343.855469 55.179688 L 318.042969 160.660156 L 191.316406 129.652344 Z M 217.128906 24.167969 " clip-rule="nonzero"/></clipPath><clipPath id="7f0a3cba1b"><path d="M 209 39 L 285 39 L 285 137 L 209 137 Z M 209 39 " clip-rule="nonzero"/></clipPath><clipPath id="d409441444"><path d="M 217.128906 24.167969 L 343.855469 55.179688 L 318.042969 160.660156 L 191.316406 129.652344 Z M 217.128906 24.167969 " clip-rule="nonzero"/></clipPath><clipPath id="57f58c72e7"><path d="M 217.128906 24.167969 L 343.855469 55.179688 L 318.042969 160.660156 L 191.316406 129.652344 Z M 217.128906 24.167969 " clip-rule="nonzero"/></clipPath><clipPath id="dceedcd4d6"><path d="M 217.128906 24.167969 L 343.855469 55.179688 L 318.042969 160.660156 L 191.316406 129.652344 Z M 217.128906 24.167969 " clip-rule="nonzero"/></clipPath><clipPath id="559adfce20"><path d="M 87 88 L 168 88 L 168 172 L 87 172 Z M 87 88 " clip-rule="nonzero"/></clipPath><clipPath id="5a715e6bca"><path d="M 34.234375 159.433594 L 51.003906 30.046875 L 180.390625 46.816406 L 163.621094 176.203125 Z M 34.234375 159.433594 " clip-rule="nonzero"/></clipPath><clipPath id="a1f99a1e21"><path d="M 34.234375 159.433594 L 51.003906 30.046875 L 180.390625 46.816406 L 163.621094 176.203125 Z M 34.234375 159.433594 " clip-rule="nonzero"/></clipPath><clipPath id="9903320aa7"><path d="M 34.234375 159.433594 L 51.003906 30.046875 L 180.390625 46.816406 L 163.621094 176.203125 Z M 34.234375 159.433594 " clip-rule="nonzero"/></clipPath><clipPath id="1ffac19a68"><path d="M 99 75 L 144 75 L 144 143 L 99 143 Z M 99 75 " clip-rule="nonzero"/></clipPath><clipPath id="4d33652573"><path d="M 34.234375 159.433594 L 51.003906 30.046875 L 180.390625 46.816406 L 163.621094 176.203125 Z M 34.234375 159.433594 " clip-rule="nonzero"/></clipPath><clipPath id="1296c781c2"><path d="M 34.234375 159.433594 L 51.003906 30.046875 L 180.390625 46.816406 L 163.621094 176.203125 Z M 34.234375 159.433594 " clip-rule="nonzero"/></clipPath><clipPath id="d9c9a8a04c"><path d="M 34.234375 159.433594 L 51.003906 30.046875 L 180.390625 46.816406 L 163.621094 176.203125 Z M 34.234375 159.433594 " clip-rule="nonzero"/></clipPath><clipPath id="1aab181a37"><path d="M 43 39 L 160 39 L 160 144 L 43 144 Z M 43 39 " clip-rule="nonzero"/></clipPath><clipPath id="1d125a11f5"><path d="M 34.234375 159.433594 L 51.003906 30.046875 L 180.390625 46.816406 L 163.621094 176.203125 Z M 34.234375 159.433594 " clip-rule="nonzero"/></clipPath><clipPath id="78d54ed137"><path d="M 34.234375 159.433594 L 51.003906 30.046875 L 180.390625 46.816406 L 163.621094 176.203125 Z M 34.234375 159.433594 " clip-rule="nonzero"/></clipPath><clipPath id="74462a3124"><path d="M 34.234375 159.433594 L 51.003906 30.046875 L 180.390625 46.816406 L 163.621094 176.203125 Z M 34.234375 159.433594 " clip-rule="nonzero"/></clipPath><clipPath id="01b049a36b"><path d="M 53 117 L 65 117 L 65 130 L 53 130 Z M 53 117 " clip-rule="nonzero"/></clipPath><clipPath id="732338cf45"><path d="M 34.234375 159.433594 L 51.003906 30.046875 L 180.390625 46.816406 L 163.621094 176.203125 Z M 34.234375 159.433594 " clip-rule="nonzero"/></clipPath><clipPath id="e7292a855e"><path d="M 34.234375 159.433594 L 51.003906 30.046875 L 180.390625 46.816406 L 163.621094 176.203125 Z M 34.234375 159.433594 " clip-rule="nonzero"/></clipPath><clipPath id="f2e8f4e5fb"><path d="M 34.234375 159.433594 L 51.003906 30.046875 L 180.390625 46.816406 L 163.621094 176.203125 Z M 34.234375 159.433594 " clip-rule="nonzero"/></clipPath><clipPath id="42e69ca58b"><path d="M 55 101 L 67 101 L 67 114 L 55 114 Z M 55 101 " clip-rule="nonzero"/></clipPath><clipPath id="a9a1337df9"><path d="M 34.234375 159.433594 L 51.003906 30.046875 L 180.390625 46.816406 L 163.621094 176.203125 Z M 34.234375 159.433594 " clip-rule="nonzero"/></clipPath><clipPath id="2336476c33"><path d="M 34.234375 159.433594 L 51.003906 30.046875 L 180.390625 46.816406 L 163.621094 176.203125 Z M 34.234375 159.433594 " clip-rule="nonzero"/></clipPath><clipPath id="79720fb0cb"><path d="M 34.234375 159.433594 L 51.003906 30.046875 L 180.390625 46.816406 L 163.621094 176.203125 Z M 34.234375 159.433594 " clip-rule="nonzero"/></clipPath><clipPath id="566f2f38a1"><path d="M 46 89 L 58 89 L 58 102 L 46 102 Z M 46 89 " clip-rule="nonzero"/></clipPath><clipPath id="427523a3ff"><path d="M 34.234375 159.433594 L 51.003906 30.046875 L 180.390625 46.816406 L 163.621094 176.203125 Z M 34.234375 159.433594 " clip-rule="nonzero"/></clipPath><clipPath id="cdb479ad34"><path d="M 34.234375 159.433594 L 51.003906 30.046875 L 180.390625 46.816406 L 163.621094 176.203125 Z M 34.234375 159.433594 " clip-rule="nonzero"/></clipPath><clipPath id="c6aaab5509"><path d="M 34.234375 159.433594 L 51.003906 30.046875 L 180.390625 46.816406 L 163.621094 176.203125 Z M 34.234375 159.433594 " clip-rule="nonzero"/></clipPath><clipPath id="e6b7c26f73"><path d="M 55 77 L 68 77 L 68 89 L 55 89 Z M 55 77 " clip-rule="nonzero"/></clipPath><clipPath id="931ec728da"><path d="M 34.234375 159.433594 L 51.003906 30.046875 L 180.390625 46.816406 L 163.621094 176.203125 Z M 34.234375 159.433594 " clip-rule="nonzero"/></clipPath><clipPath id="bcaed1a42d"><path d="M 34.234375 159.433594 L 51.003906 30.046875 L 180.390625 46.816406 L 163.621094 176.203125 Z M 34.234375 159.433594 " clip-rule="nonzero"/></clipPath><clipPath id="b1ca4520d9"><path d="M 34.234375 159.433594 L 51.003906 30.046875 L 180.390625 46.816406 L 163.621094 176.203125 Z M 34.234375 159.433594 " clip-rule="nonzero"/></clipPath><clipPath id="aae3147c05"><path d="M 57 66 L 69 66 L 69 79 L 57 79 Z M 57 66 " clip-rule="nonzero"/></clipPath><clipPath id="c572d759b5"><path d="M 34.234375 159.433594 L 51.003906 30.046875 L 180.390625 46.816406 L 163.621094 176.203125 Z M 34.234375 159.433594 " clip-rule="nonzero"/></clipPath><clipPath id="c6056dc751"><path d="M 34.234375 159.433594 L 51.003906 30.046875 L 180.390625 46.816406 L 163.621094 176.203125 Z M 34.234375 159.433594 " clip-rule="nonzero"/></clipPath><clipPath id="65c4040eb6"><path d="M 34.234375 159.433594 L 51.003906 30.046875 L 180.390625 46.816406 L 163.621094 176.203125 Z M 34.234375 159.433594 " clip-rule="nonzero"/></clipPath><clipPath id="e211682885"><path d="M 65 65 L 77 65 L 77 77 L 65 77 Z M 65 65 " clip-rule="nonzero"/></clipPath><clipPath id="5c6e6c914f"><path d="M 34.234375 159.433594 L 51.003906 30.046875 L 180.390625 46.816406 L 163.621094 176.203125 Z M 34.234375 159.433594 " clip-rule="nonzero"/></clipPath><clipPath id="38c70ef77a"><path d="M 34.234375 159.433594 L 51.003906 30.046875 L 180.390625 46.816406 L 163.621094 176.203125 Z M 34.234375 159.433594 " clip-rule="nonzero"/></clipPath><clipPath id="90c4df52a4"><path d="M 34.234375 159.433594 L 51.003906 30.046875 L 180.390625 46.816406 L 163.621094 176.203125 Z M 34.234375 159.433594 " clip-rule="nonzero"/></clipPath><clipPath id="f18c63a00f"><path d="M 69 57 L 81 57 L 81 69 L 69 69 Z M 69 57 " clip-rule="nonzero"/></clipPath><clipPath id="f4c87ea574"><path d="M 34.234375 159.433594 L 51.003906 30.046875 L 180.390625 46.816406 L 163.621094 176.203125 Z M 34.234375 159.433594 " clip-rule="nonzero"/></clipPath><clipPath id="8617aaf0a3"><path d="M 34.234375 159.433594 L 51.003906 30.046875 L 180.390625 46.816406 L 163.621094 176.203125 Z M 34.234375 159.433594 " clip-rule="nonzero"/></clipPath><clipPath id="77e81d159c"><path d="M 34.234375 159.433594 L 51.003906 30.046875 L 180.390625 46.816406 L 163.621094 176.203125 Z M 34.234375 159.433594 " clip-rule="nonzero"/></clipPath><clipPath id="2ea248d4a9"><path d="M 75 47 L 88 47 L 88 59 L 75 59 Z M 75 47 " clip-rule="nonzero"/></clipPath><clipPath id="ca686bdbff"><path d="M 34.234375 159.433594 L 51.003906 30.046875 L 180.390625 46.816406 L 163.621094 176.203125 Z M 34.234375 159.433594 " clip-rule="nonzero"/></clipPath><clipPath id="ec1d9c11b5"><path d="M 34.234375 159.433594 L 51.003906 30.046875 L 180.390625 46.816406 L 163.621094 176.203125 Z M 34.234375 159.433594 " clip-rule="nonzero"/></clipPath><clipPath id="b11c31ef7b"><path d="M 34.234375 159.433594 L 51.003906 30.046875 L 180.390625 46.816406 L 163.621094 176.203125 Z M 34.234375 159.433594 " clip-rule="nonzero"/></clipPath><clipPath id="b0a3d0c512"><path d="M 83 51 L 96 51 L 96 63 L 83 63 Z M 83 51 " clip-rule="nonzero"/></clipPath><clipPath id="7300ea028a"><path d="M 34.234375 159.433594 L 51.003906 30.046875 L 180.390625 46.816406 L 163.621094 176.203125 Z M 34.234375 159.433594 " clip-rule="nonzero"/></clipPath><clipPath id="7b13f4983d"><path d="M 34.234375 159.433594 L 51.003906 30.046875 L 180.390625 46.816406 L 163.621094 176.203125 Z M 34.234375 159.433594 " clip-rule="nonzero"/></clipPath><clipPath id="4d55f120ba"><path d="M 34.234375 159.433594 L 51.003906 30.046875 L 180.390625 46.816406 L 163.621094 176.203125 Z M 34.234375 159.433594 " clip-rule="nonzero"/></clipPath><clipPath id="c2dbfb4fe1"><path d="M 98 44 L 110 44 L 110 57 L 98 57 Z M 98 44 " clip-rule="nonzero"/></clipPath><clipPath id="757948f972"><path d="M 34.234375 159.433594 L 51.003906 30.046875 L 180.390625 46.816406 L 163.621094 176.203125 Z M 34.234375 159.433594 " clip-rule="nonzero"/></clipPath><clipPath id="919b78bd6b"><path d="M 34.234375 159.433594 L 51.003906 30.046875 L 180.390625 46.816406 L 163.621094 176.203125 Z M 34.234375 159.433594 " clip-rule="nonzero"/></clipPath><clipPath id="f09fd3a852"><path d="M 34.234375 159.433594 L 51.003906 30.046875 L 180.390625 46.816406 L 163.621094 176.203125 Z M 34.234375 159.433594 " clip-rule="nonzero"/></clipPath><clipPath id="4915c89501"><path d="M 111 44 L 124 44 L 124 56 L 111 56 Z M 111 44 " clip-rule="nonzero"/></clipPath><clipPath id="6dd6336adb"><path d="M 34.234375 159.433594 L 51.003906 30.046875 L 180.390625 46.816406 L 163.621094 176.203125 Z M 34.234375 159.433594 " clip-rule="nonzero"/></clipPath><clipPath id="545262a81d"><path d="M 34.234375 159.433594 L 51.003906 30.046875 L 180.390625 46.816406 L 163.621094 176.203125 Z M 34.234375 159.433594 " clip-rule="nonzero"/></clipPath><clipPath id="3dd923d470"><path d="M 34.234375 159.433594 L 51.003906 30.046875 L 180.390625 46.816406 L 163.621094 176.203125 Z M 34.234375 159.433594 " clip-rule="nonzero"/></clipPath><clipPath id="226e57567d"><path d="M 82 61 L 94 61 L 94 74 L 82 74 Z M 82 61 " clip-rule="nonzero"/></clipPath><clipPath id="443cdea5b3"><path d="M 34.234375 159.433594 L 51.003906 30.046875 L 180.390625 46.816406 L 163.621094 176.203125 Z M 34.234375 159.433594 " clip-rule="nonzero"/></clipPath><clipPath id="0d66d13892"><path d="M 34.234375 159.433594 L 51.003906 30.046875 L 180.390625 46.816406 L 163.621094 176.203125 Z M 34.234375 159.433594 " clip-rule="nonzero"/></clipPath><clipPath id="d411c9d6f6"><path d="M 34.234375 159.433594 L 51.003906 30.046875 L 180.390625 46.816406 L 163.621094 176.203125 Z M 34.234375 159.433594 " clip-rule="nonzero"/></clipPath><clipPath id="0f1fe900b9"><path d="M 70 71 L 82 71 L 82 83 L 70 83 Z M 70 71 " clip-rule="nonzero"/></clipPath><clipPath id="6540385344"><path d="M 34.234375 159.433594 L 51.003906 30.046875 L 180.390625 46.816406 L 163.621094 176.203125 Z M 34.234375 159.433594 " clip-rule="nonzero"/></clipPath><clipPath id="524b4dc722"><path d="M 34.234375 159.433594 L 51.003906 30.046875 L 180.390625 46.816406 L 163.621094 176.203125 Z M 34.234375 159.433594 " clip-rule="nonzero"/></clipPath><clipPath id="bae565d71a"><path d="M 34.234375 159.433594 L 51.003906 30.046875 L 180.390625 46.816406 L 163.621094 176.203125 Z M 34.234375 159.433594 " clip-rule="nonzero"/></clipPath><clipPath id="22af0699fc"><path d="M 60 83 L 72 83 L 72 96 L 60 96 Z M 60 83 " clip-rule="nonzero"/></clipPath><clipPath id="715b1d4246"><path d="M 34.234375 159.433594 L 51.003906 30.046875 L 180.390625 46.816406 L 163.621094 176.203125 Z M 34.234375 159.433594 " clip-rule="nonzero"/></clipPath><clipPath id="fa9ac8b68f"><path d="M 34.234375 159.433594 L 51.003906 30.046875 L 180.390625 46.816406 L 163.621094 176.203125 Z M 34.234375 159.433594 " clip-rule="nonzero"/></clipPath><clipPath id="97e5965c17"><path d="M 34.234375 159.433594 L 51.003906 30.046875 L 180.390625 46.816406 L 163.621094 176.203125 Z M 34.234375 159.433594 " clip-rule="nonzero"/></clipPath><clipPath id="b37feb8b7d"><path d="M 63 100 L 76 100 L 76 112 L 63 112 Z M 63 100 " clip-rule="nonzero"/></clipPath><clipPath id="a12a0c8c2c"><path d="M 34.234375 159.433594 L 51.003906 30.046875 L 180.390625 46.816406 L 163.621094 176.203125 Z M 34.234375 159.433594 " clip-rule="nonzero"/></clipPath><clipPath id="add76807bd"><path d="M 34.234375 159.433594 L 51.003906 30.046875 L 180.390625 46.816406 L 163.621094 176.203125 Z M 34.234375 159.433594 " clip-rule="nonzero"/></clipPath><clipPath id="65270a0a71"><path d="M 34.234375 159.433594 L 51.003906 30.046875 L 180.390625 46.816406 L 163.621094 176.203125 Z M 34.234375 159.433594 " clip-rule="nonzero"/></clipPath><clipPath id="a70968aa55"><path d="M 59 94 L 71 94 L 71 106 L 59 106 Z M 59 94 " clip-rule="nonzero"/></clipPath><clipPath id="1ce432f65e"><path d="M 34.234375 159.433594 L 51.003906 30.046875 L 180.390625 46.816406 L 163.621094 176.203125 Z M 34.234375 159.433594 " clip-rule="nonzero"/></clipPath><clipPath id="1bf34325da"><path d="M 34.234375 159.433594 L 51.003906 30.046875 L 180.390625 46.816406 L 163.621094 176.203125 Z M 34.234375 159.433594 " clip-rule="nonzero"/></clipPath><clipPath id="dafd900181"><path d="M 34.234375 159.433594 L 51.003906 30.046875 L 180.390625 46.816406 L 163.621094 176.203125 Z M 34.234375 159.433594 " clip-rule="nonzero"/></clipPath><clipPath id="6533bcc174"><path d="M 67 111 L 80 111 L 80 124 L 67 124 Z M 67 111 " clip-rule="nonzero"/></clipPath><clipPath id="76dbc7c1c6"><path d="M 34.234375 159.433594 L 51.003906 30.046875 L 180.390625 46.816406 L 163.621094 176.203125 Z M 34.234375 159.433594 " clip-rule="nonzero"/></clipPath><clipPath id="97a9cd07ba"><path d="M 34.234375 159.433594 L 51.003906 30.046875 L 180.390625 46.816406 L 163.621094 176.203125 Z M 34.234375 159.433594 " clip-rule="nonzero"/></clipPath><clipPath id="9382fc7cb8"><path d="M 34.234375 159.433594 L 51.003906 30.046875 L 180.390625 46.816406 L 163.621094 176.203125 Z M 34.234375 159.433594 " clip-rule="nonzero"/></clipPath><clipPath id="1d409e04de"><path d="M 76 85 L 88 85 L 88 98 L 76 98 Z M 76 85 " clip-rule="nonzero"/></clipPath><clipPath id="30b395473d"><path d="M 34.234375 159.433594 L 51.003906 30.046875 L 180.390625 46.816406 L 163.621094 176.203125 Z M 34.234375 159.433594 " clip-rule="nonzero"/></clipPath><clipPath id="a5a079eb09"><path d="M 34.234375 159.433594 L 51.003906 30.046875 L 180.390625 46.816406 L 163.621094 176.203125 Z M 34.234375 159.433594 " clip-rule="nonzero"/></clipPath><clipPath id="f4e2143a10"><path d="M 34.234375 159.433594 L 51.003906 30.046875 L 180.390625 46.816406 L 163.621094 176.203125 Z M 34.234375 159.433594 " clip-rule="nonzero"/></clipPath><clipPath id="c532d9455c"><path d="M 97 69 L 110 69 L 110 81 L 97 81 Z M 97 69 " clip-rule="nonzero"/></clipPath><clipPath id="8fb47fd47a"><path d="M 34.234375 159.433594 L 51.003906 30.046875 L 180.390625 46.816406 L 163.621094 176.203125 Z M 34.234375 159.433594 " clip-rule="nonzero"/></clipPath><clipPath id="725a8b97c1"><path d="M 34.234375 159.433594 L 51.003906 30.046875 L 180.390625 46.816406 L 163.621094 176.203125 Z M 34.234375 159.433594 " clip-rule="nonzero"/></clipPath><clipPath id="f03b6d8f86"><path d="M 34.234375 159.433594 L 51.003906 30.046875 L 180.390625 46.816406 L 163.621094 176.203125 Z M 34.234375 159.433594 " clip-rule="nonzero"/></clipPath><clipPath id="5728568a82"><path d="M 114 66 L 126 66 L 126 78 L 114 78 Z M 114 66 " clip-rule="nonzero"/></clipPath><clipPath id="6b10fb660b"><path d="M 34.234375 159.433594 L 51.003906 30.046875 L 180.390625 46.816406 L 163.621094 176.203125 Z M 34.234375 159.433594 " clip-rule="nonzero"/></clipPath><clipPath id="7d70b4b39d"><path d="M 34.234375 159.433594 L 51.003906 30.046875 L 180.390625 46.816406 L 163.621094 176.203125 Z M 34.234375 159.433594 " clip-rule="nonzero"/></clipPath><clipPath id="948b9f628a"><path d="M 34.234375 159.433594 L 51.003906 30.046875 L 180.390625 46.816406 L 163.621094 176.203125 Z M 34.234375 159.433594 " clip-rule="nonzero"/></clipPath><clipPath id="9985412f5c"><path d="M 60 185 L 154 185 L 154 282 L 60 282 Z M 60 185 " clip-rule="nonzero"/></clipPath><clipPath id="4a65180350"><path d="M 50.382812 179.222656 L 140.453125 159.566406 L 164.109375 267.949219 L 74.042969 287.609375 Z M 50.382812 179.222656 " clip-rule="nonzero"/></clipPath><clipPath id="5006e68ad3"><path d="M 140.488281 159.558594 L 50.421875 179.214844 L 74.078125 287.601562 L 164.144531 267.941406 Z M 140.488281 159.558594 " clip-rule="nonzero"/></clipPath><clipPath id="4c85595fd8"><path d="M 140.488281 159.558594 L 50.421875 179.214844 L 74.078125 287.601562 L 164.144531 267.941406 Z M 140.488281 159.558594 " clip-rule="nonzero"/></clipPath><clipPath id="f695bc79f0"><path d="M 53 183 L 98 183 L 98 200 L 53 200 Z M 53 183 " clip-rule="nonzero"/></clipPath><clipPath id="bbf55cbd29"><path d="M 50.382812 179.222656 L 140.453125 159.566406 L 164.109375 267.949219 L 74.042969 287.609375 Z M 50.382812 179.222656 " clip-rule="nonzero"/></clipPath><clipPath id="f2e3fed97c"><path d="M 140.488281 159.558594 L 50.421875 179.214844 L 74.078125 287.601562 L 164.144531 267.941406 Z M 140.488281 159.558594 " clip-rule="nonzero"/></clipPath><clipPath id="125d03ab35"><path d="M 140.488281 159.558594 L 50.421875 179.214844 L 74.078125 287.601562 L 164.144531 267.941406 Z M 140.488281 159.558594 " clip-rule="nonzero"/></clipPath><clipPath id="8cc7e06d62"><path d="M 84 171 L 105 171 L 105 200 L 84 200 Z M 84 171 " clip-rule="nonzero"/></clipPath><clipPath id="81499f21fa"><path d="M 50.382812 179.222656 L 140.453125 159.566406 L 164.109375 267.949219 L 74.042969 287.609375 Z M 50.382812 179.222656 " clip-rule="nonzero"/></clipPath><clipPath id="fe49e6a3f8"><path d="M 140.488281 159.558594 L 50.421875 179.214844 L 74.078125 287.601562 L 164.144531 267.941406 Z M 140.488281 159.558594 " clip-rule="nonzero"/></clipPath><clipPath id="e200c67f07"><path d="M 140.488281 159.558594 L 50.421875 179.214844 L 74.078125 287.601562 L 164.144531 267.941406 Z M 140.488281 159.558594 " clip-rule="nonzero"/></clipPath></defs><g clip-path="url(#ef653b9084)"><path fill="#fed766" d="M 0 0 L 374.878906 0 L 374.878906 374.878906 L 0 374.878906 Z M 0 0 " fill-opacity="1" fill-rule="nonzero"/><path stroke-linecap="butt" transform="matrix(0.75, 0, 0, 0.75, 0.0000045, 0)" fill="none" stroke-linejoin="miter" d="M 22.999997 0 L 477.000056 0 C 489.703182 0 500.000059 10.296876 500.000059 23.000003 L 500.000059 477.000062 C 500.000059 489.703188 489.703182 500.000065 477.000056 500.000065 L 22.999997 500.000065 C 10.29687 500.000065 -0.000006 489.703188 -0.000006 477.000062 L -0.000006 23.000003 C -0.000006 10.296876 10.29687 0 22.999997 0 " stroke="#ffffff" stroke-width="6" stroke-opacity="1" stroke-miterlimit="4"/></g><g clip-path="url(#47f19dd952)"><g clip-path="url(#abe066cf0d)"><path fill="#f4f4f8" d="M 31.25 17.085938 L 343.75 17.085938 L 343.75 302.121094 L 31.25 302.121094 Z M 31.25 17.085938 " fill-opacity="1" fill-rule="nonzero"/></g></g><g clip-path="url(#0cf23f24cf)"><g clip-path="url(#fd7aba8ec7)"><path stroke-linecap="butt" transform="matrix(0.750619, 0, 0, 0.750154, 31.250005, 17.089051)" fill="none" stroke-linejoin="miter" d="M 23.00185 0.00105673 L 393.654399 0.00105673 C 399.758738 0.00105673 405.608079 2.422434 409.922228 6.734048 C 414.231173 11.05087 416.656256 16.898626 416.656256 23.001539 L 416.656256 356.912097 C 416.656256 363.01501 414.231173 368.862767 409.922228 373.174381 C 405.608079 377.491202 399.758738 379.91258 393.654399 379.91258 L 23.00185 379.91258 C 16.897511 379.91258 11.04817 377.491202 6.734021 373.174381 C 2.425076 368.862767 -0.00000667172 363.01501 -0.00000667172 356.912097 L -0.00000667172 23.001539 C -0.00000667172 10.295816 10.298789 0.00105673 23.00185 0.00105673 " stroke="#ffffff" stroke-width="6" stroke-opacity="1" stroke-miterlimit="4"/></g></g><g clip-path="url(#8e1a5c61b2)"><g clip-path="url(#32c466fe9f)"><g clip-path="url(#e5d2c46100)"><g clip-path="url(#9868a9058e)"><path fill="#d99e82" d="M 336.5 85.054688 C 340.421875 69.03125 328.011719 52.171875 308.617188 46.636719 L 308.632812 46.5625 L 252.351562 32.789062 L 252.332031 32.863281 C 232.574219 28.816406 213.78125 38.039062 209.859375 54.066406 C 208.257812 60.609375 209.410156 67.28125 212.613281 73.285156 L 201.835938 117.320312 C 199.9375 125.085938 204.695312 132.925781 212.46875 134.828125 L 296.894531 155.484375 C 304.664062 157.386719 312.503906 152.632812 314.40625 144.863281 L 325.179688 100.832031 C 330.792969 96.984375 334.898438 91.597656 336.5 85.054688 Z M 336.5 85.054688 " fill-opacity="1" fill-rule="nonzero"/></g></g></g></g><g clip-path="url(#5070979cb4)"><g clip-path="url(#ec7d4da7b5)"><g clip-path="url(#0a2f345374)"><g clip-path="url(#8c86902529)"><path fill="#cc927a" d="M 272.414062 87.917969 L 325.179688 100.832031 L 323.890625 106.105469 L 271.125 93.191406 Z M 272.414062 87.917969 " fill-opacity="1" fill-rule="nonzero"/></g></g></g></g><g clip-path="url(#7f0a3cba1b)"><g clip-path="url(#d409441444)"><g clip-path="url(#57f58c72e7)"><g clip-path="url(#dceedcd4d6)"><path fill="#ffe8b6" d="M 283.730469 72.144531 C 286.710938 59.972656 276.699219 46.980469 261.171875 42.441406 C 260.597656 42.273438 252.980469 40.394531 252.386719 40.25 C 235.875 36.210938 219.984375 43.164062 216.894531 55.789062 C 215.523438 61.394531 216.921875 67.171875 220.332031 72.222656 L 209.734375 115.523438 C 208.308594 121.351562 211.875 127.230469 217.707031 128.65625 L 249.367188 136.402344 C 255.195312 137.828125 261.074219 134.261719 262.5 128.4375 L 273.101562 85.117188 C 278.449219 82.210938 282.359375 77.746094 283.730469 72.144531 Z M 283.730469 72.144531 " fill-opacity="1" fill-rule="nonzero"/></g></g></g></g><g clip-path="url(#559adfce20)"><g clip-path="url(#5a715e6bca)"><g clip-path="url(#a1f99a1e21)"><g clip-path="url(#9903320aa7)"><path fill="#77b255" d="M 133.257812 88.125 L 87.203125 123.617188 C 87.203125 123.617188 128.523438 127.273438 133.675781 171.4375 C 133.675781 171.4375 143.308594 168.828125 152.992188 161.367188 C 162.675781 153.90625 167.652344 145.257812 167.652344 145.257812 C 126.257812 129.015625 133.257812 88.125 133.257812 88.125 Z M 133.257812 88.125 " fill-opacity="1" fill-rule="nonzero"/></g></g></g></g><g clip-path="url(#1ffac19a68)"><g clip-path="url(#4d33652573)"><g clip-path="url(#1296c781c2)"><g clip-path="url(#d9c9a8a04c)"><path fill="#5c913b" d="M 100.476562 118.199219 C 113.5 122.605469 132.808594 141.421875 132.808594 141.421875 L 104.886719 105.179688 C 95.578125 93.101562 100.476562 118.199219 100.476562 118.199219 Z M 130.429688 75.867188 C 130.429688 75.867188 127.902344 116.316406 143.5 142.808594 C 117.902344 109.585938 116.964844 95.871094 116.964844 95.871094 Z M 130.429688 75.867188 " fill-opacity="1" fill-rule="nonzero"/></g></g></g></g><g clip-path="url(#1aab181a37)"><g clip-path="url(#1d125a11f5)"><g clip-path="url(#78d54ed137)"><g clip-path="url(#74462a3124)"><path fill="#3e721d" d="M 150.886719 63.714844 C 151.371094 61.285156 150.875 58.675781 149.242188 56.558594 C 146.246094 52.667969 140.660156 51.941406 136.769531 54.941406 C 136.414062 55.210938 136.117188 55.527344 135.8125 55.839844 C 135.636719 54.28125 135.078125 52.746094 134.050781 51.414062 C 133.054688 50.125 131.765625 49.214844 130.359375 48.644531 C 130.160156 47.140625 129.617188 45.660156 128.621094 44.367188 C 125.625 40.476562 120.039062 39.753906 116.148438 42.75 C 113.148438 38.859375 107.5625 38.136719 103.671875 41.132812 C 102.210938 42.261719 101.195312 43.75 100.65625 45.382812 C 97.582031 43.375 93.464844 43.386719 90.386719 45.753906 C 89.054688 46.78125 88.121094 48.121094 87.554688 49.585938 C 87.34375 49.207031 87.132812 48.824219 86.863281 48.472656 C 83.863281 44.582031 78.277344 43.855469 74.386719 46.855469 C 71.308594 49.226562 70.25 53.203125 71.40625 56.691406 C 69.691406 56.796875 67.992188 57.394531 66.53125 58.519531 C 64.414062 60.152344 63.273438 62.550781 63.117188 65.023438 C 60.6875 64.539062 58.078125 65.035156 55.960938 66.667969 C 52.070312 69.664062 51.34375 75.25 54.34375 79.140625 C 51.265625 81.511719 50.207031 85.492188 51.363281 88.976562 C 49.648438 89.085938 47.949219 89.683594 46.488281 90.808594 C 42.597656 93.808594 41.875 99.394531 44.871094 103.285156 C 45.996094 104.746094 47.488281 105.761719 49.117188 106.296875 C 47.113281 109.375 47.125 113.492188 49.492188 116.570312 C 50.519531 117.902344 51.859375 118.835938 53.320312 119.402344 C 52.941406 119.613281 52.5625 119.820312 52.207031 120.09375 C 48.316406 123.089844 47.59375 128.679688 50.589844 132.570312 C 52.953125 135.648438 56.929688 136.710938 60.421875 135.554688 C 60.523438 137.269531 61.128906 138.96875 62.253906 140.429688 C 65.25 144.320312 70.839844 145.046875 74.730469 142.046875 C 76.0625 141.019531 76.996094 139.679688 77.5625 138.21875 C 77.773438 138.597656 77.980469 138.980469 78.253906 139.332031 C 81.25 143.222656 86.839844 143.945312 90.730469 140.949219 C 92.191406 139.824219 93.207031 138.332031 93.742188 136.703125 C 96.820312 138.707031 100.9375 138.695312 104.011719 136.328125 C 107.089844 133.957031 108.152344 129.980469 106.992188 126.492188 C 108.707031 126.386719 110.40625 125.789062 111.867188 124.660156 C 113.203125 123.632812 114.132812 122.292969 114.699219 120.832031 C 114.914062 121.210938 115.121094 121.59375 115.394531 121.945312 C 118.390625 125.835938 123.976562 126.558594 127.867188 123.5625 C 130.945312 121.191406 132.007812 117.214844 130.847656 113.726562 C 132.5625 113.621094 134.261719 113.023438 135.722656 111.894531 C 138.363281 109.859375 139.507812 106.640625 139.058594 103.5625 C 139.398438 103.367188 139.738281 103.1875 140.058594 102.941406 C 142.175781 101.308594 143.316406 98.914062 143.472656 96.441406 C 145.902344 96.921875 148.511719 96.429688 150.628906 94.796875 C 154.519531 91.796875 155.242188 86.210938 152.246094 82.320312 C 151.972656 81.96875 151.65625 81.667969 151.347656 81.367188 C 152.90625 81.191406 154.4375 80.632812 155.769531 79.605469 C 159.660156 76.605469 160.386719 71.019531 157.386719 67.128906 C 155.757812 65.011719 153.359375 63.871094 150.886719 63.714844 Z M 150.886719 63.714844 " fill-opacity="1" fill-rule="nonzero"/></g></g></g></g><g clip-path="url(#01b049a36b)"><g clip-path="url(#732338cf45)"><g clip-path="url(#e7292a855e)"><g clip-path="url(#f2e8f4e5fb)"><path fill="#5c913b" d="M 59.71875 118.023438 C 60.09375 118.074219 60.457031 118.15625 60.8125 118.277344 C 61.167969 118.398438 61.507812 118.550781 61.835938 118.738281 C 62.160156 118.925781 62.464844 119.144531 62.746094 119.390625 C 63.03125 119.636719 63.285156 119.910156 63.515625 120.207031 C 63.742188 120.503906 63.941406 120.820312 64.109375 121.15625 C 64.277344 121.492188 64.40625 121.84375 64.503906 122.207031 C 64.605469 122.566406 64.664062 122.9375 64.691406 123.3125 C 64.714844 123.6875 64.703125 124.058594 64.65625 124.433594 C 64.609375 124.804688 64.523438 125.167969 64.402344 125.523438 C 64.285156 125.878906 64.128906 126.222656 63.941406 126.546875 C 63.757812 126.871094 63.539062 127.175781 63.292969 127.460938 C 63.042969 127.742188 62.773438 128 62.476562 128.226562 C 62.175781 128.457031 61.859375 128.65625 61.523438 128.820312 C 61.1875 128.988281 60.839844 129.121094 60.476562 129.21875 C 60.113281 129.316406 59.746094 129.378906 59.371094 129.402344 C 58.996094 129.429688 58.621094 129.417969 58.25 129.367188 C 57.875 129.320312 57.511719 129.234375 57.15625 129.117188 C 56.800781 128.996094 56.460938 128.84375 56.132812 128.65625 C 55.808594 128.46875 55.503906 128.25 55.222656 128.003906 C 54.9375 127.757812 54.683594 127.484375 54.453125 127.1875 C 54.226562 126.890625 54.027344 126.574219 53.859375 126.238281 C 53.691406 125.898438 53.5625 125.550781 53.464844 125.1875 C 53.363281 124.824219 53.304688 124.457031 53.277344 124.082031 C 53.253906 123.707031 53.265625 123.335938 53.3125 122.960938 C 53.359375 122.589844 53.445312 122.226562 53.566406 121.871094 C 53.683594 121.511719 53.839844 121.171875 54.027344 120.847656 C 54.210938 120.523438 54.429688 120.21875 54.675781 119.933594 C 54.925781 119.652344 55.195312 119.394531 55.492188 119.167969 C 55.792969 118.9375 56.109375 118.738281 56.445312 118.574219 C 56.78125 118.40625 57.128906 118.273438 57.492188 118.175781 C 57.855469 118.078125 58.222656 118.015625 58.597656 117.992188 C 58.972656 117.964844 59.347656 117.976562 59.71875 118.023438 Z M 59.71875 118.023438 " fill-opacity="1" fill-rule="nonzero"/></g></g></g></g><g clip-path="url(#42e69ca58b)"><g clip-path="url(#a9a1337df9)"><g clip-path="url(#2336476c33)"><g clip-path="url(#79720fb0cb)"><path fill="#5c913b" d="M 61.800781 101.980469 C 62.171875 102.027344 62.535156 102.113281 62.890625 102.234375 C 63.246094 102.351562 63.589844 102.507812 63.914062 102.695312 C 64.238281 102.882812 64.542969 103.097656 64.828125 103.34375 C 65.109375 103.59375 65.363281 103.863281 65.59375 104.160156 C 65.824219 104.460938 66.023438 104.777344 66.1875 105.113281 C 66.355469 105.449219 66.488281 105.796875 66.585938 106.160156 C 66.683594 106.523438 66.746094 106.890625 66.769531 107.265625 C 66.796875 107.640625 66.785156 108.015625 66.734375 108.386719 C 66.6875 108.761719 66.601562 109.125 66.484375 109.480469 C 66.363281 109.835938 66.210938 110.175781 66.023438 110.503906 C 65.835938 110.828125 65.617188 111.132812 65.371094 111.414062 C 65.125 111.699219 64.851562 111.953125 64.554688 112.183594 C 64.257812 112.410156 63.941406 112.609375 63.605469 112.777344 C 63.265625 112.945312 62.917969 113.074219 62.554688 113.171875 C 62.191406 113.273438 61.824219 113.332031 61.449219 113.359375 C 61.074219 113.382812 60.703125 113.371094 60.328125 113.324219 C 59.957031 113.277344 59.59375 113.191406 59.238281 113.070312 C 58.878906 112.953125 58.539062 112.796875 58.214844 112.609375 C 57.890625 112.425781 57.585938 112.207031 57.300781 111.960938 C 57.019531 111.710938 56.761719 111.441406 56.535156 111.144531 C 56.304688 110.84375 56.105469 110.527344 55.941406 110.191406 C 55.773438 109.855469 55.640625 109.507812 55.542969 109.144531 C 55.445312 108.78125 55.382812 108.414062 55.359375 108.039062 C 55.332031 107.664062 55.34375 107.289062 55.390625 106.917969 C 55.441406 106.542969 55.523438 106.179688 55.644531 105.824219 C 55.765625 105.46875 55.917969 105.128906 56.105469 104.800781 C 56.292969 104.476562 56.507812 104.171875 56.757812 103.890625 C 57.003906 103.605469 57.277344 103.351562 57.574219 103.121094 C 57.871094 102.894531 58.1875 102.695312 58.523438 102.527344 C 58.859375 102.363281 59.210938 102.230469 59.574219 102.132812 C 59.933594 102.03125 60.304688 101.972656 60.679688 101.945312 C 61.054688 101.921875 61.425781 101.933594 61.800781 101.980469 Z M 61.800781 101.980469 " fill-opacity="1" fill-rule="nonzero"/></g></g></g></g><g clip-path="url(#566f2f38a1)"><g clip-path="url(#427523a3ff)"><g clip-path="url(#cdb479ad34)"><g clip-path="url(#c6aaab5509)"><path fill="#5c913b" d="M 52.492188 89.902344 C 52.863281 89.949219 53.230469 90.035156 53.585938 90.15625 C 53.941406 90.273438 54.28125 90.429688 54.605469 90.613281 C 54.933594 90.800781 55.238281 91.019531 55.519531 91.265625 C 55.800781 91.511719 56.058594 91.785156 56.289062 92.082031 C 56.515625 92.378906 56.714844 92.699219 56.882812 93.035156 C 57.046875 93.371094 57.179688 93.71875 57.277344 94.082031 C 57.375 94.445312 57.4375 94.8125 57.464844 95.1875 C 57.488281 95.5625 57.476562 95.9375 57.429688 96.308594 C 57.378906 96.679688 57.296875 97.046875 57.175781 97.402344 C 57.054688 97.757812 56.902344 98.097656 56.714844 98.421875 C 56.527344 98.75 56.3125 99.054688 56.066406 99.335938 C 55.816406 99.617188 55.546875 99.875 55.246094 100.105469 C 54.949219 100.332031 54.632812 100.53125 54.296875 100.699219 C 53.960938 100.863281 53.609375 100.996094 53.25 101.09375 C 52.886719 101.191406 52.515625 101.253906 52.144531 101.28125 C 51.769531 101.304688 51.394531 101.292969 51.023438 101.246094 C 50.648438 101.195312 50.285156 101.113281 49.929688 100.992188 C 49.574219 100.871094 49.234375 100.71875 48.90625 100.53125 C 48.582031 100.34375 48.277344 100.128906 47.996094 99.882812 C 47.710938 99.632812 47.457031 99.363281 47.226562 99.0625 C 46.996094 98.765625 46.800781 98.449219 46.632812 98.113281 C 46.464844 97.777344 46.332031 97.425781 46.234375 97.066406 C 46.136719 96.703125 46.078125 96.332031 46.050781 95.960938 C 46.027344 95.585938 46.039062 95.210938 46.085938 94.839844 C 46.132812 94.464844 46.21875 94.101562 46.339844 93.746094 C 46.457031 93.390625 46.613281 93.050781 46.796875 92.722656 C 46.984375 92.398438 47.203125 92.09375 47.449219 91.8125 C 47.695312 91.527344 47.96875 91.273438 48.265625 91.042969 C 48.5625 90.8125 48.882812 90.617188 49.21875 90.449219 C 49.554688 90.28125 49.902344 90.148438 50.265625 90.050781 C 50.628906 89.953125 50.996094 89.894531 51.371094 89.867188 C 51.746094 89.84375 52.121094 89.855469 52.492188 89.902344 Z M 52.492188 89.902344 " fill-opacity="1" fill-rule="nonzero"/></g></g></g></g><g clip-path="url(#e6b7c26f73)"><g clip-path="url(#931ec728da)"><g clip-path="url(#bcaed1a42d)"><g clip-path="url(#b1ca4520d9)"><path fill="#5c913b" d="M 62.246094 77.574219 C 62.617188 77.621094 62.980469 77.707031 63.339844 77.824219 C 63.695312 77.945312 64.035156 78.097656 64.359375 78.285156 C 64.6875 78.472656 64.988281 78.691406 65.273438 78.9375 C 65.554688 79.183594 65.8125 79.457031 66.039062 79.753906 C 66.269531 80.050781 66.46875 80.367188 66.636719 80.703125 C 66.800781 81.042969 66.933594 81.390625 67.03125 81.753906 C 67.128906 82.117188 67.191406 82.484375 67.214844 82.859375 C 67.242188 83.234375 67.230469 83.605469 67.183594 83.980469 C 67.132812 84.351562 67.050781 84.714844 66.929688 85.070312 C 66.808594 85.429688 66.65625 85.769531 66.46875 86.09375 C 66.28125 86.417969 66.066406 86.722656 65.816406 87.007812 C 65.570312 87.289062 65.296875 87.546875 65 87.773438 C 64.703125 88.003906 64.386719 88.203125 64.050781 88.367188 C 63.714844 88.535156 63.363281 88.667969 63 88.765625 C 62.640625 88.863281 62.269531 88.925781 61.894531 88.949219 C 61.519531 88.976562 61.148438 88.964844 60.777344 88.917969 C 60.402344 88.867188 60.039062 88.785156 59.683594 88.664062 C 59.328125 88.542969 58.988281 88.390625 58.660156 88.203125 C 58.335938 88.015625 58.03125 87.800781 57.75 87.550781 C 57.464844 87.304688 57.210938 87.03125 56.980469 86.734375 C 56.75 86.4375 56.554688 86.121094 56.386719 85.785156 C 56.21875 85.449219 56.085938 85.097656 55.988281 84.734375 C 55.890625 84.375 55.828125 84.003906 55.804688 83.628906 C 55.777344 83.253906 55.789062 82.882812 55.839844 82.507812 C 55.886719 82.136719 55.972656 81.773438 56.089844 81.417969 C 56.210938 81.0625 56.363281 80.71875 56.550781 80.394531 C 56.738281 80.070312 56.957031 79.765625 57.203125 79.480469 C 57.449219 79.199219 57.722656 78.945312 58.019531 78.714844 C 58.316406 78.484375 58.632812 78.285156 58.972656 78.121094 C 59.308594 77.953125 59.65625 77.820312 60.019531 77.722656 C 60.382812 77.625 60.75 77.5625 61.125 77.539062 C 61.5 77.511719 61.875 77.523438 62.246094 77.574219 Z M 62.246094 77.574219 " fill-opacity="1" fill-rule="nonzero"/></g></g></g></g><g clip-path="url(#aae3147c05)"><g clip-path="url(#c572d759b5)"><g clip-path="url(#c6056dc751)"><g clip-path="url(#65c4040eb6)"><path fill="#5c913b" d="M 63.632812 66.878906 C 64.003906 66.929688 64.367188 67.011719 64.722656 67.132812 C 65.078125 67.253906 65.421875 67.40625 65.746094 67.59375 C 66.070312 67.78125 66.375 67.996094 66.660156 68.246094 C 66.941406 68.492188 67.199219 68.765625 67.425781 69.0625 C 67.65625 69.359375 67.855469 69.675781 68.019531 70.011719 C 68.1875 70.347656 68.320312 70.699219 68.417969 71.058594 C 68.515625 71.421875 68.578125 71.792969 68.601562 72.167969 C 68.628906 72.542969 68.617188 72.914062 68.566406 73.285156 C 68.519531 73.660156 68.4375 74.023438 68.316406 74.378906 C 68.195312 74.734375 68.042969 75.074219 67.855469 75.402344 C 67.667969 75.726562 67.449219 76.03125 67.203125 76.3125 C 66.957031 76.597656 66.683594 76.851562 66.386719 77.082031 C 66.089844 77.3125 65.773438 77.507812 65.4375 77.675781 C 65.101562 77.84375 64.75 77.976562 64.386719 78.074219 C 64.023438 78.171875 63.65625 78.234375 63.28125 78.257812 C 62.90625 78.285156 62.535156 78.273438 62.160156 78.222656 C 61.789062 78.175781 61.425781 78.089844 61.070312 77.972656 C 60.714844 77.851562 60.371094 77.699219 60.046875 77.511719 C 59.722656 77.324219 59.417969 77.105469 59.132812 76.859375 C 58.851562 76.613281 58.59375 76.339844 58.367188 76.042969 C 58.136719 75.746094 57.9375 75.429688 57.773438 75.089844 C 57.605469 74.753906 57.472656 74.40625 57.375 74.042969 C 57.277344 73.679688 57.214844 73.3125 57.191406 72.9375 C 57.164062 72.5625 57.175781 72.1875 57.226562 71.816406 C 57.273438 71.445312 57.355469 71.082031 57.476562 70.722656 C 57.597656 70.367188 57.75 70.027344 57.9375 69.703125 C 58.125 69.375 58.34375 69.074219 58.589844 68.789062 C 58.835938 68.507812 59.109375 68.25 59.40625 68.019531 C 59.703125 67.792969 60.019531 67.59375 60.355469 67.425781 C 60.695312 67.261719 61.042969 67.128906 61.40625 67.03125 C 61.769531 66.933594 62.136719 66.871094 62.511719 66.84375 C 62.886719 66.820312 63.257812 66.832031 63.632812 66.878906 Z M 63.632812 66.878906 " fill-opacity="1" fill-rule="nonzero"/></g></g></g></g><g clip-path="url(#e211682885)"><g clip-path="url(#5c6e6c914f)"><g clip-path="url(#38c70ef77a)"><g clip-path="url(#90c4df52a4)"><path fill="#5c913b" d="M 72 65.242188 C 72.371094 65.292969 72.734375 65.375 73.089844 65.496094 C 73.449219 65.617188 73.789062 65.769531 74.113281 65.957031 C 74.4375 66.144531 74.742188 66.359375 75.027344 66.609375 C 75.308594 66.855469 75.566406 67.128906 75.792969 67.425781 C 76.023438 67.722656 76.222656 68.039062 76.386719 68.375 C 76.554688 68.710938 76.6875 69.0625 76.785156 69.425781 C 76.882812 69.785156 76.945312 70.15625 76.96875 70.53125 C 76.996094 70.90625 76.984375 71.277344 76.9375 71.652344 C 76.886719 72.023438 76.804688 72.386719 76.683594 72.742188 C 76.5625 73.097656 76.410156 73.441406 76.222656 73.765625 C 76.035156 74.089844 75.820312 74.394531 75.570312 74.679688 C 75.324219 74.960938 75.050781 75.214844 74.753906 75.445312 C 74.457031 75.675781 74.140625 75.871094 73.804688 76.039062 C 73.46875 76.207031 73.117188 76.339844 72.753906 76.4375 C 72.394531 76.535156 72.023438 76.597656 71.648438 76.621094 C 71.273438 76.648438 70.902344 76.636719 70.527344 76.585938 C 70.15625 76.539062 69.792969 76.453125 69.4375 76.335938 C 69.082031 76.214844 68.738281 76.0625 68.414062 75.875 C 68.089844 75.6875 67.785156 75.46875 67.5 75.222656 C 67.21875 74.976562 66.960938 74.703125 66.734375 74.40625 C 66.503906 74.109375 66.304688 73.792969 66.140625 73.457031 C 65.972656 73.117188 65.839844 72.769531 65.742188 72.40625 C 65.644531 72.042969 65.582031 71.675781 65.558594 71.300781 C 65.53125 70.925781 65.542969 70.550781 65.59375 70.179688 C 65.640625 69.808594 65.726562 69.445312 65.84375 69.089844 C 65.964844 68.730469 66.117188 68.390625 66.304688 68.066406 C 66.492188 67.738281 66.710938 67.4375 66.957031 67.152344 C 67.203125 66.871094 67.476562 66.613281 67.773438 66.386719 C 68.070312 66.15625 68.386719 65.957031 68.722656 65.792969 C 69.0625 65.625 69.410156 65.492188 69.773438 65.394531 C 70.136719 65.296875 70.503906 65.234375 70.878906 65.210938 C 71.253906 65.183594 71.625 65.195312 72 65.242188 Z M 72 65.242188 " fill-opacity="1" fill-rule="nonzero"/></g></g></g></g><g clip-path="url(#f18c63a00f)"><g clip-path="url(#f4c87ea574)"><g clip-path="url(#8617aaf0a3)"><g clip-path="url(#77e81d159c)"><path fill="#5c913b" d="M 75.710938 57.570312 C 76.082031 57.617188 76.449219 57.703125 76.804688 57.820312 C 77.160156 57.941406 77.5 58.09375 77.824219 58.28125 C 78.152344 58.46875 78.457031 58.6875 78.738281 58.933594 C 79.019531 59.179688 79.277344 59.453125 79.507812 59.75 C 79.734375 60.046875 79.933594 60.363281 80.101562 60.703125 C 80.265625 61.039062 80.398438 61.386719 80.496094 61.75 C 80.59375 62.113281 80.65625 62.480469 80.683594 62.855469 C 80.707031 63.230469 80.695312 63.605469 80.648438 63.976562 C 80.597656 64.347656 80.515625 64.714844 80.394531 65.070312 C 80.273438 65.425781 80.121094 65.765625 79.933594 66.089844 C 79.746094 66.417969 79.53125 66.722656 79.285156 67.003906 C 79.035156 67.285156 78.765625 67.542969 78.464844 67.773438 C 78.167969 68 77.851562 68.199219 77.515625 68.367188 C 77.179688 68.53125 76.828125 68.664062 76.46875 68.761719 C 76.105469 68.859375 75.734375 68.921875 75.363281 68.949219 C 74.988281 68.972656 74.613281 68.960938 74.242188 68.914062 C 73.867188 68.863281 73.503906 68.78125 73.148438 68.660156 C 72.792969 68.539062 72.453125 68.386719 72.125 68.199219 C 71.800781 68.011719 71.496094 67.796875 71.214844 67.546875 C 70.929688 67.300781 70.675781 67.03125 70.445312 66.730469 C 70.214844 66.433594 70.019531 66.117188 69.851562 65.78125 C 69.683594 65.445312 69.550781 65.09375 69.453125 64.734375 C 69.355469 64.371094 69.296875 64 69.269531 63.625 C 69.246094 63.253906 69.257812 62.878906 69.304688 62.507812 C 69.351562 62.132812 69.4375 61.769531 69.554688 61.414062 C 69.675781 61.058594 69.832031 60.71875 70.015625 60.390625 C 70.203125 60.066406 70.421875 59.761719 70.667969 59.480469 C 70.914062 59.195312 71.1875 58.941406 71.484375 58.710938 C 71.78125 58.480469 72.101562 58.285156 72.4375 58.117188 C 72.773438 57.949219 73.121094 57.816406 73.484375 57.71875 C 73.847656 57.621094 74.214844 57.5625 74.589844 57.535156 C 74.964844 57.511719 75.339844 57.519531 75.710938 57.570312 Z M 75.710938 57.570312 " fill-opacity="1" fill-rule="nonzero"/></g></g></g></g><g clip-path="url(#2ea248d4a9)"><g clip-path="url(#ca686bdbff)"><g clip-path="url(#ec1d9c11b5)"><g clip-path="url(#b11c31ef7b)"><path fill="#5c913b" d="M 82.445312 47.570312 C 82.816406 47.617188 83.183594 47.703125 83.539062 47.824219 C 83.894531 47.941406 84.234375 48.097656 84.558594 48.285156 C 84.886719 48.46875 85.191406 48.6875 85.472656 48.933594 C 85.753906 49.179688 86.011719 49.453125 86.242188 49.75 C 86.46875 50.046875 86.667969 50.367188 86.835938 50.703125 C 87 51.039062 87.132812 51.386719 87.230469 51.75 C 87.328125 52.113281 87.390625 52.480469 87.417969 52.855469 C 87.441406 53.230469 87.429688 53.605469 87.382812 53.976562 C 87.332031 54.347656 87.25 54.714844 87.128906 55.070312 C 87.007812 55.425781 86.855469 55.765625 86.667969 56.089844 C 86.480469 56.417969 86.265625 56.722656 86.015625 57.003906 C 85.769531 57.285156 85.5 57.542969 85.199219 57.773438 C 84.902344 58 84.585938 58.199219 84.25 58.367188 C 83.914062 58.53125 83.5625 58.664062 83.203125 58.761719 C 82.839844 58.859375 82.46875 58.921875 82.09375 58.949219 C 81.722656 58.972656 81.347656 58.960938 80.976562 58.914062 C 80.601562 58.867188 80.238281 58.78125 79.882812 58.660156 C 79.527344 58.542969 79.1875 58.386719 78.859375 58.199219 C 78.535156 58.011719 78.230469 57.796875 77.949219 57.550781 C 77.664062 57.300781 77.410156 57.03125 77.179688 56.734375 C 76.949219 56.433594 76.753906 56.117188 76.585938 55.78125 C 76.417969 55.445312 76.285156 55.09375 76.1875 54.734375 C 76.089844 54.371094 76.027344 54.003906 76.003906 53.628906 C 75.980469 53.253906 75.988281 52.878906 76.039062 52.507812 C 76.085938 52.132812 76.171875 51.769531 76.289062 51.414062 C 76.410156 51.058594 76.5625 50.71875 76.75 50.390625 C 76.9375 50.066406 77.15625 49.761719 77.402344 49.480469 C 77.648438 49.195312 77.921875 48.941406 78.21875 48.710938 C 78.515625 48.480469 78.832031 48.285156 79.171875 48.117188 C 79.507812 47.949219 79.855469 47.820312 80.21875 47.71875 C 80.582031 47.621094 80.949219 47.5625 81.324219 47.535156 C 81.699219 47.511719 82.074219 47.523438 82.445312 47.570312 Z M 82.445312 47.570312 " fill-opacity="1" fill-rule="nonzero"/></g></g></g></g><g clip-path="url(#b0a3d0c512)"><g clip-path="url(#7300ea028a)"><g clip-path="url(#7b13f4983d)"><g clip-path="url(#4d55f120ba)"><path fill="#5c913b" d="M 90.121094 51.28125 C 90.492188 51.332031 90.855469 51.414062 91.210938 51.535156 C 91.566406 51.65625 91.910156 51.808594 92.234375 51.996094 C 92.558594 52.183594 92.863281 52.398438 93.144531 52.644531 C 93.429688 52.894531 93.683594 53.164062 93.914062 53.464844 C 94.144531 53.761719 94.339844 54.078125 94.507812 54.414062 C 94.675781 54.75 94.808594 55.101562 94.90625 55.460938 C 95.003906 55.824219 95.066406 56.195312 95.089844 56.566406 C 95.117188 56.941406 95.105469 57.316406 95.054688 57.6875 C 95.007812 58.0625 94.921875 58.425781 94.804688 58.78125 C 94.683594 59.136719 94.53125 59.476562 94.34375 59.804688 C 94.15625 60.128906 93.9375 60.433594 93.691406 60.714844 C 93.445312 61 93.171875 61.253906 92.875 61.484375 C 92.578125 61.714844 92.261719 61.910156 91.925781 62.078125 C 91.585938 62.246094 91.238281 62.378906 90.875 62.476562 C 90.511719 62.574219 90.144531 62.632812 89.769531 62.660156 C 89.394531 62.683594 89.019531 62.671875 88.648438 62.625 C 88.277344 62.578125 87.914062 62.492188 87.558594 62.371094 C 87.199219 62.253906 86.859375 62.097656 86.535156 61.914062 C 86.207031 61.726562 85.90625 61.507812 85.621094 61.261719 C 85.339844 61.015625 85.082031 60.742188 84.855469 60.445312 C 84.625 60.148438 84.425781 59.828125 84.261719 59.492188 C 84.09375 59.15625 83.960938 58.808594 83.863281 58.445312 C 83.765625 58.082031 83.703125 57.714844 83.679688 57.339844 C 83.652344 56.964844 83.664062 56.589844 83.710938 56.21875 C 83.761719 55.847656 83.84375 55.480469 83.964844 55.125 C 84.085938 54.769531 84.238281 54.429688 84.425781 54.105469 C 84.613281 53.777344 84.828125 53.472656 85.078125 53.191406 C 85.324219 52.910156 85.597656 52.652344 85.894531 52.421875 C 86.191406 52.195312 86.507812 51.996094 86.84375 51.828125 C 87.179688 51.664062 87.53125 51.53125 87.894531 51.433594 C 88.253906 51.335938 88.625 51.273438 89 51.246094 C 89.375 51.222656 89.746094 51.234375 90.121094 51.28125 Z M 90.121094 51.28125 " fill-opacity="1" fill-rule="nonzero"/></g></g></g></g><g clip-path="url(#c2dbfb4fe1)"><g clip-path="url(#757948f972)"><g clip-path="url(#919b78bd6b)"><g clip-path="url(#f09fd3a852)"><path fill="#5c913b" d="M 104.527344 44.996094 C 104.898438 45.042969 105.265625 45.125 105.621094 45.246094 C 105.976562 45.367188 106.316406 45.519531 106.640625 45.707031 C 106.96875 45.894531 107.273438 46.113281 107.554688 46.359375 C 107.835938 46.605469 108.09375 46.878906 108.324219 47.175781 C 108.550781 47.472656 108.75 47.789062 108.917969 48.125 C 109.082031 48.460938 109.214844 48.8125 109.3125 49.175781 C 109.410156 49.539062 109.472656 49.90625 109.5 50.28125 C 109.523438 50.65625 109.511719 51.027344 109.464844 51.402344 C 109.414062 51.773438 109.332031 52.136719 109.210938 52.492188 C 109.089844 52.847656 108.9375 53.191406 108.75 53.515625 C 108.5625 53.839844 108.347656 54.144531 108.101562 54.429688 C 107.851562 54.710938 107.582031 54.96875 107.28125 55.195312 C 106.984375 55.425781 106.667969 55.625 106.332031 55.789062 C 105.996094 55.957031 105.644531 56.089844 105.285156 56.1875 C 104.921875 56.285156 104.550781 56.347656 104.179688 56.371094 C 103.804688 56.398438 103.429688 56.386719 103.058594 56.335938 C 102.683594 56.289062 102.320312 56.207031 101.964844 56.085938 C 101.609375 55.964844 101.269531 55.8125 100.941406 55.625 C 100.617188 55.4375 100.3125 55.21875 100.03125 54.972656 C 99.746094 54.726562 99.492188 54.453125 99.261719 54.15625 C 99.03125 53.859375 98.835938 53.542969 98.667969 53.207031 C 98.5 52.871094 98.371094 52.519531 98.269531 52.15625 C 98.171875 51.792969 98.113281 51.425781 98.085938 51.050781 C 98.0625 50.675781 98.074219 50.304688 98.121094 49.929688 C 98.167969 49.558594 98.253906 49.195312 98.375 48.839844 C 98.492188 48.484375 98.648438 48.140625 98.832031 47.816406 C 99.019531 47.492188 99.238281 47.1875 99.484375 46.902344 C 99.730469 46.621094 100.003906 46.363281 100.300781 46.136719 C 100.597656 45.90625 100.917969 45.707031 101.253906 45.542969 C 101.589844 45.375 101.9375 45.242188 102.300781 45.144531 C 102.664062 45.046875 103.03125 44.984375 103.40625 44.960938 C 103.78125 44.933594 104.15625 44.945312 104.527344 44.996094 Z M 104.527344 44.996094 " fill-opacity="1" fill-rule="nonzero"/></g></g></g></g><g clip-path="url(#4915c89501)"><g clip-path="url(#6dd6336adb)"><g clip-path="url(#545262a81d)"><g clip-path="url(#3dd923d470)"><path fill="#5c913b" d="M 118.242188 44.054688 C 118.613281 44.101562 118.980469 44.1875 119.335938 44.308594 C 119.691406 44.425781 120.03125 44.582031 120.355469 44.769531 C 120.683594 44.957031 120.988281 45.171875 121.269531 45.417969 C 121.550781 45.667969 121.808594 45.9375 122.039062 46.234375 C 122.265625 46.535156 122.464844 46.851562 122.632812 47.1875 C 122.796875 47.523438 122.929688 47.871094 123.027344 48.234375 C 123.125 48.597656 123.1875 48.964844 123.214844 49.339844 C 123.238281 49.714844 123.226562 50.089844 123.179688 50.460938 C 123.132812 50.835938 123.046875 51.199219 122.925781 51.554688 C 122.808594 51.910156 122.652344 52.25 122.464844 52.578125 C 122.277344 52.902344 122.0625 53.207031 121.816406 53.488281 C 121.566406 53.773438 121.296875 54.027344 121 54.257812 C 120.699219 54.484375 120.382812 54.683594 120.046875 54.851562 C 119.710938 55.019531 119.363281 55.148438 119 55.246094 C 118.636719 55.347656 118.269531 55.40625 117.894531 55.433594 C 117.519531 55.457031 117.144531 55.445312 116.773438 55.398438 C 116.398438 55.351562 116.035156 55.265625 115.679688 55.144531 C 115.324219 55.027344 114.984375 54.871094 114.65625 54.683594 C 114.332031 54.5 114.027344 54.28125 113.746094 54.035156 C 113.460938 53.785156 113.207031 53.515625 112.976562 53.21875 C 112.75 52.917969 112.550781 52.601562 112.382812 52.265625 C 112.214844 51.929688 112.085938 51.582031 111.984375 51.21875 C 111.886719 50.855469 111.828125 50.488281 111.800781 50.113281 C 111.777344 49.738281 111.789062 49.363281 111.835938 48.992188 C 111.882812 48.617188 111.96875 48.253906 112.089844 47.898438 C 112.207031 47.542969 112.363281 47.203125 112.550781 46.878906 C 112.734375 46.550781 112.953125 46.246094 113.199219 45.964844 C 113.445312 45.679688 113.71875 45.425781 114.015625 45.195312 C 114.3125 44.96875 114.632812 44.769531 114.96875 44.601562 C 115.304688 44.4375 115.652344 44.304688 116.015625 44.207031 C 116.378906 44.109375 116.746094 44.046875 117.121094 44.019531 C 117.496094 43.996094 117.871094 44.007812 118.242188 44.054688 Z M 118.242188 44.054688 " fill-opacity="1" fill-rule="nonzero"/></g></g></g></g><g clip-path="url(#226e57567d)"><g clip-path="url(#443cdea5b3)"><g clip-path="url(#0d66d13892)"><g clip-path="url(#d411c9d6f6)"><path fill="#5c913b" d="M 88.734375 61.976562 C 89.105469 62.027344 89.46875 62.109375 89.824219 62.230469 C 90.179688 62.351562 90.523438 62.503906 90.847656 62.691406 C 91.171875 62.878906 91.476562 63.097656 91.761719 63.34375 C 92.042969 63.589844 92.300781 63.863281 92.527344 64.160156 C 92.757812 64.457031 92.957031 64.773438 93.121094 65.109375 C 93.289062 65.445312 93.421875 65.796875 93.519531 66.160156 C 93.617188 66.519531 93.679688 66.890625 93.703125 67.265625 C 93.730469 67.640625 93.71875 68.011719 93.667969 68.386719 C 93.621094 68.757812 93.535156 69.121094 93.417969 69.476562 C 93.296875 69.832031 93.144531 70.175781 92.957031 70.5 C 92.769531 70.824219 92.550781 71.128906 92.304688 71.414062 C 92.058594 71.695312 91.785156 71.953125 91.488281 72.179688 C 91.191406 72.410156 90.875 72.609375 90.539062 72.773438 C 90.199219 72.941406 89.851562 73.074219 89.488281 73.171875 C 89.125 73.269531 88.757812 73.332031 88.382812 73.355469 C 88.007812 73.382812 87.636719 73.371094 87.261719 73.320312 C 86.890625 73.273438 86.527344 73.1875 86.171875 73.070312 C 85.8125 72.949219 85.472656 72.796875 85.148438 72.609375 C 84.824219 72.421875 84.519531 72.203125 84.234375 71.957031 C 83.953125 71.710938 83.695312 71.4375 83.46875 71.140625 C 83.238281 70.84375 83.039062 70.527344 82.875 70.191406 C 82.707031 69.851562 82.574219 69.503906 82.476562 69.140625 C 82.378906 68.777344 82.316406 68.410156 82.292969 68.035156 C 82.265625 67.660156 82.277344 67.289062 82.324219 66.914062 C 82.375 66.542969 82.457031 66.179688 82.578125 65.824219 C 82.699219 65.46875 82.851562 65.125 83.039062 64.800781 C 83.226562 64.476562 83.441406 64.171875 83.691406 63.886719 C 83.9375 63.605469 84.210938 63.347656 84.507812 63.121094 C 84.804688 62.890625 85.121094 62.691406 85.457031 62.527344 C 85.792969 62.359375 86.144531 62.226562 86.507812 62.128906 C 86.867188 62.03125 87.238281 61.96875 87.613281 61.945312 C 87.988281 61.917969 88.359375 61.929688 88.734375 61.976562 Z M 88.734375 61.976562 " fill-opacity="1" fill-rule="nonzero"/></g></g></g></g><g clip-path="url(#0f1fe900b9)"><g clip-path="url(#6540385344)"><g clip-path="url(#524b4dc722)"><g clip-path="url(#bae565d71a)"><path fill="#5c913b" d="M 76.652344 71.285156 C 77.027344 71.332031 77.390625 71.417969 77.746094 71.539062 C 78.101562 71.65625 78.441406 71.8125 78.769531 72 C 79.09375 72.183594 79.398438 72.402344 79.679688 72.648438 C 79.964844 72.898438 80.21875 73.167969 80.449219 73.464844 C 80.679688 73.765625 80.875 74.082031 81.042969 74.417969 C 81.210938 74.753906 81.34375 75.101562 81.441406 75.464844 C 81.539062 75.828125 81.601562 76.195312 81.625 76.570312 C 81.652344 76.945312 81.640625 77.320312 81.589844 77.691406 C 81.542969 78.066406 81.457031 78.429688 81.339844 78.785156 C 81.21875 79.140625 81.066406 79.480469 80.878906 79.804688 C 80.691406 80.132812 80.472656 80.4375 80.226562 80.71875 C 79.980469 81.003906 79.707031 81.257812 79.410156 81.488281 C 79.113281 81.714844 78.796875 81.914062 78.457031 82.082031 C 78.121094 82.246094 77.773438 82.378906 77.410156 82.476562 C 77.046875 82.574219 76.679688 82.636719 76.304688 82.664062 C 75.929688 82.6875 75.554688 82.675781 75.183594 82.628906 C 74.8125 82.582031 74.449219 82.496094 74.089844 82.375 C 73.734375 82.257812 73.394531 82.101562 73.070312 81.914062 C 72.742188 81.726562 72.441406 81.511719 72.15625 81.265625 C 71.875 81.015625 71.617188 80.746094 71.386719 80.449219 C 71.160156 80.148438 70.960938 79.832031 70.792969 79.496094 C 70.628906 79.160156 70.496094 78.8125 70.398438 78.449219 C 70.300781 78.085938 70.238281 77.71875 70.210938 77.34375 C 70.1875 76.96875 70.199219 76.59375 70.246094 76.222656 C 70.296875 75.847656 70.378906 75.484375 70.5 75.128906 C 70.621094 74.773438 70.773438 74.433594 70.960938 74.105469 C 71.148438 73.78125 71.363281 73.476562 71.613281 73.195312 C 71.859375 72.910156 72.132812 72.65625 72.429688 72.425781 C 72.726562 72.199219 73.042969 72 73.378906 71.832031 C 73.714844 71.664062 74.066406 71.535156 74.425781 71.4375 C 74.789062 71.335938 75.160156 71.277344 75.535156 71.25 C 75.90625 71.226562 76.28125 71.238281 76.652344 71.285156 Z M 76.652344 71.285156 " fill-opacity="1" fill-rule="nonzero"/></g></g></g></g><g clip-path="url(#22af0699fc)"><g clip-path="url(#715b1d4246)"><g clip-path="url(#fa9ac8b68f)"><g clip-path="url(#97e5965c17)"><path fill="#5c913b" d="M 66.902344 83.613281 C 67.273438 83.664062 67.636719 83.746094 67.992188 83.867188 C 68.347656 83.988281 68.691406 84.140625 69.015625 84.328125 C 69.339844 84.515625 69.644531 84.730469 69.929688 84.980469 C 70.210938 85.226562 70.464844 85.496094 70.695312 85.796875 C 70.925781 86.09375 71.125 86.410156 71.289062 86.746094 C 71.457031 87.082031 71.589844 87.433594 71.6875 87.792969 C 71.785156 88.15625 71.847656 88.527344 71.871094 88.902344 C 71.898438 89.273438 71.886719 89.648438 71.835938 90.019531 C 71.789062 90.394531 71.703125 90.757812 71.585938 91.113281 C 71.464844 91.46875 71.3125 91.808594 71.125 92.136719 C 70.9375 92.460938 70.71875 92.765625 70.472656 93.046875 C 70.226562 93.332031 69.953125 93.585938 69.65625 93.816406 C 69.359375 94.046875 69.042969 94.242188 68.707031 94.410156 C 68.367188 94.578125 68.019531 94.710938 67.65625 94.808594 C 67.292969 94.90625 66.925781 94.96875 66.550781 94.992188 C 66.175781 95.015625 65.804688 95.007812 65.429688 94.957031 C 65.058594 94.910156 64.695312 94.824219 64.339844 94.707031 C 63.980469 94.585938 63.640625 94.433594 63.316406 94.246094 C 62.992188 94.058594 62.6875 93.839844 62.402344 93.59375 C 62.121094 93.347656 61.863281 93.074219 61.636719 92.777344 C 61.40625 92.480469 61.207031 92.164062 61.042969 91.824219 C 60.875 91.488281 60.742188 91.140625 60.644531 90.777344 C 60.546875 90.414062 60.484375 90.046875 60.460938 89.671875 C 60.433594 89.296875 60.445312 88.921875 60.492188 88.550781 C 60.542969 88.179688 60.625 87.8125 60.746094 87.457031 C 60.867188 87.101562 61.019531 86.761719 61.207031 86.4375 C 61.394531 86.109375 61.609375 85.804688 61.859375 85.523438 C 62.105469 85.242188 62.378906 84.984375 62.675781 84.753906 C 62.972656 84.527344 63.289062 84.328125 63.625 84.160156 C 63.960938 83.996094 64.3125 83.863281 64.675781 83.765625 C 65.035156 83.667969 65.40625 83.605469 65.78125 83.578125 C 66.15625 83.554688 66.527344 83.566406 66.902344 83.613281 Z M 66.902344 83.613281 " fill-opacity="1" fill-rule="nonzero"/></g></g></g></g><g clip-path="url(#b37feb8b7d)"><g clip-path="url(#a12a0c8c2c)"><g clip-path="url(#add76807bd)"><g clip-path="url(#65270a0a71)"><path fill="#5c913b" d="M 70.167969 100.347656 C 70.539062 100.394531 70.902344 100.480469 71.257812 100.601562 C 71.613281 100.71875 71.953125 100.875 72.28125 101.0625 C 72.605469 101.25 72.910156 101.464844 73.191406 101.710938 C 73.476562 101.960938 73.730469 102.230469 73.960938 102.527344 C 74.191406 102.828125 74.386719 103.144531 74.554688 103.480469 C 74.722656 103.816406 74.855469 104.164062 74.953125 104.527344 C 75.050781 104.890625 75.113281 105.257812 75.136719 105.632812 C 75.164062 106.007812 75.152344 106.382812 75.101562 106.753906 C 75.054688 107.128906 74.96875 107.492188 74.851562 107.847656 C 74.730469 108.203125 74.578125 108.542969 74.390625 108.871094 C 74.203125 109.195312 73.984375 109.5 73.738281 109.78125 C 73.492188 110.066406 73.21875 110.320312 72.921875 110.550781 C 72.625 110.777344 72.308594 110.976562 71.96875 111.144531 C 71.632812 111.3125 71.285156 111.441406 70.921875 111.542969 C 70.558594 111.640625 70.191406 111.699219 69.816406 111.726562 C 69.441406 111.75 69.066406 111.738281 68.695312 111.691406 C 68.324219 111.644531 67.960938 111.558594 67.601562 111.4375 C 67.246094 111.320312 66.90625 111.164062 66.582031 110.976562 C 66.253906 110.792969 65.953125 110.574219 65.667969 110.328125 C 65.386719 110.082031 65.128906 109.808594 64.902344 109.511719 C 64.671875 109.214844 64.472656 108.894531 64.308594 108.558594 C 64.140625 108.222656 64.007812 107.875 63.910156 107.511719 C 63.8125 107.148438 63.75 106.78125 63.726562 106.40625 C 63.699219 106.03125 63.710938 105.65625 63.757812 105.285156 C 63.808594 104.914062 63.890625 104.546875 64.011719 104.191406 C 64.132812 103.835938 64.285156 103.496094 64.472656 103.171875 C 64.660156 102.84375 64.875 102.539062 65.125 102.257812 C 65.371094 101.976562 65.644531 101.71875 65.941406 101.488281 C 66.238281 101.261719 66.554688 101.0625 66.890625 100.894531 C 67.226562 100.730469 67.578125 100.597656 67.941406 100.5 C 68.300781 100.402344 68.671875 100.339844 69.046875 100.3125 C 69.421875 100.289062 69.792969 100.300781 70.167969 100.347656 Z M 70.167969 100.347656 " fill-opacity="1" fill-rule="nonzero"/></g></g></g></g><g clip-path="url(#a70968aa55)"><g clip-path="url(#1ce432f65e)"><g clip-path="url(#1bf34325da)"><g clip-path="url(#dafd900181)"><path fill="#5c913b" d="M 65.515625 94.308594 C 65.886719 94.355469 66.25 94.441406 66.605469 94.558594 C 66.964844 94.679688 67.304688 94.832031 67.628906 95.019531 C 67.953125 95.207031 68.257812 95.425781 68.542969 95.671875 C 68.824219 95.917969 69.082031 96.191406 69.308594 96.488281 C 69.539062 96.785156 69.738281 97.101562 69.902344 97.4375 C 70.070312 97.777344 70.203125 98.125 70.300781 98.488281 C 70.398438 98.851562 70.460938 99.21875 70.484375 99.59375 C 70.511719 99.96875 70.5 100.339844 70.453125 100.714844 C 70.402344 101.085938 70.320312 101.449219 70.199219 101.804688 C 70.078125 102.164062 69.925781 102.503906 69.738281 102.828125 C 69.550781 103.152344 69.335938 103.457031 69.085938 103.742188 C 68.839844 104.023438 68.566406 104.28125 68.269531 104.507812 C 67.972656 104.738281 67.65625 104.9375 67.320312 105.101562 C 66.984375 105.269531 66.632812 105.402344 66.269531 105.5 C 65.910156 105.597656 65.539062 105.660156 65.164062 105.683594 C 64.789062 105.710938 64.417969 105.699219 64.042969 105.652344 C 63.671875 105.601562 63.308594 105.519531 62.953125 105.398438 C 62.597656 105.277344 62.253906 105.125 61.929688 104.9375 C 61.605469 104.75 61.300781 104.53125 61.015625 104.285156 C 60.734375 104.039062 60.480469 103.765625 60.25 103.46875 C 60.019531 103.171875 59.820312 102.855469 59.65625 102.519531 C 59.488281 102.183594 59.355469 101.832031 59.257812 101.46875 C 59.160156 101.109375 59.097656 100.738281 59.074219 100.363281 C 59.046875 99.988281 59.058594 99.617188 59.109375 99.242188 C 59.15625 98.871094 59.242188 98.507812 59.359375 98.152344 C 59.480469 97.796875 59.632812 97.453125 59.820312 97.128906 C 60.007812 96.804688 60.226562 96.5 60.472656 96.214844 C 60.71875 95.933594 60.992188 95.675781 61.289062 95.449219 C 61.585938 95.21875 61.902344 95.019531 62.238281 94.855469 C 62.578125 94.6875 62.925781 94.554688 63.289062 94.457031 C 63.652344 94.359375 64.019531 94.296875 64.394531 94.273438 C 64.769531 94.246094 65.140625 94.257812 65.515625 94.308594 Z M 65.515625 94.308594 " fill-opacity="1" fill-rule="nonzero"/></g></g></g></g><g clip-path="url(#6533bcc174)"><g clip-path="url(#76dbc7c1c6)"><g clip-path="url(#97a9cd07ba)"><g clip-path="url(#9382fc7cb8)"><path fill="#5c913b" d="M 74.128906 111.738281 C 74.5 111.785156 74.863281 111.871094 75.21875 111.988281 C 75.574219 112.109375 75.917969 112.261719 76.242188 112.449219 C 76.566406 112.636719 76.871094 112.855469 77.15625 113.101562 C 77.4375 113.347656 77.695312 113.621094 77.921875 113.917969 C 78.152344 114.214844 78.351562 114.53125 78.515625 114.871094 C 78.683594 115.207031 78.816406 115.554688 78.914062 115.917969 C 79.011719 116.28125 79.074219 116.648438 79.097656 117.023438 C 79.125 117.398438 79.113281 117.773438 79.0625 118.144531 C 79.015625 118.515625 78.933594 118.882812 78.8125 119.238281 C 78.691406 119.59375 78.539062 119.933594 78.351562 120.257812 C 78.164062 120.585938 77.945312 120.890625 77.699219 121.171875 C 77.453125 121.453125 77.179688 121.710938 76.882812 121.941406 C 76.585938 122.167969 76.269531 122.367188 75.933594 122.535156 C 75.597656 122.699219 75.246094 122.832031 74.882812 122.929688 C 74.519531 123.027344 74.152344 123.089844 73.777344 123.117188 C 73.402344 123.140625 73.03125 123.128906 72.65625 123.082031 C 72.285156 123.03125 71.921875 122.949219 71.566406 122.828125 C 71.210938 122.707031 70.867188 122.554688 70.542969 122.367188 C 70.21875 122.179688 69.914062 121.964844 69.628906 121.714844 C 69.347656 121.46875 69.089844 121.199219 68.863281 120.898438 C 68.632812 120.601562 68.433594 120.285156 68.269531 119.949219 C 68.101562 119.613281 67.96875 119.261719 67.871094 118.902344 C 67.773438 118.539062 67.710938 118.167969 67.6875 117.792969 C 67.660156 117.421875 67.671875 117.046875 67.722656 116.675781 C 67.769531 116.300781 67.851562 115.9375 67.972656 115.582031 C 68.09375 115.226562 68.246094 114.886719 68.433594 114.558594 C 68.621094 114.234375 68.839844 113.929688 69.085938 113.648438 C 69.332031 113.363281 69.605469 113.109375 69.902344 112.878906 C 70.199219 112.648438 70.515625 112.453125 70.851562 112.285156 C 71.1875 112.117188 71.539062 111.984375 71.902344 111.886719 C 72.265625 111.789062 72.632812 111.730469 73.007812 111.703125 C 73.382812 111.679688 73.753906 111.6875 74.128906 111.738281 Z M 74.128906 111.738281 " fill-opacity="1" fill-rule="nonzero"/></g></g></g></g><g clip-path="url(#1d409e04de)"><g clip-path="url(#30b395473d)"><g clip-path="url(#a5a079eb09)"><g clip-path="url(#f4e2143a10)"><path fill="#5c913b" d="M 82.941406 85.695312 C 83.3125 85.742188 83.679688 85.824219 84.035156 85.945312 C 84.390625 86.066406 84.730469 86.21875 85.054688 86.40625 C 85.382812 86.59375 85.6875 86.8125 85.96875 87.058594 C 86.25 87.304688 86.507812 87.578125 86.738281 87.875 C 86.964844 88.171875 87.164062 88.488281 87.332031 88.824219 C 87.496094 89.160156 87.628906 89.511719 87.726562 89.875 C 87.824219 90.238281 87.886719 90.605469 87.914062 90.980469 C 87.9375 91.355469 87.925781 91.726562 87.878906 92.101562 C 87.828125 92.472656 87.746094 92.835938 87.625 93.191406 C 87.507812 93.546875 87.351562 93.890625 87.164062 94.214844 C 86.976562 94.539062 86.761719 94.84375 86.515625 95.128906 C 86.265625 95.410156 85.996094 95.667969 85.695312 95.894531 C 85.398438 96.125 85.082031 96.324219 84.746094 96.488281 C 84.410156 96.65625 84.058594 96.789062 83.699219 96.886719 C 83.335938 96.984375 82.964844 97.046875 82.59375 97.070312 C 82.21875 97.097656 81.84375 97.085938 81.472656 97.035156 C 81.097656 96.988281 80.734375 96.90625 80.378906 96.785156 C 80.023438 96.664062 79.683594 96.511719 79.355469 96.324219 C 79.03125 96.136719 78.726562 95.917969 78.445312 95.671875 C 78.160156 95.425781 77.90625 95.152344 77.675781 94.855469 C 77.445312 94.558594 77.25 94.242188 77.082031 93.90625 C 76.914062 93.570312 76.785156 93.21875 76.683594 92.855469 C 76.585938 92.492188 76.527344 92.125 76.5 91.75 C 76.476562 91.375 76.488281 91.003906 76.535156 90.628906 C 76.582031 90.257812 76.667969 89.894531 76.789062 89.539062 C 76.90625 89.183594 77.0625 88.839844 77.246094 88.515625 C 77.433594 88.191406 77.652344 87.886719 77.898438 87.601562 C 78.144531 87.320312 78.417969 87.0625 78.714844 86.835938 C 79.011719 86.605469 79.332031 86.40625 79.667969 86.242188 C 80.003906 86.074219 80.351562 85.941406 80.714844 85.84375 C 81.078125 85.746094 81.445312 85.683594 81.820312 85.660156 C 82.195312 85.632812 82.570312 85.644531 82.941406 85.695312 Z M 82.941406 85.695312 " fill-opacity="1" fill-rule="nonzero"/></g></g></g></g><g clip-path="url(#c532d9455c)"><g clip-path="url(#8fb47fd47a)"><g clip-path="url(#725a8b97c1)"><g clip-path="url(#f03b6d8f86)"><path fill="#5c913b" d="M 104.082031 69.402344 C 104.453125 69.449219 104.816406 69.535156 105.171875 69.65625 C 105.527344 69.773438 105.871094 69.929688 106.195312 70.117188 C 106.519531 70.300781 106.824219 70.519531 107.109375 70.765625 C 107.390625 71.011719 107.648438 71.285156 107.875 71.582031 C 108.105469 71.878906 108.304688 72.199219 108.46875 72.535156 C 108.636719 72.871094 108.769531 73.21875 108.867188 73.582031 C 108.964844 73.945312 109.027344 74.3125 109.050781 74.6875 C 109.078125 75.0625 109.066406 75.4375 109.019531 75.808594 C 108.96875 76.179688 108.886719 76.546875 108.765625 76.902344 C 108.644531 77.257812 108.492188 77.597656 108.304688 77.921875 C 108.117188 78.25 107.898438 78.554688 107.652344 78.835938 C 107.40625 79.117188 107.132812 79.375 106.835938 79.605469 C 106.539062 79.832031 106.222656 80.03125 105.886719 80.199219 C 105.550781 80.363281 105.199219 80.496094 104.835938 80.59375 C 104.476562 80.691406 104.105469 80.753906 103.730469 80.78125 C 103.355469 80.804688 102.984375 80.792969 102.609375 80.746094 C 102.238281 80.699219 101.875 80.613281 101.519531 80.492188 C 101.164062 80.375 100.820312 80.21875 100.496094 80.03125 C 100.171875 79.84375 99.867188 79.628906 99.582031 79.382812 C 99.300781 79.132812 99.042969 78.863281 98.816406 78.566406 C 98.585938 78.265625 98.386719 77.949219 98.222656 77.613281 C 98.054688 77.277344 97.921875 76.925781 97.824219 76.566406 C 97.726562 76.203125 97.664062 75.835938 97.640625 75.460938 C 97.613281 75.085938 97.625 74.710938 97.675781 74.339844 C 97.722656 73.964844 97.808594 73.601562 97.925781 73.246094 C 98.046875 72.890625 98.199219 72.550781 98.386719 72.222656 C 98.574219 71.898438 98.792969 71.59375 99.039062 71.3125 C 99.285156 71.027344 99.558594 70.773438 99.855469 70.542969 C 100.152344 70.3125 100.46875 70.117188 100.804688 69.949219 C 101.144531 69.78125 101.492188 69.652344 101.855469 69.550781 C 102.21875 69.453125 102.585938 69.394531 102.960938 69.367188 C 103.335938 69.34375 103.707031 69.355469 104.082031 69.402344 Z M 104.082031 69.402344 " fill-opacity="1" fill-rule="nonzero"/></g></g></g></g><g clip-path="url(#5728568a82)"><g clip-path="url(#6b10fb660b)"><g clip-path="url(#7d70b4b39d)"><g clip-path="url(#948b9f628a)"><path fill="#5c913b" d="M 120.820312 66.136719 C 121.191406 66.1875 121.554688 66.269531 121.910156 66.390625 C 122.265625 66.511719 122.605469 66.664062 122.933594 66.851562 C 123.257812 67.039062 123.5625 67.253906 123.84375 67.5 C 124.128906 67.75 124.382812 68.019531 124.613281 68.320312 C 124.84375 68.617188 125.039062 68.933594 125.207031 69.269531 C 125.375 69.605469 125.507812 69.957031 125.605469 70.316406 C 125.703125 70.679688 125.765625 71.050781 125.789062 71.421875 C 125.816406 71.796875 125.804688 72.171875 125.753906 72.542969 C 125.707031 72.917969 125.621094 73.28125 125.503906 73.636719 C 125.382812 73.992188 125.230469 74.332031 125.042969 74.660156 C 124.855469 74.984375 124.636719 75.289062 124.390625 75.570312 C 124.144531 75.855469 123.871094 76.109375 123.574219 76.339844 C 123.277344 76.570312 122.960938 76.765625 122.625 76.933594 C 122.285156 77.101562 121.9375 77.234375 121.574219 77.332031 C 121.210938 77.429688 120.84375 77.488281 120.46875 77.515625 C 120.09375 77.539062 119.71875 77.527344 119.347656 77.480469 C 118.976562 77.433594 118.613281 77.347656 118.253906 77.226562 C 117.898438 77.109375 117.558594 76.953125 117.234375 76.769531 C 116.90625 76.582031 116.605469 76.363281 116.320312 76.117188 C 116.039062 75.871094 115.78125 75.597656 115.554688 75.300781 C 115.324219 75.003906 115.125 74.683594 114.960938 74.347656 C 114.792969 74.011719 114.660156 73.664062 114.5625 73.300781 C 114.464844 72.9375 114.402344 72.570312 114.378906 72.195312 C 114.351562 71.820312 114.363281 71.445312 114.410156 71.074219 C 114.460938 70.703125 114.542969 70.335938 114.664062 69.980469 C 114.785156 69.625 114.9375 69.285156 115.125 68.960938 C 115.3125 68.632812 115.527344 68.328125 115.777344 68.046875 C 116.023438 67.765625 116.296875 67.507812 116.59375 67.277344 C 116.890625 67.050781 117.207031 66.851562 117.542969 66.683594 C 117.878906 66.519531 118.230469 66.386719 118.59375 66.289062 C 118.953125 66.191406 119.324219 66.128906 119.699219 66.101562 C 120.074219 66.078125 120.445312 66.089844 120.820312 66.136719 Z M 120.820312 66.136719 " fill-opacity="1" fill-rule="nonzero"/></g></g></g></g><g clip-path="url(#9985412f5c)"><g clip-path="url(#4a65180350)"><g clip-path="url(#5006e68ad3)"><g clip-path="url(#4c85595fd8)"><path fill="#dd2e44" d="M 82.128906 194.628906 C 91.117188 192.664062 91.773438 195.667969 100.761719 193.707031 C 109.75 191.742188 109.09375 188.742188 118.082031 186.78125 C 130.070312 184.164062 146.359375 186.898438 150.949219 207.914062 C 158.15625 240.941406 146.078125 271.886719 134.09375 274.503906 C 125.105469 276.464844 124.449219 273.460938 118.457031 274.769531 C 112.464844 276.078125 113.117188 279.082031 104.128906 281.042969 C 92.144531 283.660156 68.269531 260.5625 61.0625 227.535156 C 56.472656 206.515625 70.144531 197.242188 82.128906 194.628906 Z M 82.128906 194.628906 " fill-opacity="1" fill-rule="nonzero"/></g></g></g></g><g clip-path="url(#f695bc79f0)"><g clip-path="url(#bbf55cbd29)"><g clip-path="url(#f2e3fed97c)"><g clip-path="url(#125d03ab35)"><path fill="#77b255" d="M 97.109375 191.359375 C 97.109375 191.359375 85.5 181.308594 70.519531 184.578125 C 58.535156 187.195312 53.851562 194.507812 53.851562 194.507812 C 53.851562 194.507812 67.804688 200.898438 76.792969 198.9375 C 85.78125 196.976562 97.109375 191.359375 97.109375 191.359375 Z M 97.109375 191.359375 " fill-opacity="1" fill-rule="nonzero"/></g></g></g></g><g clip-path="url(#8cc7e06d62)"><g clip-path="url(#81499f21fa)"><g clip-path="url(#fe49e6a3f8)"><g clip-path="url(#e200c67f07)"><path fill="#662113" d="M 102.074219 199.710938 C 103.726562 199.351562 104.773438 197.710938 104.414062 196.054688 C 102.160156 185.722656 96.484375 176.976562 88.839844 172.066406 C 87.414062 171.148438 85.519531 171.5625 84.605469 172.992188 C 83.6875 174.421875 84.105469 176.320312 85.53125 177.238281 C 91.8125 181.273438 96.511719 188.609375 98.421875 197.363281 C 98.78125 199.019531 100.417969 200.070312 102.074219 199.710938 Z M 102.074219 199.710938 " fill-opacity="1" fill-rule="nonzero"/></g></g></g></g><path fill="#3e721d" d="M 188.824219 178.214844 C 180.589844 199.058594 193.765625 249.085938 224.925781 269.640625 C 256.074219 290.191406 295.050781 281.964844 304.339844 247.410156 C 310.078125 226.070312 294.746094 210.421875 263.59375 189.875 C 232.4375 169.324219 196.9375 157.664062 188.824219 178.214844 Z M 188.824219 178.214844 " fill-opacity="1" fill-rule="nonzero"/><path fill="#3e721d" d="M 238.316406 247.648438 C 260.746094 263.332031 290.878906 265.417969 301.820312 249.65625 C 312.761719 233.902344 300.382812 206.261719 277.945312 190.578125 C 255.523438 174.898438 202.472656 156.785156 191.527344 172.535156 C 180.585938 188.300781 215.890625 231.964844 238.316406 247.648438 " fill-opacity="1" fill-rule="nonzero"/><path fill="#a6d388" d="M 241.035156 249.539062 C 260.828125 263.382812 287.390625 260.222656 297.042969 246.316406 C 306.695312 232.410156 295.410156 207.78125 275.617188 193.941406 C 255.828125 180.105469 205.960938 161.980469 196.300781 175.886719 C 186.648438 189.789062 212.890625 231.6875 241.035156 249.539062 " fill-opacity="1" fill-rule="nonzero"/><path fill="#c6e5b3" d="M 246.691406 240.390625 C 262.1875 251.222656 280.867188 251.179688 288.421875 240.296875 C 295.984375 229.414062 289.554688 211.816406 274.0625 200.984375 C 258.566406 190.148438 219.617188 176.011719 212.050781 186.894531 C 204.492188 197.777344 231.191406 229.558594 246.691406 240.390625 Z M 246.691406 240.390625 " fill-opacity="1" fill-rule="nonzero"/><path fill="#662113" d="M 270.785156 200.929688 C 258.820312 192.882812 245.402344 195.769531 237.097656 204.363281 C 232.167969 209.457031 240.121094 222.929688 252.085938 230.976562 C 264.042969 239.011719 278.796875 237.058594 280.414062 233.496094 C 285.363281 222.605469 282.742188 208.972656 270.785156 200.929688 Z M 270.785156 200.929688 " fill-opacity="1" fill-rule="nonzero"/><path fill="#7c3225" d="M 264.222656 203.0625 C 259.03125 199.566406 252.484375 200.234375 249.59375 204.546875 C 246.71875 208.863281 248.585938 215.199219 253.78125 218.691406 C 258.972656 222.175781 265.519531 221.511719 268.402344 217.199219 C 271.289062 212.878906 269.414062 206.550781 264.222656 203.0625 Z M 264.222656 203.0625 " fill-opacity="1" fill-rule="nonzero"/><g fill="#000000" fill-opacity="1"><g transform="translate(96.976901, 350.845916)"><g><path d="M 13.527344 -0.28125 L 13.574219 -0.046875 C 14.515625 -0.140625 15.363281 -0.378906 16.117188 -0.753906 C 16.777344 -1.085938 17.34375 -1.507812 17.863281 -2.027344 C 18.332031 -2.496094 18.710938 -3.015625 18.945312 -3.582031 C 19.132812 -4.148438 19.324219 -4.664062 19.511719 -5.136719 C 19.605469 -5.609375 19.699219 -6.03125 19.792969 -6.410156 C 19.792969 -6.785156 19.839844 -7.023438 19.9375 -7.117188 C 19.652344 -7.589844 19.277344 -7.871094 18.851562 -7.964844 C 18.378906 -7.964844 17.957031 -7.964844 17.578125 -7.964844 C 17.15625 -7.917969 16.824219 -7.730469 16.589844 -7.445312 C 16.308594 -7.070312 16.070312 -6.738281 15.929688 -6.457031 C 15.695312 -5.984375 15.503906 -5.609375 15.410156 -5.230469 C 15.222656 -4.761719 15.035156 -4.335938 14.847656 -4.007812 C 14.5625 -3.582031 14.28125 -3.253906 13.949219 -3.015625 C 13.527344 -2.6875 13.054688 -2.496094 12.535156 -2.496094 C 10.839844 -3.109375 9.519531 -4.101562 8.484375 -5.46875 C 7.445312 -6.785156 6.644531 -8.34375 6.078125 -10.132812 C 5.515625 -11.828125 5.183594 -13.667969 5.089844 -15.648438 C 4.996094 -16.589844 4.996094 -17.578125 5.042969 -18.523438 C 5.042969 -19.464844 5.136719 -20.40625 5.277344 -21.351562 C 5.46875 -23.234375 5.84375 -24.980469 6.410156 -26.582031 C 6.929688 -28.183594 7.539062 -29.457031 8.292969 -30.445312 C 9.050781 -31.4375 9.851562 -32.046875 10.746094 -32.285156 C 11.640625 -32.519531 12.535156 -32.238281 13.480469 -31.386719 C 13.667969 -31.199219 13.808594 -31.058594 13.949219 -30.917969 C 14.09375 -30.730469 14.234375 -30.585938 14.375 -30.445312 C 14.5625 -30.164062 14.796875 -29.925781 15.082031 -29.738281 C 15.269531 -29.550781 15.503906 -29.410156 15.789062 -29.316406 C 16.023438 -29.21875 16.355469 -29.171875 16.777344 -29.21875 C 17.4375 -29.21875 17.769531 -29.503906 17.769531 -30.070312 C 17.769531 -30.539062 17.53125 -31.105469 17.109375 -31.765625 C 16.636719 -32.332031 16.023438 -32.898438 15.269531 -33.460938 C 14.421875 -33.933594 13.574219 -34.214844 12.726562 -34.308594 C 12.394531 -34.308594 12.066406 -34.359375 11.734375 -34.359375 L 10.652344 -34.359375 C 9.851562 -34.359375 9.050781 -34.261719 8.292969 -34.074219 C 7.445312 -33.886719 6.691406 -33.554688 5.9375 -33.085938 C 5.183594 -32.613281 4.476562 -31.90625 3.863281 -31.011719 C 2.640625 -29.21875 1.695312 -27.195312 1.035156 -24.933594 C 0.328125 -22.574219 -0.046875 -20.265625 -0.046875 -18.003906 C -0.09375 -15.648438 0.140625 -13.335938 0.660156 -11.167969 C 1.179688 -8.90625 1.980469 -6.976562 3.109375 -5.324219 C 4.242188 -3.628906 5.65625 -2.308594 7.398438 -1.367188 C 9.144531 -0.425781 11.167969 -0.046875 13.527344 -0.28125 Z M 13.527344 -0.28125 "/></g></g></g><g fill="#000000" fill-opacity="1"><g transform="translate(128.600974, 350.845916)"><g><path d="M 5.84375 -3.109375 L 5.75 -3.300781 C 7.070312 -3.015625 8.246094 -3.109375 9.191406 -3.488281 C 10.179688 -3.863281 11.027344 -4.429688 11.734375 -5.230469 C 12.394531 -5.984375 12.960938 -6.976562 13.433594 -8.199219 C 13.855469 -9.378906 14.1875 -10.605469 14.421875 -11.925781 C 14.609375 -13.242188 14.75 -14.609375 14.847656 -16.023438 C 14.847656 -17.4375 14.847656 -18.804688 14.847656 -20.171875 C 14.796875 -20.597656 14.75 -21.066406 14.703125 -21.539062 C 14.65625 -22.007812 14.609375 -22.480469 14.515625 -23 C 14.328125 -23.941406 14.042969 -24.835938 13.667969 -25.6875 C 13.289062 -26.441406 12.820312 -27.101562 12.160156 -27.710938 C 11.546875 -28.230469 10.792969 -28.511719 9.898438 -28.609375 C 9.472656 -28.609375 9.097656 -28.703125 8.8125 -28.890625 C 8.4375 -29.078125 8.058594 -29.21875 7.683594 -29.316406 C 7.257812 -29.410156 6.785156 -29.410156 6.222656 -29.316406 C 5.65625 -29.21875 4.996094 -28.9375 4.195312 -28.464844 C 2.921875 -27.617188 2.074219 -26.488281 1.695312 -25.074219 C 0.894531 -22.386719 0.378906 -19.839844 0.1875 -17.4375 C -0.09375 -14.894531 -0.046875 -12.628906 0.328125 -10.652344 C 0.613281 -8.578125 1.226562 -6.882812 2.167969 -5.5625 C 3.015625 -4.195312 4.242188 -3.394531 5.84375 -3.109375 Z M 7.210938 -5.042969 L 7.351562 -5.230469 C 6.410156 -6.03125 5.75 -7.117188 5.277344 -8.484375 C 4.761719 -9.898438 4.429688 -11.359375 4.335938 -12.867188 C 4.242188 -13.621094 4.195312 -14.421875 4.195312 -15.175781 C 4.148438 -15.929688 4.148438 -16.730469 4.242188 -17.578125 C 4.289062 -18.378906 4.335938 -19.132812 4.429688 -19.890625 C 4.476562 -20.597656 4.570312 -21.300781 4.714844 -21.960938 C 4.902344 -23.1875 5.183594 -24.320312 5.515625 -25.308594 C 5.796875 -26.15625 6.03125 -26.675781 6.316406 -26.863281 C 7.445312 -26.816406 8.34375 -26.25 9 -25.214844 C 9.660156 -24.175781 10.132812 -22.859375 10.414062 -21.300781 C 10.699219 -19.792969 10.792969 -18.097656 10.746094 -16.210938 C 10.699219 -15.269531 10.652344 -14.421875 10.558594 -13.574219 C 10.460938 -12.726562 10.367188 -11.875 10.226562 -11.074219 C 9.945312 -9.519531 9.519531 -8.152344 9 -6.976562 C 8.4375 -5.84375 7.871094 -5.183594 7.210938 -5.042969 Z M 7.210938 -5.042969 "/></g></g></g><g fill="#000000" fill-opacity="1"><g transform="translate(155.276436, 350.845916)"><g><path d="M 16.542969 -2.734375 L 16.871094 -3.015625 C 17.15625 -3.0625 17.390625 -3.109375 17.53125 -3.15625 C 17.671875 -3.15625 17.816406 -3.347656 18.003906 -3.722656 C 18.097656 -4.007812 18.191406 -4.523438 18.285156 -5.277344 C 18.285156 -5.9375 18.285156 -6.976562 18.285156 -8.292969 C 18.238281 -9.566406 18.144531 -11.21875 18.003906 -13.289062 C 17.910156 -14.28125 17.863281 -15.410156 17.769531 -16.683594 C 17.671875 -17.910156 17.53125 -19.324219 17.4375 -20.832031 C 17.34375 -21.398438 17.296875 -21.914062 17.296875 -22.386719 C 17.25 -22.859375 17.203125 -23.234375 17.203125 -23.613281 C 17.15625 -23.941406 17.109375 -24.226562 17.109375 -24.507812 C 17.109375 -24.789062 17.0625 -25.027344 17.015625 -25.308594 C 16.917969 -25.542969 16.871094 -25.78125 16.824219 -26.015625 C 16.730469 -26.203125 16.683594 -26.441406 16.636719 -26.722656 C 16.449219 -27.195312 16.210938 -27.804688 15.929688 -28.5625 C 15.742188 -28.9375 15.503906 -29.21875 15.222656 -29.410156 C 14.847656 -29.597656 14.46875 -29.691406 14.09375 -29.691406 C 13.667969 -29.691406 13.242188 -29.550781 12.867188 -29.316406 C 12.441406 -29.03125 12.113281 -28.65625 11.925781 -28.183594 C 11.734375 -27.902344 11.640625 -27.617188 11.546875 -27.382812 L 11.121094 -26.109375 C 10.933594 -25.542969 10.652344 -24.789062 10.273438 -23.847656 C 10.085938 -23.375 9.851562 -22.8125 9.613281 -22.199219 C 9.378906 -21.539062 9.097656 -20.832031 8.8125 -20.03125 L 8.484375 -20.078125 L 8.199219 -21.113281 C 7.964844 -21.960938 7.683594 -22.8125 7.351562 -23.707031 C 6.976562 -24.554688 6.597656 -25.402344 6.175781 -26.15625 C 5.65625 -27.003906 5.136719 -27.617188 4.570312 -28.042969 C 4.007812 -28.464844 3.441406 -28.703125 2.96875 -28.75 C 2.402344 -28.796875 1.980469 -28.65625 1.601562 -28.324219 C 1.179688 -27.949219 0.894531 -27.476562 0.800781 -26.910156 C 0.613281 -25.96875 0.519531 -24.882812 0.519531 -23.660156 C 0.519531 -23 0.472656 -22.339844 0.425781 -21.679688 C 0.378906 -21.019531 0.328125 -20.3125 0.28125 -19.605469 C 0.140625 -18.285156 0.046875 -16.777344 0 -15.128906 C -0.046875 -14.28125 -0.046875 -13.480469 -0.046875 -12.679688 L -0.046875 -8.246094 C -0.046875 -7.589844 -0.046875 -6.976562 0 -6.410156 C 0 -5.277344 0.046875 -4.570312 0.140625 -4.289062 C 0.234375 -3.816406 0.425781 -3.488281 0.707031 -3.300781 C 0.988281 -3.015625 1.648438 -2.96875 2.6875 -3.0625 C 3.0625 -3.0625 3.394531 -3.203125 3.582031 -3.394531 C 3.769531 -3.582031 3.863281 -3.863281 3.863281 -4.289062 L 3.863281 -5.042969 C 3.863281 -5.324219 3.816406 -5.65625 3.816406 -6.03125 C 3.769531 -6.410156 3.722656 -6.832031 3.722656 -7.304688 C 3.722656 -7.777344 3.722656 -8.34375 3.722656 -9 L 3.722656 -16.355469 C 3.722656 -16.824219 3.722656 -17.203125 3.769531 -17.484375 C 3.769531 -18.003906 3.816406 -18.285156 3.910156 -18.378906 C 3.910156 -18.378906 4.007812 -18.429688 4.195312 -18.523438 C 4.570312 -17.4375 4.855469 -16.589844 5.042969 -15.929688 C 5.230469 -15.175781 5.421875 -14.609375 5.609375 -14.234375 C 5.796875 -13.761719 6.03125 -13.433594 6.222656 -13.289062 C 6.457031 -13.054688 6.832031 -12.914062 7.351562 -12.914062 C 7.917969 -12.820312 8.4375 -12.914062 8.90625 -13.195312 C 9.332031 -13.433594 9.707031 -13.996094 9.992188 -14.894531 C 10.558594 -16.683594 10.980469 -18.097656 11.265625 -19.132812 C 11.40625 -19.605469 11.546875 -20.03125 11.640625 -20.40625 C 11.734375 -20.738281 11.828125 -21.019531 11.925781 -21.253906 C 12.019531 -21.632812 12.160156 -21.867188 12.300781 -22.007812 C 12.347656 -22.058594 12.488281 -22.105469 12.679688 -22.199219 C 12.679688 -21.867188 12.726562 -21.585938 12.726562 -21.351562 L 12.726562 -18.523438 C 12.726562 -18.332031 12.726562 -18.144531 12.773438 -17.910156 C 12.773438 -17.203125 12.820312 -16.210938 12.914062 -14.988281 C 12.914062 -14.328125 12.960938 -13.714844 12.960938 -13.101562 C 12.960938 -12.441406 13.007812 -11.828125 13.101562 -11.167969 C 13.195312 -9.851562 13.289062 -8.578125 13.386719 -7.351562 C 13.433594 -6.691406 13.480469 -6.125 13.527344 -5.65625 C 13.527344 -5.183594 13.574219 -4.761719 13.621094 -4.429688 C 13.621094 -3.628906 13.949219 -3.109375 14.5625 -2.875 C 15.128906 -2.59375 15.789062 -2.546875 16.542969 -2.734375 Z M 16.542969 -2.734375 "/></g></g></g><g fill="#000000" fill-opacity="1"><g transform="translate(185.345242, 350.845916)"><g><path d="M 4.195312 -3.15625 L 4.289062 -3.109375 C 4.664062 -3.109375 4.996094 -3.253906 5.183594 -3.441406 C 5.371094 -3.628906 5.515625 -3.910156 5.609375 -4.289062 C 5.703125 -4.664062 5.75 -5.136719 5.75 -5.75 L 5.75 -8.011719 L 5.703125 -8.011719 L 5.277344 -15.789062 L 4.855469 -23.566406 C 4.808594 -23.941406 4.761719 -24.367188 4.761719 -24.742188 C 4.714844 -25.121094 4.664062 -25.542969 4.617188 -25.921875 L 4.429688 -27.050781 C 4.335938 -27.429688 4.289062 -27.804688 4.242188 -28.230469 C 4.195312 -28.371094 4.101562 -28.609375 4.007812 -28.9375 C 3.910156 -29.125 3.769531 -29.316406 3.582031 -29.503906 C 3.394531 -29.597656 3.109375 -29.691406 2.734375 -29.785156 C 2.402344 -29.785156 1.933594 -29.785156 1.320312 -29.691406 C 1.035156 -29.597656 0.800781 -29.503906 0.613281 -29.410156 C 0.425781 -29.269531 0.28125 -29.03125 0.1875 -28.75 C 0.09375 -28.511719 0.046875 -28.089844 0 -27.523438 C -0.09375 -26.957031 -0.09375 -26.296875 0 -25.542969 C 0 -24.742188 0.046875 -23.707031 0.140625 -22.480469 C 0.140625 -21.820312 0.1875 -21.207031 0.1875 -20.546875 C 0.1875 -19.890625 0.234375 -19.230469 0.28125 -18.570312 C 0.28125 -17.863281 0.328125 -17.15625 0.328125 -16.496094 C 0.328125 -15.789062 0.378906 -15.082031 0.425781 -14.375 C 0.425781 -12.960938 0.472656 -11.640625 0.566406 -10.414062 C 0.566406 -9.191406 0.613281 -8.105469 0.707031 -7.164062 C 0.707031 -6.222656 0.753906 -5.5625 0.847656 -5.183594 C 0.894531 -4.714844 0.941406 -4.382812 1.035156 -4.195312 C 1.132812 -3.910156 1.273438 -3.675781 1.554688 -3.488281 C 1.789062 -3.253906 2.121094 -3.109375 2.546875 -3.109375 C 3.015625 -3.015625 3.582031 -3.0625 4.195312 -3.15625 Z M 4.195312 -3.15625 "/></g></g></g><g fill="#000000" fill-opacity="1"><g transform="translate(202.830394, 350.845916)"><g><path d="M 5.371094 -2.921875 L 5.421875 -3.0625 C 6.644531 -2.96875 7.777344 -3.300781 8.8125 -4.054688 C 9.804688 -4.761719 10.652344 -5.609375 11.359375 -6.644531 C 12.113281 -7.730469 12.628906 -8.8125 13.007812 -9.945312 C 13.386719 -11.167969 13.621094 -12.207031 13.667969 -13.054688 C 13.667969 -13.242188 13.714844 -13.480469 13.714844 -13.761719 L 13.714844 -15.742188 C 13.714844 -16.070312 13.667969 -16.402344 13.667969 -16.777344 C 13.621094 -17.109375 13.574219 -17.4375 13.574219 -17.816406 C 13.574219 -18.144531 13.527344 -18.476562 13.527344 -18.851562 C 13.433594 -19.511719 13.386719 -20.078125 13.386719 -20.5 C 13.195312 -22.480469 12.726562 -24.082031 12.066406 -25.308594 C 11.3125 -26.535156 10.414062 -27.523438 9.378906 -28.277344 C 8.246094 -28.984375 7.023438 -29.410156 5.65625 -29.550781 C 4.148438 -29.691406 2.6875 -29.597656 1.179688 -29.21875 C 0.847656 -29.125 0.566406 -28.984375 0.378906 -28.84375 C 0.1875 -28.65625 0.046875 -28.417969 -0.046875 -28.136719 C -0.140625 -27.757812 -0.1875 -27.335938 -0.1875 -26.863281 L -0.1875 -25.96875 C -0.1875 -25.589844 -0.1875 -25.214844 -0.140625 -24.789062 C -0.09375 -23.46875 -0.046875 -22.292969 0 -21.253906 C 0.046875 -20.171875 0.09375 -19.183594 0.1875 -18.285156 C 0.328125 -16.402344 0.472656 -14.894531 0.613281 -13.667969 C 0.660156 -13.007812 0.707031 -12.441406 0.753906 -11.875 C 0.800781 -11.3125 0.847656 -10.746094 0.941406 -10.273438 C 0.988281 -9.757812 1.035156 -9.238281 1.035156 -8.765625 C 1.035156 -8.292969 0.988281 -7.777344 0.988281 -7.304688 C 0.988281 -6.832031 1.035156 -6.363281 1.132812 -5.890625 C 1.179688 -5.609375 1.226562 -5.371094 1.226562 -5.183594 C 1.226562 -4.949219 1.273438 -4.714844 1.320312 -4.523438 C 1.460938 -3.816406 1.695312 -3.347656 2.027344 -3.15625 C 2.355469 -2.875 2.6875 -2.734375 3.0625 -2.734375 C 3.441406 -2.640625 3.863281 -2.6875 4.242188 -2.78125 C 4.617188 -2.875 4.996094 -2.921875 5.371094 -2.921875 Z M 5.9375 -5.75 L 5.9375 -5.890625 C 5.75 -5.984375 5.65625 -6.078125 5.65625 -6.175781 C 5.5625 -6.269531 5.515625 -6.503906 5.515625 -6.882812 C 5.421875 -7.257812 5.371094 -7.824219 5.371094 -8.578125 C 5.324219 -8.953125 5.277344 -9.425781 5.277344 -9.992188 C 5.277344 -10.558594 5.230469 -11.21875 5.183594 -11.972656 C 5.089844 -12.726562 5.042969 -13.574219 4.996094 -14.515625 C 4.949219 -15.457031 4.902344 -16.542969 4.855469 -17.769531 C 4.761719 -18.945312 4.714844 -20.265625 4.617188 -21.726562 C 4.523438 -23.1875 4.382812 -24.835938 4.289062 -26.628906 C 4.242188 -26.769531 4.242188 -27.003906 4.242188 -27.335938 L 4.242188 -28.183594 C 4.714844 -28.089844 5.230469 -27.949219 5.75 -27.757812 C 6.269531 -27.570312 6.785156 -27.195312 7.304688 -26.722656 C 7.777344 -26.15625 8.246094 -25.449219 8.71875 -24.601562 C 9.097656 -23.660156 9.425781 -22.433594 9.707031 -20.925781 C 9.992188 -18.710938 9.992188 -16.636719 9.757812 -14.75 C 9.519531 -12.960938 9.144531 -11.40625 8.671875 -10.039062 C 8.199219 -8.765625 7.730469 -7.730469 7.164062 -6.929688 C 6.644531 -6.175781 6.222656 -5.796875 5.9375 -5.75 Z M 5.9375 -5.75 "/></g></g></g><g fill="#000000" fill-opacity="1"><g transform="translate(228.421854, 350.845916)"><g><path d="M 1.226562 -3.109375 L 1.554688 -3.203125 C 2.308594 -3.109375 2.875 -3.15625 3.253906 -3.347656 C 3.628906 -3.441406 3.910156 -3.722656 4.101562 -4.195312 C 4.289062 -4.664062 4.429688 -5.230469 4.476562 -5.984375 C 4.476562 -6.738281 4.570312 -7.730469 4.761719 -8.953125 L 8.53125 -8.953125 C 8.71875 -8.246094 8.859375 -7.539062 8.953125 -6.882812 C 8.953125 -6.503906 9 -6.175781 9 -5.890625 C 9 -5.609375 9.050781 -5.277344 9.144531 -4.996094 C 9.238281 -4.335938 9.425781 -3.863281 9.804688 -3.535156 C 10.085938 -3.15625 10.460938 -2.96875 10.933594 -2.96875 C 11.3125 -2.875 11.734375 -2.921875 12.207031 -3.109375 C 12.582031 -3.203125 12.914062 -3.394531 13.195312 -3.675781 C 13.195312 -3.769531 13.148438 -4.054688 13.101562 -4.429688 C 13.054688 -4.808594 13.007812 -5.277344 12.960938 -5.9375 C 12.773438 -7.164062 12.582031 -8.71875 12.394531 -10.605469 C 12.113281 -12.394531 11.828125 -14.328125 11.546875 -16.402344 C 11.359375 -17.390625 11.21875 -18.378906 11.027344 -19.324219 C 10.839844 -20.265625 10.652344 -21.207031 10.460938 -22.152344 C 10.085938 -23.941406 9.707031 -25.449219 9.332031 -26.675781 C 8.953125 -27.902344 8.578125 -28.609375 8.292969 -28.75 C 7.070312 -29.316406 6.078125 -29.644531 5.371094 -29.738281 C 4.617188 -29.785156 4.101562 -29.644531 3.722656 -29.316406 C 3.347656 -28.9375 3.0625 -28.511719 2.921875 -27.949219 C 2.828125 -27.664062 2.78125 -27.335938 2.734375 -27.050781 C 2.640625 -26.769531 2.59375 -26.441406 2.546875 -26.15625 C 2.355469 -24.933594 2.214844 -23.847656 2.074219 -22.8125 C 1.933594 -21.773438 1.839844 -20.832031 1.742188 -19.984375 C 1.648438 -19.132812 1.554688 -18.332031 1.460938 -17.625 C 1.367188 -16.871094 1.273438 -16.210938 1.226562 -15.648438 C 1.132812 -15.035156 1.085938 -14.46875 1.035156 -13.996094 C 0.988281 -13.480469 0.941406 -13.007812 0.894531 -12.582031 C 0.800781 -11.734375 0.707031 -10.933594 0.613281 -10.179688 L 0.328125 -7.917969 L 0.09375 -6.644531 C 0 -6.175781 -0.09375 -5.65625 -0.1875 -5.136719 C -0.378906 -4.382812 -0.328125 -3.910156 -0.140625 -3.628906 C 0.046875 -3.347656 0.472656 -3.15625 1.226562 -3.109375 Z M 5.089844 -11.875 L 5.183594 -11.925781 C 5.136719 -12.066406 5.136719 -12.253906 5.136719 -12.535156 L 5.136719 -13.480469 C 5.136719 -14.1875 5.183594 -14.988281 5.277344 -15.835938 C 5.324219 -16.261719 5.371094 -16.683594 5.46875 -17.109375 C 5.515625 -17.484375 5.5625 -17.910156 5.65625 -18.378906 C 5.75 -19.132812 5.984375 -19.839844 6.316406 -20.40625 C 6.363281 -20.125 6.410156 -19.839844 6.457031 -19.652344 C 6.457031 -19.464844 6.503906 -19.277344 6.550781 -19.132812 C 6.550781 -18.851562 6.597656 -18.617188 6.691406 -18.429688 C 6.691406 -18.285156 6.738281 -18.050781 6.832031 -17.769531 C 6.832031 -17.625 6.882812 -17.484375 6.882812 -17.34375 C 6.882812 -17.15625 6.929688 -16.964844 7.023438 -16.777344 C 7.070312 -16.542969 7.117188 -16.308594 7.164062 -16.023438 L 7.351562 -15.035156 C 7.445312 -14.28125 7.636719 -13.289062 7.917969 -12.066406 C 7.351562 -11.875 6.882812 -11.78125 6.457031 -11.78125 C 6.175781 -11.78125 5.9375 -11.78125 5.75 -11.78125 C 5.515625 -11.78125 5.277344 -11.828125 5.089844 -11.875 Z M 5.089844 -11.875 "/></g></g></g><g fill="#000000" fill-opacity="1"><g transform="translate(254.437492, 350.845916)"><g><path d="M 3.769531 -2.828125 L 4.054688 -2.921875 C 4.523438 -2.828125 5.183594 -2.78125 6.03125 -2.78125 C 6.785156 -2.78125 7.589844 -2.875 8.4375 -3.15625 C 9.238281 -3.394531 9.945312 -3.769531 10.558594 -4.335938 C 11.121094 -4.902344 11.5 -5.65625 11.6875 -6.597656 C 11.78125 -7.351562 11.828125 -8.058594 11.734375 -8.71875 C 11.640625 -9.285156 11.40625 -9.898438 11.074219 -10.558594 C 10.699219 -11.121094 10.273438 -11.78125 9.804688 -12.535156 C 9.519531 -12.867188 9.238281 -13.242188 8.90625 -13.667969 C 8.578125 -14.09375 8.246094 -14.5625 7.871094 -15.128906 C 7.117188 -16.164062 6.457031 -17.0625 5.890625 -17.816406 C 5.230469 -18.570312 4.761719 -19.371094 4.476562 -20.125 C 4.101562 -20.972656 3.910156 -21.820312 3.816406 -22.714844 C 3.722656 -23.660156 3.816406 -24.835938 4.148438 -26.25 C 4.289062 -26.863281 4.476562 -27.242188 4.761719 -27.382812 C 5.042969 -27.523438 5.324219 -27.570312 5.609375 -27.476562 C 5.890625 -27.382812 6.125 -27.195312 6.410156 -26.957031 C 6.597656 -26.675781 6.738281 -26.441406 6.832031 -26.25 C 6.882812 -26.0625 6.929688 -25.875 6.929688 -25.6875 L 6.929688 -25.121094 C 6.929688 -24.882812 6.929688 -24.601562 6.976562 -24.273438 C 7.636719 -23.847656 8.199219 -23.707031 8.71875 -23.847656 C 9.191406 -23.941406 9.613281 -24.226562 9.898438 -24.695312 C 10.179688 -25.074219 10.320312 -25.589844 10.320312 -26.203125 C 10.320312 -26.769531 10.132812 -27.242188 9.757812 -27.710938 C 8.90625 -28.5625 7.917969 -29.171875 6.785156 -29.550781 C 5.65625 -29.832031 4.476562 -29.972656 3.253906 -29.878906 C 2.402344 -29.785156 1.789062 -29.550781 1.320312 -29.078125 C 0.800781 -28.5625 0.425781 -27.949219 0.234375 -27.289062 C -0.046875 -26.535156 -0.1875 -25.78125 -0.1875 -24.980469 C -0.28125 -24.128906 -0.28125 -23.328125 -0.1875 -22.574219 C -0.1875 -21.820312 -0.09375 -21.160156 0.09375 -20.597656 C 0.234375 -19.984375 0.378906 -19.558594 0.519531 -19.371094 C 0.847656 -18.851562 1.179688 -18.332031 1.460938 -17.863281 C 1.742188 -17.34375 2.074219 -16.824219 2.355469 -16.308594 C 2.921875 -15.269531 3.582031 -14.28125 4.429688 -13.386719 C 5.46875 -12.253906 6.269531 -11.121094 6.882812 -9.992188 C 7.445312 -8.90625 7.683594 -7.824219 7.589844 -6.691406 C 7.492188 -5.9375 7.304688 -5.46875 7.023438 -5.183594 C 6.691406 -4.902344 6.078125 -4.761719 5.183594 -4.714844 C 4.808594 -4.902344 4.570312 -5.183594 4.476562 -5.5625 L 4.054688 -6.550781 C 3.582031 -7.351562 2.96875 -7.777344 2.214844 -7.871094 C 1.460938 -7.871094 0.800781 -7.683594 0.28125 -7.210938 C 0.328125 -6.929688 0.378906 -6.691406 0.425781 -6.457031 C 0.425781 -6.222656 0.472656 -5.984375 0.566406 -5.75 C 0.660156 -5.230469 0.800781 -4.808594 1.035156 -4.476562 C 1.226562 -4.101562 1.554688 -3.769531 2.027344 -3.488281 C 2.496094 -3.15625 3.0625 -2.921875 3.769531 -2.828125 Z M 3.769531 -2.828125 "/></g></g></g></svg>