<svg xmlns="http://www.w3.org/2000/svg" xmlns:xlink="http://www.w3.org/1999/xlink" width="864" zoomAndPan="magnify" viewBox="0 0 648 552.75" height="737" preserveAspectRatio="xMidYMid meet" version="1.0"><defs><g/></defs><g fill="#2ab7ca" fill-opacity="1"><g transform="translate(27.630616, 276.250055)"><g><path d="M 42 -98.199219 C 42 -99.378906 42 -100.269531 42 -101.449219 C 42.589844 -113.875 45.550781 -125.703125 49.691406 -137.238281 C 51.761719 -144.042969 55.015625 -149.664062 59.449219 -154.988281 C 65.957031 -163.859375 74.832031 -167.703125 85.773438 -167.113281 C 92.28125 -166.523438 96.421875 -163.5625 99.675781 -158.238281 C 99.972656 -157.351562 100.269531 -156.464844 100.859375 -155.875 C 102.929688 -151.734375 106.480469 -149.664062 111.210938 -150.253906 C 115.648438 -150.550781 118.605469 -153.210938 120.085938 -157.351562 C 121.5625 -161.199219 121.5625 -165.042969 120.085938 -169.183594 C 115.945312 -181.605469 107.070312 -189.59375 95.535156 -194.027344 C 83.410156 -198.464844 70.984375 -198.464844 58.859375 -194.324219 C 43.480469 -189 31.945312 -178.648438 23.070312 -165.339844 C 2.367188 -133.988281 -5.027344 -99.972656 4.140625 -63.296875 C 10.648438 -36.378906 25.4375 -15.378906 52.648438 -5.621094 C 70.394531 0.589844 87.253906 -1.773438 102.339844 -13.308594 C 111.210938 -19.816406 118.015625 -28.097656 123.339844 -37.5625 C 125.703125 -41.410156 127.480469 -45.84375 128.664062 -50.28125 C 130.140625 -54.421875 130.140625 -58.859375 128.957031 -63.296875 C 127.183594 -70.097656 121.269531 -74.238281 114.464844 -72.761719 C 110.027344 -71.875 107.664062 -68.621094 105.59375 -64.480469 C 101.746094 -55.308594 97.015625 -46.734375 89.324219 -39.632812 C 77.199219 -28.394531 62.113281 -34.015625 56.199219 -44.664062 C 47.027344 -61.226562 42.886719 -79.269531 42 -98.199219 Z M 56.492188 -11.238281 C 43.773438 -11.238281 26.914062 -25.4375 23.070312 -36.378906 C 28.394531 -31.648438 33.125 -26.621094 38.449219 -22.480469 C 43.773438 -18.339844 49.691406 -15.378906 56.492188 -11.238281 Z M 63.886719 -189.886719 C 54.421875 -183.972656 45.550781 -178.351562 36.675781 -172.734375 C 38.746094 -179.832031 55.308594 -190.480469 63.886719 -189.886719 Z M 123.632812 -66.84375 C 113.578125 -68.324219 111.804688 -59.746094 106.183594 -55.015625 C 106.183594 -56.492188 105.886719 -57.378906 106.183594 -58.269531 C 108.253906 -61.519531 110.027344 -65.367188 112.691406 -68.027344 C 115.648438 -71.578125 119.492188 -70.984375 123.632812 -66.84375 Z M 116.832031 -158.535156 C 112.394531 -151.4375 102.339844 -155.578125 100.5625 -166.226562 C 105.59375 -162.085938 108.550781 -155.578125 116.832031 -158.535156 Z M 116.832031 -158.535156 "/></g></g></g><g fill="#2ab7ca" fill-opacity="1"><g transform="translate(166.349232, 276.250055)"><g><path d="M 15.972656 -127.183594 C 13.605469 -125.113281 10.648438 -123.042969 8.578125 -120.378906 C 0.589844 -108.84375 -1.183594 -95.535156 0.886719 -82.226562 C 2.957031 -69.210938 10.351562 -59.746094 22.773438 -54.71875 C 27.804688 -52.945312 33.125 -51.761719 38.449219 -53.238281 C 49.984375 -55.902344 56.199219 -64.183594 60.632812 -73.945312 C 63.59375 -80.15625 64.773438 -87.550781 65.957031 -94.351562 C 67.4375 -102.042969 67.734375 -110.027344 65.957031 -117.71875 C 63.296875 -130.140625 58.269531 -141.085938 46.734375 -147.886719 C 37.5625 -153.507812 27.804688 -155.875 17.449219 -152.621094 C 9.761719 -149.957031 5.914062 -141.675781 9.464844 -134.875 C 10.945312 -131.917969 13.902344 -129.550781 15.972656 -127.183594 Z M 31.945312 -123.632812 C 36.675781 -121.859375 38.746094 -118.015625 40.226562 -114.167969 C 42.589844 -106.480469 42.296875 -99.085938 40.816406 -91.394531 C 40.226562 -86.664062 38.746094 -82.226562 35.199219 -78.675781 C 33.421875 -76.902344 32.535156 -77.199219 30.761719 -78.675781 C 27.210938 -82.226562 26.914062 -86.957031 27.210938 -91.394531 C 27.507812 -95.535156 28.097656 -99.972656 28.984375 -104.113281 C 28.984375 -105 29.578125 -106.183594 30.167969 -107.070312 C 34.015625 -112.097656 35.492188 -117.421875 31.945312 -123.632812 Z M 7.984375 -87.84375 C 8.28125 -87.253906 8.578125 -86.664062 8.578125 -86.070312 C 10.648438 -77.492188 15.378906 -70.984375 21.886719 -65.367188 C 25.4375 -62.113281 29.875 -60.929688 34.605469 -60.042969 C 35.492188 -59.746094 36.378906 -58.859375 36.972656 -58.269531 C 36.085938 -57.972656 35.199219 -57.085938 34.308594 -57.085938 C 26.621094 -57.085938 20.113281 -60.042969 15.085938 -65.664062 C 10.648438 -70.984375 7.691406 -76.902344 6.804688 -83.703125 C 6.804688 -84.886719 6.804688 -86.367188 6.804688 -87.84375 C 7.394531 -87.84375 7.691406 -87.84375 7.984375 -87.84375 Z M 45.550781 -89.324219 C 45.550781 -99.378906 45.550781 -108.84375 45.550781 -118.308594 C 50.578125 -115.058594 51.167969 -93.464844 45.550781 -89.324219 Z M 21 -131.621094 C 17.449219 -132.507812 15.085938 -134.875 14.195312 -138.421875 C 13.308594 -141.675781 13.902344 -145.226562 16.5625 -147.886719 C 17.15625 -148.183594 18.042969 -148.183594 18.929688 -148.480469 C 18.929688 -147.886719 18.929688 -147 18.632812 -146.410156 C 16.859375 -142.5625 18.042969 -139.015625 20.113281 -135.464844 C 20.703125 -134.28125 21.296875 -133.097656 21.886719 -132.210938 C 21.589844 -131.917969 21.296875 -131.621094 21 -131.621094 Z M 21 -131.621094 "/></g></g></g><g fill="#2ab7ca" fill-opacity="1"><g transform="translate(242.6593, 276.250055)"><g><path d="M 89.027344 -124.523438 C 89.324219 -124.523438 89.324219 -124.523438 89.621094 -124.523438 C 89.621094 -123.339844 89.621094 -122.15625 89.621094 -120.972656 C 89.621094 -112.988281 89.027344 -105 89.324219 -97.015625 C 89.324219 -85.183594 89.621094 -73.054688 90.507812 -61.226562 C 91.097656 -49.691406 103.523438 -44.957031 111.804688 -50.578125 C 116.535156 -54.128906 118.015625 -59.15625 118.308594 -64.480469 C 119.492188 -73.054688 120.085938 -81.339844 120.085938 -89.914062 C 120.675781 -106.773438 120.675781 -123.339844 116.238281 -139.605469 C 114.761719 -145.226562 112.691406 -150.550781 108.253906 -154.394531 C 99.675781 -162.085938 89.914062 -162.675781 80.449219 -155.875 C 72.167969 -150.253906 66.550781 -142.269531 62.410156 -133.394531 C 61.226562 -131.027344 60.042969 -128.664062 58.859375 -126.296875 C 56.789062 -130.140625 55.015625 -133.394531 52.648438 -136.648438 C 46.140625 -145.523438 36.675781 -148.480469 26.324219 -143.453125 C 17.15625 -139.015625 12.421875 -130.140625 7.984375 -121.5625 C 2.367188 -110.621094 1.480469 -98.789062 0.589844 -87.253906 C 0 -79.859375 0 -72.464844 0.589844 -65.070312 C 1.480469 -54.128906 10.945312 -47.621094 21.296875 -51.464844 C 27.507812 -53.535156 31.054688 -59.449219 31.054688 -66.84375 C 31.054688 -74.832031 30.464844 -83.113281 30.464844 -91.097656 C 30.761719 -97.902344 31.648438 -104.703125 34.308594 -111.210938 C 34.605469 -111.804688 35.199219 -112.394531 36.085938 -113.578125 C 37.859375 -107.664062 39.929688 -102.632812 41.113281 -97.308594 C 42.886719 -88.4375 44.070312 -79.269531 45.550781 -70.097656 C 46.734375 -64.183594 52.054688 -59.15625 57.675781 -59.15625 C 63.296875 -59.15625 68.914062 -63.296875 70.691406 -68.914062 C 74.238281 -82.226562 77.789062 -95.535156 81.339844 -108.550781 C 83.113281 -114.167969 85.480469 -119.789062 89.027344 -124.523438 Z M 51.167969 -93.167969 C 51.464844 -91.394531 52.054688 -89.914062 52.351562 -88.4375 C 53.535156 -84.296875 54.128906 -80.15625 55.605469 -76.308594 C 56.492188 -73.351562 58.5625 -70.984375 60.042969 -68.324219 C 60.339844 -67.734375 60.929688 -67.140625 61.226562 -66.550781 C 60.339844 -66.253906 59.449219 -65.367188 58.859375 -65.664062 C 57.378906 -66.253906 55.308594 -66.84375 54.71875 -68.027344 C 52.945312 -70.394531 51.464844 -73.054688 51.167969 -75.71875 C 49.984375 -81.339844 49.984375 -86.957031 49.394531 -92.875 C 49.984375 -92.875 50.578125 -92.875 51.167969 -93.167969 Z M 38.449219 -139.308594 C 34.015625 -136.945312 28.984375 -135.167969 25.4375 -132.210938 C 21.589844 -128.957031 18.929688 -124.523438 15.675781 -120.378906 C 14.195312 -125.703125 21 -135.464844 28.394531 -139.308594 C 33.125 -141.675781 36.675781 -141.675781 38.449219 -139.308594 Z M 97.015625 -76.902344 C 97.605469 -75.421875 97.902344 -74.238281 98.199219 -72.761719 C 98.789062 -70.097656 99.085938 -67.4375 99.972656 -65.070312 C 101.15625 -60.929688 103.816406 -58.269531 107.957031 -57.085938 C 108.84375 -56.789062 109.140625 -56.199219 109.734375 -55.605469 C 109.140625 -55.015625 108.550781 -54.421875 107.664062 -54.128906 C 104.703125 -53.832031 102.042969 -54.71875 99.972656 -56.492188 C 95.238281 -60.632812 93.464844 -70.691406 96.128906 -76.605469 C 96.421875 -76.605469 96.71875 -76.605469 97.015625 -76.902344 Z M 69.210938 -133.691406 C 73.054688 -141.675781 76.308594 -149.664062 85.183594 -153.507812 C 87.84375 -154.394531 90.507812 -154.394531 93.167969 -152.917969 C 88.4375 -150.253906 83.410156 -148.183594 79.5625 -144.632812 C 76.015625 -141.382812 73.351562 -136.945312 70.394531 -132.804688 C 70.097656 -133.097656 69.804688 -133.394531 69.210938 -133.691406 Z M 18.929688 -55.902344 C 16.859375 -54.421875 14.789062 -54.71875 13.015625 -55.605469 C 7.394531 -58.859375 4.140625 -68.027344 6.804688 -73.945312 C 6.804688 -74.238281 7.097656 -74.238281 7.691406 -74.535156 C 8.875 -70.984375 9.464844 -67.140625 11.238281 -64.183594 C 13.015625 -60.929688 16.269531 -58.5625 18.929688 -55.902344 Z M 18.929688 -55.902344 "/></g></g></g><g fill="#2ab7ca" fill-opacity="1"><g transform="translate(371.913134, 276.250055)"><g><path d="M 66.253906 -69.507812 C 66.550781 -69.507812 66.550781 -69.507812 66.84375 -69.507812 C 66.84375 -66.550781 66.550781 -63.886719 66.84375 -60.929688 C 67.4375 -57.675781 67.4375 -53.832031 68.621094 -50.875 C 72.464844 -40.816406 84.59375 -36.972656 92.578125 -45.550781 C 96.71875 -49.691406 97.605469 -55.308594 97.902344 -60.929688 C 98.492188 -72.761719 98.492188 -84.886719 98.492188 -97.015625 C 98.492188 -105 98.199219 -112.988281 97.902344 -120.972656 C 97.902344 -127.773438 96.421875 -134.28125 92.875 -140.492188 C 86.957031 -150.84375 73.054688 -153.804688 65.070312 -142.269531 C 61.519531 -137.238281 58.859375 -131.324219 56.789062 -125.703125 C 51.464844 -112.394531 47.027344 -98.789062 42.296875 -85.480469 C 40.816406 -81.632812 39.042969 -78.085938 37.5625 -74.535156 C 37.269531 -74.535156 36.972656 -74.535156 36.378906 -74.535156 C 35.492188 -77.199219 34.015625 -79.5625 33.421875 -82.226562 C 30.464844 -94.351562 28.097656 -106.773438 26.914062 -119.199219 C 26.621094 -124.523438 23.957031 -128.664062 18.632812 -130.140625 C 11.238281 -132.507812 3.84375 -129.84375 1.773438 -120.378906 C 0.589844 -114.464844 0 -108.550781 0 -102.632812 C 0 -92.28125 0.296875 -81.929688 1.183594 -71.875 C 2.070312 -60.339844 6.804688 -50.875 15.675781 -43.183594 C 23.070312 -36.378906 34.902344 -34.308594 43.773438 -38.15625 C 52.945312 -42.296875 58.269531 -49.691406 61.816406 -58.5625 C 63.59375 -62.410156 64.773438 -65.957031 66.253906 -69.507812 Z M 41.410156 -44.664062 C 39.632812 -44.070312 37.859375 -42.886719 36.085938 -42.886719 C 27.210938 -42 20.703125 -46.140625 15.972656 -52.945312 C 13.605469 -56.492188 12.125 -60.632812 10.351562 -64.480469 C 10.054688 -65.070312 10.351562 -65.957031 10.351562 -66.84375 C 10.648438 -66.84375 10.945312 -67.140625 11.238281 -67.140625 C 12.125 -65.957031 12.71875 -65.070312 13.308594 -63.886719 C 15.972656 -58.5625 19.519531 -53.832031 24.253906 -49.984375 C 28.394531 -47.027344 33.125 -46.140625 38.15625 -45.84375 C 39.042969 -45.84375 39.632812 -45.84375 40.519531 -45.84375 C 40.519531 -45.84375 40.816406 -45.550781 40.816406 -45.550781 C 41.113281 -45.253906 41.113281 -44.957031 41.410156 -44.664062 Z M 63.296875 -124.226562 C 63.296875 -126 63 -127.480469 63.296875 -128.957031 C 65.367188 -134.875 68.324219 -139.902344 73.945312 -142.859375 C 75.71875 -143.746094 77.789062 -144.042969 79.859375 -144.339844 C 80.449219 -144.339844 81.042969 -143.746094 81.632812 -143.453125 C 81.339844 -142.859375 80.746094 -142.269531 80.15625 -141.675781 C 80.15625 -141.675781 80.15625 -141.675781 79.859375 -141.675781 C 73.945312 -139.308594 70.394531 -134.578125 67.734375 -129.253906 C 66.84375 -127.480469 65.664062 -125.703125 64.480469 -123.929688 C 64.183594 -124.226562 63.59375 -124.226562 63.296875 -124.226562 Z M 74.535156 -69.507812 C 74.832031 -68.027344 75.128906 -66.84375 75.421875 -65.367188 C 76.605469 -61.816406 77.199219 -57.972656 78.675781 -54.421875 C 79.5625 -52.648438 81.929688 -51.464844 83.703125 -49.691406 C 84.296875 -49.394531 84.59375 -48.804688 85.183594 -48.210938 C 84.296875 -47.914062 83.703125 -47.324219 83.113281 -47.324219 C 79.859375 -47.324219 77.492188 -49.097656 75.421875 -51.761719 C 72.167969 -56.492188 72.167969 -62.113281 72.464844 -67.734375 C 72.464844 -68.324219 73.054688 -68.914062 73.648438 -69.507812 C 73.945312 -69.507812 74.238281 -69.507812 74.535156 -69.507812 Z M 15.972656 -126 C 14.195312 -123.339844 12.421875 -120.675781 10.945312 -118.015625 C 10.351562 -116.832031 10.648438 -115.351562 10.054688 -114.167969 C 9.761719 -113.28125 9.167969 -112.691406 8.578125 -112.097656 C 7.984375 -112.691406 7.394531 -113.578125 7.097656 -114.167969 C 6.507812 -118.605469 7.691406 -122.453125 10.945312 -125.410156 C 12.71875 -127.183594 14.492188 -127.183594 15.972656 -126 Z M 15.972656 -126 "/></g></g></g><g fill="#2ab7ca" fill-opacity="1"><g transform="translate(479.279614, 276.250055)"><g><path d="M 34.015625 -86.070312 C 34.308594 -86.070312 34.605469 -86.070312 34.605469 -86.367188 C 35.492188 -85.480469 36.085938 -84.59375 36.675781 -83.703125 C 38.449219 -80.449219 40.226562 -77.199219 42.589844 -74.238281 C 47.027344 -68.324219 50.578125 -61.519531 56.492188 -56.492188 C 63.59375 -50.875 72.761719 -51.167969 78.675781 -57.972656 C 84.296875 -63.886719 85.480469 -71.875 86.664062 -79.5625 C 88.4375 -94.648438 91.691406 -128.070312 89.324219 -147.59375 C 88.140625 -154.988281 82.519531 -159.71875 75.128906 -160.605469 C 69.507812 -161.199219 62.410156 -156.464844 60.339844 -149.664062 C 58.859375 -144.632812 57.675781 -139.308594 57.378906 -133.988281 C 56.789062 -124.523438 56.789062 -114.761719 56.789062 -105.296875 C 56.492188 -104.410156 56.492188 -103.523438 56.492188 -102.929688 C 56.199219 -102.632812 55.902344 -102.632812 55.605469 -102.339844 C 52.054688 -107.957031 48.210938 -113.875 44.664062 -119.492188 C 38.746094 -128.367188 33.125 -137.238281 26.621094 -145.816406 C 23.367188 -150.550781 18.339844 -153.210938 12.421875 -151.4375 C 7.394531 -149.957031 4.140625 -146.410156 2.957031 -141.382812 C 1.773438 -135.761719 0.886719 -130.140625 0.589844 -124.523438 C 0.296875 -115.648438 0 -107.070312 0 -98.492188 C 0 -87.550781 0 -76.605469 0 -65.957031 C 0 -63.886719 0.296875 -62.113281 0.589844 -60.339844 C 2.367188 -53.238281 8.875 -47.914062 15.675781 -47.914062 C 23.070312 -47.914062 28.097656 -51.761719 31.054688 -58.859375 C 34.015625 -65.664062 33.125 -72.761719 34.015625 -79.5625 C 34.308594 -81.929688 34.015625 -84 34.015625 -86.070312 Z M 75.421875 -61.816406 C 75.421875 -58.859375 73.648438 -58.5625 71.578125 -58.269531 C 66.253906 -57.378906 61.519531 -59.746094 58.269531 -63.59375 C 55.605469 -66.84375 53.535156 -70.691406 51.167969 -74.238281 C 50.875 -74.832031 51.167969 -75.71875 51.167969 -76.308594 C 51.761719 -76.015625 52.648438 -76.015625 53.238281 -75.421875 C 54.71875 -73.648438 56.492188 -71.875 57.972656 -69.804688 C 61.816406 -64.480469 67.140625 -61.226562 73.945312 -61.816406 C 74.238281 -62.113281 74.832031 -61.816406 75.421875 -61.816406 Z M 65.664062 -131.027344 C 62.113281 -137.238281 65.367188 -149.664062 71.28125 -154.097656 C 74.238281 -156.464844 77.199219 -156.761719 78.972656 -154.691406 C 68.621094 -150.550781 68.621094 -139.902344 65.664062 -131.027344 Z M 6.507812 -73.351562 C 6.804688 -72.167969 7.394531 -71.28125 7.394531 -70.394531 C 8.875 -63.296875 12.125 -57.972656 18.929688 -55.308594 C 19.519531 -55.015625 19.816406 -54.128906 20.410156 -53.535156 C 19.519531 -53.238281 18.632812 -52.648438 18.042969 -52.648438 C 12.125 -52.648438 5.621094 -59.15625 5.027344 -65.664062 C 4.730469 -67.4375 4.730469 -69.210938 4.730469 -70.984375 C 4.730469 -71.875 5.324219 -72.464844 5.621094 -73.054688 C 5.914062 -73.054688 6.210938 -73.351562 6.507812 -73.351562 Z M 17.746094 -144.632812 C 13.308594 -142.269531 10.945312 -138.421875 10.054688 -133.691406 C 10.054688 -132.507812 9.761719 -131.324219 9.167969 -130.140625 C 8.875 -129.550781 7.984375 -128.957031 7.394531 -128.367188 C 7.097656 -128.957031 6.507812 -129.550781 6.507812 -130.140625 C 5.324219 -135.464844 8.28125 -142.5625 13.015625 -145.226562 C 14.789062 -146.410156 15.972656 -146.410156 17.746094 -144.632812 Z M 17.746094 -144.632812 "/></g></g></g><g fill="#2ab7ca" fill-opacity="1"><g transform="translate(578.364339, 276.250055)"><g><path d="M 33.125 -117.421875 C 32.238281 -125.113281 31.648438 -133.097656 29.578125 -140.789062 C 27.804688 -148.480469 23.070312 -151.734375 16.5625 -151.734375 C 10.351562 -152.027344 4.4375 -147.296875 3.253906 -140.199219 C 2.957031 -138.421875 2.957031 -136.351562 2.660156 -134.28125 C 1.773438 -124.226562 0.296875 -113.875 0 -103.523438 C 0 -91.394531 0.886719 -79.269531 1.773438 -67.140625 C 2.070312 -62.113281 2.367188 -57.378906 3.253906 -52.351562 C 4.140625 -48.210938 5.324219 -44.367188 9.167969 -42 C 16.859375 -37.269531 25.4375 -40.226562 28.097656 -49.097656 C 29.578125 -54.71875 30.167969 -60.929688 31.054688 -66.550781 Z M 8.578125 -128.367188 C 7.691406 -129.253906 7.394531 -129.550781 7.394531 -130.140625 C 5.324219 -135.464844 10.351562 -145.523438 15.675781 -147 C 16.5625 -147.296875 17.746094 -147.296875 18.632812 -147 C 19.226562 -147 19.816406 -146.703125 19.816406 -146.113281 C 19.816406 -145.816406 19.519531 -144.929688 19.226562 -144.929688 C 13.015625 -143.15625 11.832031 -137.238281 9.761719 -132.507812 C 9.464844 -131.324219 9.167969 -130.140625 8.578125 -128.367188 Z M 8.875 -60.632812 C 9.761719 -54.421875 13.015625 -49.984375 18.042969 -46.140625 C 14.789062 -44.367188 12.71875 -45.253906 10.945312 -47.027344 C 8.28125 -49.394531 5.621094 -56.789062 8.875 -60.632812 Z M 8.875 -60.632812 "/></g></g></g><g fill="#2ab7ca" fill-opacity="1"><g transform="translate(75.106862, 474.118496)"><g><path d="M 42 -98.199219 C 42 -99.378906 42 -100.269531 42 -101.449219 C 42.589844 -113.875 45.550781 -125.703125 49.691406 -137.238281 C 51.761719 -144.042969 55.015625 -149.664062 59.449219 -154.988281 C 65.957031 -163.859375 74.832031 -167.703125 85.773438 -167.113281 C 92.28125 -166.523438 96.421875 -163.5625 99.675781 -158.238281 C 99.972656 -157.351562 100.269531 -156.464844 100.859375 -155.875 C 102.929688 -151.734375 106.480469 -149.664062 111.210938 -150.253906 C 115.648438 -150.550781 118.605469 -153.210938 120.085938 -157.351562 C 121.5625 -161.199219 121.5625 -165.042969 120.085938 -169.183594 C 115.945312 -181.605469 107.070312 -189.59375 95.535156 -194.027344 C 83.410156 -198.464844 70.984375 -198.464844 58.859375 -194.324219 C 43.480469 -189 31.945312 -178.648438 23.070312 -165.339844 C 2.367188 -133.988281 -5.027344 -99.972656 4.140625 -63.296875 C 10.648438 -36.378906 25.4375 -15.378906 52.648438 -5.621094 C 70.394531 0.589844 87.253906 -1.773438 102.339844 -13.308594 C 111.210938 -19.816406 118.015625 -28.097656 123.339844 -37.5625 C 125.703125 -41.410156 127.480469 -45.84375 128.664062 -50.28125 C 130.140625 -54.421875 130.140625 -58.859375 128.957031 -63.296875 C 127.183594 -70.097656 121.269531 -74.238281 114.464844 -72.761719 C 110.027344 -71.875 107.664062 -68.621094 105.59375 -64.480469 C 101.746094 -55.308594 97.015625 -46.734375 89.324219 -39.632812 C 77.199219 -28.394531 62.113281 -34.015625 56.199219 -44.664062 C 47.027344 -61.226562 42.886719 -79.269531 42 -98.199219 Z M 56.492188 -11.238281 C 43.773438 -11.238281 26.914062 -25.4375 23.070312 -36.378906 C 28.394531 -31.648438 33.125 -26.621094 38.449219 -22.480469 C 43.773438 -18.339844 49.691406 -15.378906 56.492188 -11.238281 Z M 63.886719 -189.886719 C 54.421875 -183.972656 45.550781 -178.351562 36.675781 -172.734375 C 38.746094 -179.832031 55.308594 -190.480469 63.886719 -189.886719 Z M 123.632812 -66.84375 C 113.578125 -68.324219 111.804688 -59.746094 106.183594 -55.015625 C 106.183594 -56.492188 105.886719 -57.378906 106.183594 -58.269531 C 108.253906 -61.519531 110.027344 -65.367188 112.691406 -68.027344 C 115.648438 -71.578125 119.492188 -70.984375 123.632812 -66.84375 Z M 116.832031 -158.535156 C 112.394531 -151.4375 102.339844 -155.578125 100.5625 -166.226562 C 105.59375 -162.085938 108.550781 -155.578125 116.832031 -158.535156 Z M 116.832031 -158.535156 "/></g></g></g><g fill="#2ab7ca" fill-opacity="1"><g transform="translate(213.825478, 474.118496)"><g><path d="M 97.605469 -65.367188 C 97.308594 -65.367188 97.308594 -65.367188 97.308594 -65.367188 C 97.015625 -68.914062 97.015625 -72.464844 96.71875 -76.015625 C 95.535156 -83.703125 94.058594 -91.394531 93.167969 -99.378906 C 92.28125 -110.324219 89.621094 -121.269531 86.070312 -131.917969 C 83.410156 -139.605469 79.269531 -146.113281 73.351562 -151.140625 C 68.621094 -155.28125 63 -157.648438 57.085938 -157.351562 C 47.324219 -156.761719 39.929688 -151.734375 34.605469 -143.453125 C 25.734375 -130.4375 19.519531 -115.945312 14.789062 -100.859375 C 9.761719 -85.480469 5.914062 -69.507812 1.480469 -54.128906 C 0.296875 -49.097656 -0.589844 -44.070312 1.480469 -39.042969 C 3.550781 -34.015625 7.394531 -31.351562 12.125 -30.761719 C 16.859375 -30.464844 21.296875 -31.945312 23.367188 -36.085938 C 25.4375 -40.226562 26.914062 -44.664062 27.804688 -49.097656 C 28.984375 -54.128906 31.648438 -57.378906 36.378906 -58.859375 C 44.957031 -61.519531 54.128906 -62.113281 63.296875 -62.703125 C 64.183594 -62.703125 65.664062 -61.816406 65.664062 -60.929688 C 66.84375 -56.789062 67.734375 -52.351562 68.324219 -47.914062 C 69.210938 -42 74.535156 -35.789062 80.15625 -35.492188 C 87.253906 -34.605469 93.464844 -39.042969 94.945312 -45.84375 C 96.128906 -52.351562 96.71875 -58.859375 97.605469 -65.367188 Z M 41.113281 -88.734375 C 44.367188 -99.085938 49.394531 -108.550781 55.605469 -118.308594 C 56.199219 -115.648438 57.085938 -113.28125 57.675781 -110.621094 C 58.5625 -104.410156 59.449219 -98.199219 60.339844 -91.984375 C 60.339844 -91.394531 59.746094 -90.210938 59.15625 -90.210938 C 53.535156 -89.324219 47.621094 -88.734375 41.703125 -88.4375 C 41.703125 -88.140625 41.410156 -88.4375 41.113281 -88.734375 Z M 34.902344 -132.210938 C 35.789062 -138.421875 39.929688 -142.859375 44.664062 -146.410156 C 47.621094 -148.773438 50.875 -151.140625 55.605469 -149.957031 C 51.464844 -147 47.621094 -144.632812 44.367188 -141.382812 C 41.113281 -138.421875 38.746094 -134.875 35.789062 -131.621094 C 35.492188 -131.917969 35.199219 -131.917969 34.902344 -132.210938 Z M 13.902344 -35.492188 C 10.351562 -35.199219 7.394531 -37.5625 6.210938 -41.410156 C 4.140625 -46.734375 5.621094 -53.535156 9.761719 -56.199219 C 7.394531 -48.210938 8.578125 -41.410156 13.902344 -35.492188 Z M 73.648438 -59.449219 C 75.421875 -52.351562 76.605469 -45.253906 84 -41.113281 C 84 -40.816406 83.703125 -40.519531 83.703125 -40.226562 C 82.816406 -40.226562 81.929688 -39.632812 81.042969 -39.929688 C 76.902344 -41.113281 75.128906 -44.070312 73.648438 -47.914062 C 72.167969 -51.464844 71.875 -55.308594 73.648438 -59.449219 Z M 73.648438 -59.449219 "/></g></g></g><g fill="#2ab7ca" fill-opacity="1"><g transform="translate(320.304613, 474.118496)"><g><path d="M 59.449219 -74.535156 C 64.773438 -78.675781 70.097656 -82.226562 74.238281 -86.664062 C 85.183594 -97.605469 88.140625 -110.621094 84.59375 -125.410156 C 82.226562 -134.578125 77.199219 -142.269531 69.804688 -148.480469 C 61.226562 -155.875 51.167969 -160.015625 39.929688 -160.605469 C 30.464844 -161.199219 21.296875 -158.535156 12.125 -156.464844 C 4.4375 -154.691406 0 -148.183594 0 -140.492188 C 0.296875 -136.058594 0.886719 -131.621094 1.183594 -127.183594 C 1.480469 -116.535156 1.480469 -105.59375 1.773438 -94.945312 C 1.773438 -90.507812 1.773438 -86.070312 1.773438 -81.632812 C 1.480469 -74.535156 0.886719 -67.4375 0.589844 -60.632812 C 0.296875 -54.421875 -0.296875 -48.507812 0.296875 -42.589844 C 0.589844 -36.085938 6.804688 -30.464844 13.308594 -29.28125 C 19.816406 -28.394531 26.324219 -31.945312 29.28125 -38.15625 C 31.054688 -41.703125 31.054688 -45.84375 31.054688 -49.691406 C 31.351562 -53.238281 31.945312 -56.789062 32.238281 -60.339844 C 33.421875 -59.746094 34.015625 -59.15625 34.308594 -58.5625 C 37.269531 -52.648438 39.632812 -46.4375 42.886719 -40.816406 C 46.4375 -35.199219 50.578125 -29.875 55.015625 -25.140625 C 58.269531 -21.589844 63 -19.226562 66.84375 -16.269531 C 69.507812 -14.492188 72.167969 -13.902344 75.128906 -13.902344 C 80.15625 -13.902344 83.703125 -16.269531 85.773438 -20.703125 C 88.140625 -24.84375 88.140625 -28.984375 85.183594 -32.832031 C 83.410156 -35.199219 81.042969 -36.972656 79.269531 -39.042969 C 70.394531 -49.984375 64.773438 -62.410156 59.449219 -74.535156 Z M 32.238281 -101.449219 C 31.351562 -112.097656 30.464844 -122.453125 29.578125 -133.097656 C 36.675781 -134.875 47.621094 -131.027344 51.761719 -124.226562 C 53.535156 -121.859375 55.015625 -118.902344 55.015625 -115.945312 C 55.308594 -113.875 53.832031 -111.210938 52.054688 -109.734375 C 46.4375 -104.703125 40.226562 -102.042969 32.238281 -101.449219 Z M 58.859375 -131.324219 C 59.746094 -130.4375 60.632812 -129.253906 61.519531 -128.367188 C 66.253906 -119.789062 62.410156 -107.070312 53.832031 -102.339844 C 53.238281 -102.042969 52.351562 -102.339844 51.464844 -102.042969 C 51.761719 -102.929688 51.761719 -103.816406 52.351562 -104.410156 C 53.832031 -106.480469 55.605469 -108.550781 57.085938 -110.914062 C 60.929688 -116.535156 61.226562 -122.453125 58.5625 -128.664062 C 58.269531 -129.253906 58.269531 -130.140625 57.972656 -130.734375 C 58.269531 -131.027344 58.5625 -131.027344 58.859375 -131.324219 Z M 58.859375 -35.789062 C 60.042969 -34.605469 61.519531 -33.421875 63 -32.238281 C 67.140625 -28.691406 71.578125 -25.4375 76.902344 -23.957031 C 77.789062 -23.660156 78.675781 -22.480469 79.269531 -21.886719 C 78.378906 -21.296875 77.199219 -20.113281 76.308594 -20.410156 C 73.648438 -21 70.691406 -21.296875 68.914062 -22.773438 C 65.070312 -26.027344 61.816406 -29.875 58.5625 -33.71875 C 58.269531 -34.015625 58.269531 -34.902344 58.269531 -35.492188 C 58.269531 -35.492188 58.5625 -35.789062 58.859375 -35.789062 Z M 7.097656 -56.789062 C 7.394531 -55.605469 7.984375 -55.015625 7.984375 -54.128906 C 8.578125 -47.621094 11.535156 -42.886719 17.15625 -39.632812 C 18.042969 -39.042969 18.339844 -38.15625 18.632812 -37.269531 C 17.746094 -36.972656 16.859375 -36.378906 16.269531 -36.675781 C 14.492188 -36.972656 12.71875 -37.5625 11.535156 -38.449219 C 6.804688 -42.589844 5.027344 -47.914062 5.324219 -54.128906 C 5.621094 -54.421875 5.621094 -55.015625 5.914062 -55.308594 C 5.914062 -55.605469 6.210938 -55.902344 7.097656 -56.789062 Z M 8.28125 -136.648438 C 7.984375 -137.535156 7.394531 -138.128906 7.097656 -139.015625 C 6.210938 -143.453125 9.464844 -150.253906 13.605469 -152.324219 C 14.195312 -152.621094 15.378906 -152.324219 16.269531 -152.324219 C 15.972656 -151.4375 15.972656 -150.550781 15.378906 -149.957031 C 11.832031 -147 10.648438 -143.15625 9.761719 -139.015625 C 9.464844 -138.421875 9.464844 -137.535156 9.167969 -136.945312 C 8.875 -136.945312 8.578125 -136.648438 8.28125 -136.648438 Z M 8.28125 -136.648438 "/></g></g></g><g fill="#2ab7ca" fill-opacity="1"><g transform="translate(416.727381, 474.118496)"><g><path d="M 81.339844 -105.59375 C 81.042969 -110.324219 80.746094 -115.058594 80.15625 -120.085938 C 77.789062 -134.28125 70.097656 -145.523438 58.269531 -154.097656 C 49.097656 -160.605469 39.042969 -162.675781 27.804688 -161.492188 C 21 -160.902344 14.492188 -159.128906 8.578125 -155.875 C 1.773438 -152.027344 -1.480469 -145.226562 1.183594 -139.015625 C 2.957031 -134.578125 3.253906 -130.4375 3.253906 -126 C 3.253906 -110.621094 3.253906 -95.238281 3.253906 -79.5625 C 3.253906 -76.308594 3.84375 -73.054688 4.4375 -69.804688 C 5.324219 -65.367188 6.507812 -60.929688 7.984375 -56.789062 C 10.351562 -49.691406 15.378906 -45.550781 22.773438 -43.773438 C 28.691406 -42.589844 33.71875 -43.773438 39.339844 -45.550781 C 49.984375 -49.097656 59.449219 -55.015625 66.84375 -63.59375 C 76.902344 -75.421875 80.746094 -89.914062 81.339844 -105.59375 Z M 30.761719 -75.128906 C 30.464844 -94.648438 29.875 -113.578125 29.578125 -132.804688 C 33.421875 -133.691406 37.5625 -133.394531 40.816406 -131.027344 C 46.734375 -126.886719 49.984375 -121.269531 50.875 -113.578125 C 52.054688 -105.59375 50.28125 -97.902344 47.621094 -90.507812 C 44.664062 -82.226562 37.859375 -78.675781 30.761719 -75.128906 Z M 53.238281 -130.734375 C 54.421875 -129.253906 55.605469 -128.070312 56.492188 -126.59375 C 61.816406 -118.015625 62.410156 -108.550781 60.042969 -98.789062 C 59.449219 -95.535156 57.675781 -92.28125 56.492188 -89.027344 C 56.199219 -88.4375 55.015625 -87.84375 53.832031 -87.550781 C 58.5625 -102.042969 58.269531 -116.238281 51.761719 -129.84375 C 52.351562 -130.140625 52.648438 -130.4375 53.238281 -130.734375 Z M 34.015625 -50.875 C 29.875 -48.210938 23.367188 -48.804688 19.519531 -52.054688 C 13.015625 -56.789062 8.875 -66.253906 10.945312 -72.761719 C 11.832031 -71.28125 12.421875 -70.097656 13.015625 -69.210938 C 15.085938 -65.367188 16.5625 -61.519531 18.929688 -58.269531 C 21.589844 -54.421875 25.734375 -52.648438 30.464844 -51.761719 C 31.351562 -51.761719 32.238281 -51.167969 34.015625 -50.875 Z M 8.578125 -138.421875 C 8.578125 -139.902344 7.984375 -141.675781 7.984375 -143.15625 C 7.984375 -147 8.578125 -150.84375 11.832031 -153.507812 C 12.71875 -154.097656 13.902344 -153.804688 15.085938 -154.097656 C 14.789062 -153.210938 14.492188 -152.324219 14.195312 -151.4375 C 13.015625 -148.183594 11.832031 -144.632812 10.648438 -141.382812 C 10.351562 -140.492188 10.054688 -139.308594 9.761719 -138.421875 C 9.464844 -138.421875 9.167969 -138.421875 8.578125 -138.421875 Z M 8.578125 -138.421875 "/></g></g></g><g fill="#2ab7ca" fill-opacity="1"><g transform="translate(506.938901, 474.118496)"><g><path d="M 24.550781 -32.535156 C 26.324219 -32.832031 27.804688 -32.832031 29.578125 -33.125 C 36.675781 -34.605469 41.410156 -39.042969 46.4375 -44.070312 C 58.269531 -56.199219 59.746094 -75.421875 53.238281 -89.621094 C 49.691406 -97.015625 44.367188 -102.632812 38.15625 -107.664062 C 36.378906 -109.140625 36.085938 -110.621094 36.675781 -112.691406 C 38.449219 -121.269531 43.183594 -127.773438 50.578125 -132.507812 C 58.269531 -137.238281 59.15625 -146.703125 52.648438 -153.210938 C 48.210938 -157.648438 42.589844 -157.945312 36.675781 -156.167969 C 26.324219 -152.917969 18.042969 -146.410156 11.535156 -137.832031 C 3.84375 -127.480469 -1.480469 -116.238281 0.589844 -102.632812 C 2.070312 -93.761719 6.507812 -86.957031 14.195312 -82.226562 C 17.449219 -80.449219 20.410156 -78.675781 23.660156 -76.902344 C 28.394531 -73.648438 28.394531 -68.621094 23.660156 -65.367188 C 20.410156 -63 16.859375 -60.929688 13.605469 -58.5625 C 7.394531 -54.128906 5.621094 -45.550781 9.464844 -39.632812 C 13.015625 -34.605469 18.339844 -32.238281 24.550781 -32.535156 Z M 18.042969 -91.691406 C 12.421875 -91.984375 7.097656 -101.15625 6.804688 -109.4375 C 6.210938 -118.605469 11.238281 -130.4375 17.449219 -131.621094 C 13.605469 -125.113281 11.238281 -118.605469 10.945312 -111.507812 C 10.648438 -104.113281 14.492188 -98.199219 18.042969 -91.691406 Z M 15.085938 -50.28125 C 15.378906 -49.984375 15.972656 -49.691406 15.972656 -49.097656 C 16.859375 -44.070312 20.703125 -42.589844 24.84375 -41.113281 C 26.324219 -40.816406 27.804688 -39.632812 28.984375 -38.746094 C 27.210938 -38.449219 25.734375 -37.5625 23.957031 -37.5625 C 18.929688 -38.15625 14.789062 -41.703125 13.902344 -46.140625 C 13.605469 -47.324219 13.902344 -48.804688 13.902344 -50.28125 C 14.195312 -50.28125 14.492188 -50.28125 15.085938 -50.28125 Z M 49.394531 -147.886719 C 51.464844 -145.226562 50.578125 -142.859375 49.394531 -140.789062 C 48.210938 -137.832031 46.4375 -135.167969 43.480469 -133.988281 C 43.183594 -134.28125 42.886719 -134.578125 42.589844 -134.875 C 44.957031 -139.015625 47.027344 -143.15625 49.394531 -147.886719 Z M 49.394531 -147.886719 "/></g></g></g><g fill="#fe4a49" fill-opacity="1"><g transform="translate(353.988532, 530.284867)"><g><path d="M 3.382812 0.71875 L 3.667969 -0.0703125 C 4.53125 -0.144531 5.035156 -0.648438 5.109375 -1.65625 C 5.179688 -2.734375 5.253906 -3.8125 5.394531 -4.894531 C 5.539062 -5.898438 5.683594 -6.980469 5.828125 -8.128906 C 6.117188 -10.289062 6.332031 -12.449219 6.476562 -14.679688 C 6.476562 -15.039062 6.546875 -15.542969 6.546875 -16.117188 L 6.546875 -26.476562 C 6.546875 -27.484375 6.546875 -28.492188 6.621094 -29.644531 C 6.621094 -30.722656 6.691406 -31.804688 6.691406 -32.808594 C 6.691406 -33.816406 6.761719 -34.753906 6.90625 -35.761719 C 6.980469 -36.695312 7.050781 -37.632812 7.125 -38.496094 C 7.195312 -39.359375 7.265625 -40.148438 7.410156 -40.941406 C 7.554688 -42.378906 7.84375 -43.460938 8.273438 -44.179688 C 8.777344 -42.738281 9.28125 -41.15625 9.785156 -39.574219 C 10.289062 -37.773438 10.722656 -36.121094 11.082031 -34.535156 C 11.222656 -33.671875 11.441406 -32.882812 11.585938 -32.164062 C 11.726562 -31.371094 11.871094 -30.652344 12.015625 -30.003906 C 12.160156 -29.285156 12.230469 -28.707031 12.304688 -28.207031 L 12.519531 -26.980469 C 12.519531 -25.976562 12.734375 -24.96875 13.09375 -23.886719 C 13.238281 -23.3125 13.382812 -22.808594 13.527344 -22.378906 C 13.671875 -21.875 13.886719 -21.371094 14.101562 -20.9375 C 14.390625 -19.859375 15.253906 -19.28125 16.621094 -19.210938 C 17.773438 -19.140625 18.78125 -19.355469 19.5 -19.859375 C 20.148438 -20.289062 20.722656 -21.152344 21.296875 -22.378906 C 21.800781 -23.457031 22.234375 -24.464844 22.59375 -25.398438 C 22.953125 -26.335938 23.242188 -27.199219 23.527344 -27.988281 C 24.03125 -29.574219 24.464844 -31.011719 24.824219 -32.378906 C 24.96875 -33.097656 25.183594 -33.816406 25.328125 -34.535156 C 25.472656 -35.257812 25.613281 -36.046875 25.757812 -36.910156 C 25.902344 -37.703125 26.046875 -38.566406 26.261719 -39.574219 C 26.476562 -40.507812 26.765625 -41.589844 27.125 -42.738281 C 27.125 -42.882812 27.269531 -43.097656 27.414062 -43.242188 C 27.484375 -43.316406 27.628906 -43.53125 27.84375 -43.820312 C 27.988281 -43.460938 28.207031 -42.308594 28.347656 -40.363281 C 28.421875 -39.359375 28.492188 -38.277344 28.492188 -37.128906 C 28.492188 -35.976562 28.566406 -34.679688 28.636719 -33.3125 C 28.636719 -30.578125 28.707031 -27.628906 28.851562 -24.464844 C 28.851562 -22.878906 28.925781 -21.296875 28.925781 -19.785156 C 28.925781 -18.203125 28.996094 -16.691406 29.070312 -15.253906 C 29.070312 -12.230469 29.140625 -9.640625 29.285156 -7.484375 C 29.285156 -6.332031 29.355469 -5.394531 29.429688 -4.605469 C 29.429688 -3.8125 29.5 -3.238281 29.644531 -2.804688 C 29.644531 -2.085938 29.933594 -1.582031 30.4375 -1.152344 C 30.867188 -0.71875 31.371094 -0.433594 31.945312 -0.289062 C 32.523438 -0.144531 33.097656 -0.144531 33.746094 -0.289062 C 34.320312 -0.433594 34.898438 -0.71875 35.472656 -1.152344 C 35.472656 -1.296875 35.542969 -1.511719 35.542969 -1.871094 L 35.542969 -13.816406 C 35.542969 -14.964844 35.472656 -16.1875 35.472656 -17.484375 C 35.472656 -18.707031 35.402344 -20.003906 35.402344 -21.371094 C 35.328125 -22.664062 35.257812 -24.03125 35.257812 -25.328125 C 35.257812 -26.621094 35.183594 -27.988281 35.113281 -29.355469 C 34.96875 -30.652344 34.898438 -31.945312 34.824219 -33.242188 C 34.753906 -34.464844 34.679688 -35.6875 34.609375 -36.984375 C 34.394531 -39.359375 34.105469 -41.515625 33.746094 -43.53125 C 33.3125 -45.546875 32.953125 -47.128906 32.59375 -48.28125 C 32.164062 -49.503906 31.585938 -50.222656 31.011719 -50.4375 C 29.574219 -50.941406 28.277344 -51.015625 27.125 -50.582031 C 25.832031 -50.152344 24.96875 -49.289062 24.390625 -47.992188 C 23.886719 -46.839844 23.382812 -45.761719 22.953125 -44.753906 C 22.519531 -43.675781 22.015625 -42.59375 21.585938 -41.589844 C 20.648438 -39.574219 20.074219 -37.34375 19.785156 -34.898438 C 19.644531 -33.890625 19.5 -32.953125 19.355469 -32.089844 C 19.140625 -31.226562 18.707031 -30.292969 18.132812 -29.285156 C 17.84375 -29.789062 17.554688 -30.507812 17.269531 -31.515625 C 17.125 -32.019531 16.980469 -32.523438 16.835938 -32.953125 C 16.691406 -33.386719 16.550781 -33.890625 16.476562 -34.394531 C 16.332031 -34.824219 16.261719 -35.328125 16.1875 -35.761719 C 16.046875 -36.191406 15.972656 -36.550781 15.902344 -36.984375 C 15.757812 -37.703125 15.6875 -38.132812 15.6875 -38.277344 C 15.542969 -38.78125 15.398438 -39.359375 15.253906 -39.933594 C 15.109375 -40.507812 14.894531 -41.085938 14.679688 -41.804688 C 14.390625 -42.453125 14.175781 -43.097656 13.957031 -43.675781 C 13.671875 -44.25 13.453125 -44.898438 13.238281 -45.472656 C 12.664062 -46.625 12.160156 -47.632812 11.726562 -48.496094 C 11.222656 -49.214844 10.792969 -49.789062 10.503906 -50.078125 C 10.074219 -50.292969 9.496094 -50.4375 8.777344 -50.582031 C 8.058594 -50.582031 7.410156 -50.511719 6.835938 -50.367188 C 6.117188 -50.078125 5.539062 -49.789062 5.109375 -49.503906 C 4.53125 -49.070312 4.171875 -48.640625 4.03125 -48.207031 C 3.382812 -46.769531 2.878906 -45.328125 2.589844 -43.746094 C 2.160156 -42.019531 1.871094 -39.933594 1.726562 -37.488281 C 1.582031 -36.191406 1.511719 -34.824219 1.4375 -33.3125 C 1.296875 -31.804688 1.222656 -30.148438 1.152344 -28.421875 C 1.007812 -24.824219 0.863281 -20.507812 0.71875 -15.46875 C 0.574219 -12.878906 0.503906 -10.863281 0.503906 -9.496094 L 0.289062 -6.261719 C 0.144531 -5.539062 0.0703125 -5.035156 0.0703125 -4.75 C -0.0703125 -4.316406 -0.144531 -4.101562 -0.144531 -3.957031 C -0.214844 -3.8125 -0.214844 -3.453125 -0.214844 -3.023438 L -0.214844 -0.933594 C -0.214844 0 0.214844 0.503906 0.933594 0.648438 C 1.511719 0.792969 2.375 0.863281 3.382812 0.71875 Z M 3.382812 0.71875 "/></g></g></g><g fill="#fe4a49" fill-opacity="1"><g transform="translate(407.808723, 530.284867)"><g><path d="M 12.230469 -4.75 L 12.519531 -4.894531 C 12.664062 -4.894531 12.878906 -5.035156 13.167969 -5.324219 C 13.3125 -5.46875 13.527344 -5.613281 13.816406 -5.828125 C 13.453125 -6.332031 13.023438 -6.691406 12.519531 -6.980469 C 11.945312 -7.195312 11.441406 -7.339844 10.9375 -7.410156 C 10.648438 -7.410156 10.359375 -7.484375 10.074219 -7.484375 L 9.210938 -7.484375 C 8.632812 -7.484375 8.058594 -7.554688 7.484375 -7.84375 L 7.410156 -24.03125 C 8.203125 -24.105469 8.921875 -24.175781 9.570312 -24.246094 C 10.144531 -24.246094 10.722656 -24.320312 11.296875 -24.390625 C 11.800781 -24.390625 12.230469 -24.464844 12.664062 -24.535156 C 13.023438 -24.535156 13.382812 -24.609375 13.671875 -24.75 C 14.175781 -24.894531 14.535156 -25.039062 14.820312 -25.328125 C 14.964844 -25.472656 15.109375 -25.757812 15.109375 -26.191406 C 14.820312 -26.476562 14.460938 -26.765625 14.03125 -26.910156 C 13.671875 -26.980469 13.167969 -27.054688 12.519531 -27.199219 C 12.230469 -27.199219 11.871094 -27.269531 11.511719 -27.269531 L 10.433594 -27.269531 C 10 -27.269531 9.570312 -27.269531 9.066406 -27.34375 C 8.5625 -27.34375 8.058594 -27.414062 7.484375 -27.558594 C 7.339844 -28.132812 7.265625 -28.78125 7.265625 -29.5 C 7.195312 -30.148438 7.125 -30.867188 7.125 -31.585938 C 7.050781 -32.304688 6.980469 -32.953125 6.980469 -33.671875 C 6.980469 -34.394531 6.980469 -35.039062 6.980469 -35.761719 L 6.980469 -39.429688 C 6.980469 -39.933594 6.980469 -40.4375 6.980469 -40.867188 C 6.980469 -41.300781 7.050781 -41.660156 7.125 -41.949219 L 8.992188 -41.949219 C 9.136719 -41.949219 9.355469 -41.949219 9.640625 -42.019531 C 10.9375 -42.164062 11.871094 -42.378906 12.304688 -42.667969 C 12.734375 -42.957031 12.878906 -43.242188 12.734375 -43.53125 C 12.589844 -43.820312 12.230469 -44.105469 11.726562 -44.394531 C 11.296875 -44.609375 10.792969 -44.753906 10.21875 -44.898438 C 8.921875 -45.042969 7.84375 -45.1875 6.835938 -45.257812 C 5.828125 -45.328125 5.035156 -45.402344 4.390625 -45.402344 C 3.023438 -45.402344 2.015625 -45.1875 1.367188 -44.828125 C 0.648438 -44.394531 0.289062 -43.746094 0.144531 -42.882812 C 0 -41.875 -0.0703125 -40.652344 -0.0703125 -39.214844 C -0.214844 -33.746094 -0.144531 -28.421875 0.144531 -23.242188 C 0.289062 -17.917969 0.648438 -12.589844 1.222656 -7.265625 C 1.367188 -5.828125 2.015625 -5.035156 3.164062 -4.894531 C 3.886719 -4.75 4.675781 -4.675781 5.394531 -4.605469 C 6.117188 -4.460938 6.90625 -4.390625 7.699219 -4.316406 C 9.136719 -4.171875 10.648438 -4.316406 12.230469 -4.75 Z M 12.230469 -4.75 "/></g></g></g><g fill="#fe4a49" fill-opacity="1"><g transform="translate(440.978655, 530.284867)"><g><path d="M 25.253906 -4.171875 L 25.757812 -4.605469 C 26.191406 -4.675781 26.550781 -4.75 26.765625 -4.820312 C 26.980469 -4.820312 27.199219 -5.109375 27.484375 -5.683594 C 27.628906 -6.117188 27.773438 -6.90625 27.917969 -8.058594 C 27.917969 -9.066406 27.917969 -10.648438 27.917969 -12.664062 C 27.84375 -14.605469 27.703125 -17.125 27.484375 -20.289062 C 27.34375 -21.800781 27.269531 -23.527344 27.125 -25.472656 C 26.980469 -27.34375 26.765625 -29.5 26.621094 -31.804688 C 26.476562 -32.667969 26.40625 -33.457031 26.40625 -34.175781 C 26.335938 -34.898438 26.261719 -35.472656 26.261719 -36.046875 C 26.191406 -36.550781 26.117188 -36.984375 26.117188 -37.414062 C 26.117188 -37.847656 26.046875 -38.207031 25.976562 -38.636719 C 25.832031 -39 25.757812 -39.359375 25.6875 -39.71875 C 25.542969 -40.003906 25.472656 -40.363281 25.398438 -40.796875 C 25.109375 -41.515625 24.75 -42.453125 24.320312 -43.601562 C 24.03125 -44.179688 23.671875 -44.609375 23.242188 -44.898438 C 22.664062 -45.1875 22.089844 -45.328125 21.515625 -45.328125 C 20.867188 -45.328125 20.21875 -45.113281 19.644531 -44.753906 C 18.996094 -44.324219 18.492188 -43.746094 18.203125 -43.027344 C 17.917969 -42.59375 17.773438 -42.164062 17.628906 -41.804688 L 16.980469 -39.863281 C 16.691406 -39 16.261719 -37.847656 15.6875 -36.40625 C 15.398438 -35.6875 15.039062 -34.824219 14.679688 -33.890625 C 14.320312 -32.882812 13.886719 -31.804688 13.453125 -30.578125 L 12.953125 -30.652344 L 12.519531 -32.234375 C 12.160156 -33.53125 11.726562 -34.824219 11.222656 -36.191406 C 10.648438 -37.488281 10.074219 -38.78125 9.425781 -39.933594 C 8.632812 -41.230469 7.84375 -42.164062 6.980469 -42.8125 C 6.117188 -43.460938 5.253906 -43.820312 4.53125 -43.890625 C 3.667969 -43.960938 3.023438 -43.746094 2.445312 -43.242188 C 1.796875 -42.667969 1.367188 -41.949219 1.222656 -41.085938 C 0.933594 -39.644531 0.792969 -37.992188 0.792969 -36.121094 C 0.792969 -35.113281 0.71875 -34.105469 0.648438 -33.097656 C 0.574219 -32.089844 0.503906 -31.011719 0.433594 -29.933594 C 0.214844 -27.917969 0.0703125 -25.613281 0 -23.097656 C -0.0703125 -21.800781 -0.0703125 -20.578125 -0.0703125 -19.355469 L -0.0703125 -12.589844 C -0.0703125 -11.585938 -0.0703125 -10.648438 0 -9.785156 C 0 -8.058594 0.0703125 -6.980469 0.214844 -6.546875 C 0.359375 -5.828125 0.648438 -5.324219 1.078125 -5.035156 C 1.511719 -4.605469 2.519531 -4.53125 4.101562 -4.675781 C 4.675781 -4.675781 5.179688 -4.894531 5.46875 -5.179688 C 5.757812 -5.46875 5.898438 -5.898438 5.898438 -6.546875 L 5.898438 -7.699219 C 5.898438 -8.128906 5.828125 -8.632812 5.828125 -9.210938 C 5.757812 -9.785156 5.683594 -10.433594 5.683594 -11.152344 C 5.683594 -11.871094 5.683594 -12.734375 5.683594 -13.742188 L 5.683594 -24.96875 C 5.683594 -25.6875 5.683594 -26.261719 5.757812 -26.695312 C 5.757812 -27.484375 5.828125 -27.917969 5.972656 -28.0625 C 5.972656 -28.0625 6.117188 -28.132812 6.402344 -28.277344 C 6.980469 -26.621094 7.410156 -25.328125 7.699219 -24.320312 C 7.988281 -23.167969 8.273438 -22.304688 8.5625 -21.730469 C 8.851562 -21.011719 9.210938 -20.507812 9.496094 -20.289062 C 9.859375 -19.929688 10.433594 -19.714844 11.222656 -19.714844 C 12.089844 -19.570312 12.878906 -19.714844 13.597656 -20.148438 C 14.246094 -20.507812 14.820312 -21.371094 15.253906 -22.738281 C 16.117188 -25.472656 16.765625 -27.628906 17.195312 -29.210938 C 17.414062 -29.933594 17.628906 -30.578125 17.773438 -31.15625 C 17.917969 -31.660156 18.058594 -32.089844 18.203125 -32.449219 C 18.347656 -33.027344 18.5625 -33.386719 18.78125 -33.601562 C 18.851562 -33.671875 19.066406 -33.746094 19.355469 -33.890625 C 19.355469 -33.386719 19.425781 -32.953125 19.425781 -32.59375 L 19.425781 -28.277344 C 19.425781 -27.988281 19.425781 -27.703125 19.5 -27.34375 C 19.5 -26.261719 19.570312 -24.75 19.714844 -22.878906 C 19.714844 -21.875 19.785156 -20.9375 19.785156 -20.003906 C 19.785156 -18.996094 19.859375 -18.058594 20.003906 -17.050781 C 20.148438 -15.039062 20.289062 -13.09375 20.433594 -11.222656 C 20.507812 -10.21875 20.578125 -9.355469 20.648438 -8.632812 C 20.648438 -7.914062 20.722656 -7.265625 20.792969 -6.761719 C 20.792969 -5.539062 21.296875 -4.75 22.234375 -4.390625 C 23.097656 -3.957031 24.105469 -3.886719 25.253906 -4.171875 Z M 25.253906 -4.171875 "/></g></g></g><g fill="#fe4a49" fill-opacity="1"><g transform="translate(486.884112, 530.284867)"><g><path d="M 8.921875 -4.75 L 8.777344 -5.035156 C 10.792969 -4.605469 12.589844 -4.75 14.03125 -5.324219 C 15.542969 -5.898438 16.835938 -6.761719 17.917969 -7.988281 C 18.921875 -9.136719 19.785156 -10.648438 20.507812 -12.519531 C 21.152344 -14.320312 21.65625 -16.1875 22.015625 -18.203125 C 22.304688 -20.21875 22.519531 -22.304688 22.664062 -24.464844 C 22.664062 -26.621094 22.664062 -28.707031 22.664062 -30.796875 C 22.59375 -31.441406 22.519531 -32.164062 22.449219 -32.882812 C 22.378906 -33.601562 22.304688 -34.320312 22.160156 -35.113281 C 21.875 -36.550781 21.441406 -37.917969 20.867188 -39.214844 C 20.289062 -40.363281 19.570312 -41.371094 18.5625 -42.308594 C 17.628906 -43.097656 16.476562 -43.53125 15.109375 -43.675781 C 14.460938 -43.675781 13.886719 -43.820312 13.453125 -44.105469 C 12.878906 -44.394531 12.304688 -44.609375 11.726562 -44.753906 C 11.082031 -44.898438 10.359375 -44.898438 9.496094 -44.753906 C 8.632812 -44.609375 7.625 -44.179688 6.402344 -43.460938 C 4.460938 -42.164062 3.164062 -40.4375 2.589844 -38.277344 C 1.367188 -34.175781 0.574219 -30.292969 0.289062 -26.621094 C -0.144531 -22.738281 -0.0703125 -19.28125 0.503906 -16.261719 C 0.933594 -13.09375 1.871094 -10.503906 3.308594 -8.492188 C 4.605469 -6.402344 6.476562 -5.179688 8.921875 -4.75 Z M 11.007812 -7.699219 L 11.222656 -7.988281 C 9.785156 -9.210938 8.777344 -10.863281 8.058594 -12.953125 C 7.265625 -15.109375 6.761719 -17.339844 6.621094 -19.644531 C 6.476562 -20.792969 6.402344 -22.015625 6.402344 -23.167969 C 6.332031 -24.320312 6.332031 -25.542969 6.476562 -26.839844 C 6.546875 -28.0625 6.621094 -29.210938 6.761719 -30.363281 C 6.835938 -31.441406 6.980469 -32.523438 7.195312 -33.53125 C 7.484375 -35.402344 7.914062 -37.128906 8.417969 -38.636719 C 8.851562 -39.933594 9.210938 -40.726562 9.640625 -41.011719 C 11.367188 -40.941406 12.734375 -40.078125 13.742188 -38.496094 C 14.75 -36.910156 15.46875 -34.898438 15.902344 -32.523438 C 16.332031 -30.21875 16.476562 -27.628906 16.40625 -24.75 C 16.332031 -23.3125 16.261719 -22.015625 16.117188 -20.722656 C 15.972656 -19.425781 15.828125 -18.132812 15.613281 -16.910156 C 15.183594 -14.535156 14.535156 -12.449219 13.742188 -10.648438 C 12.878906 -8.921875 12.015625 -7.914062 11.007812 -7.699219 Z M 11.007812 -7.699219 "/></g></g></g><g fill="#fe4a49" fill-opacity="1"><g transform="translate(527.60901, 530.284867)"><g><path d="M 6.691406 -4.390625 L 6.980469 -4.316406 C 7.769531 -4.390625 8.347656 -4.53125 8.707031 -4.820312 C 9.066406 -5.109375 9.28125 -5.539062 9.355469 -6.1875 C 9.355469 -6.761719 9.355469 -7.625 9.355469 -8.777344 C 9.28125 -9.785156 9.210938 -11.222656 9.136719 -13.023438 L 9.136719 -13.742188 C 9.136719 -13.957031 9.355469 -14.175781 9.785156 -14.460938 L 10.21875 -14.03125 L 10.433594 -13.816406 C 10.503906 -13.671875 10.648438 -13.527344 10.792969 -13.382812 C 10.9375 -13.167969 11.152344 -12.878906 11.441406 -12.589844 C 11.726562 -12.304688 12.015625 -11.871094 12.449219 -11.441406 C 12.808594 -10.9375 13.3125 -10.289062 13.886719 -9.570312 C 14.460938 -8.851562 15.109375 -7.988281 15.972656 -6.980469 C 16.550781 -6.117188 17.339844 -5.539062 18.347656 -5.253906 C 19.355469 -4.964844 20.148438 -4.820312 20.792969 -4.894531 C 21.515625 -4.964844 22.015625 -5.253906 22.449219 -5.683594 C 22.738281 -6.117188 22.738281 -6.621094 22.449219 -7.265625 C 22.304688 -7.484375 22.160156 -7.699219 22.015625 -7.914062 C 21.875 -8.128906 21.730469 -8.347656 21.65625 -8.5625 C 21.441406 -8.851562 20.9375 -9.425781 20.21875 -10.289062 C 19.5 -11.007812 18.492188 -12.160156 17.125 -13.816406 C 15.6875 -15.398438 13.742188 -17.628906 11.296875 -20.507812 C 12.878906 -22.519531 14.246094 -24.320312 15.398438 -25.902344 C 16.476562 -27.484375 17.339844 -28.851562 17.917969 -30.148438 C 18.492188 -31.441406 18.851562 -32.738281 18.996094 -34.035156 C 19.140625 -35.328125 19.140625 -36.765625 18.996094 -38.351562 C 18.707031 -41.515625 17.050781 -43.601562 14.03125 -44.609375 C 13.453125 -44.753906 12.878906 -44.96875 12.304688 -45.113281 C 11.65625 -45.257812 10.9375 -45.402344 10.21875 -45.546875 C 8.632812 -45.832031 7.195312 -45.976562 5.828125 -45.976562 C 4.390625 -45.976562 3.09375 -45.761719 2.085938 -45.328125 C 1.007812 -44.898438 0.433594 -44.105469 0.289062 -43.097656 C 0.0703125 -41.730469 -0.0703125 -40.652344 -0.144531 -39.933594 C -0.214844 -39.5 -0.289062 -39.140625 -0.289062 -38.78125 C -0.289062 -38.351562 -0.289062 -37.992188 -0.289062 -37.558594 C -0.289062 -37.128906 -0.289062 -36.625 -0.289062 -36.121094 C -0.289062 -35.542969 -0.214844 -34.96875 -0.144531 -34.394531 C -0.144531 -33.097656 0 -31.300781 0.289062 -28.996094 C 0.433594 -26.980469 0.503906 -25.183594 0.648438 -23.601562 C 0.792969 -22.015625 0.863281 -20.578125 1.007812 -19.355469 C 1.078125 -18.058594 1.152344 -16.980469 1.222656 -15.972656 C 1.296875 -14.964844 1.367188 -14.03125 1.511719 -13.238281 C 1.582031 -12.375 1.65625 -11.726562 1.65625 -11.152344 C 1.65625 -10.578125 1.726562 -10.074219 1.796875 -9.714844 C 1.796875 -8.851562 1.871094 -8.273438 2.015625 -7.988281 C 2.015625 -7.769531 2.085938 -7.625 2.085938 -7.484375 L 2.085938 -7.195312 L 2.160156 -6.546875 C 2.375 -5.394531 2.878906 -4.75 3.742188 -4.605469 C 4.605469 -4.316406 5.539062 -4.246094 6.691406 -4.390625 Z M 8.058594 -24.75 L 8.058594 -24.609375 C 7.84375 -26.261719 7.699219 -27.773438 7.554688 -29.070312 C 7.410156 -30.363281 7.265625 -31.585938 7.195312 -32.667969 C 7.050781 -33.671875 6.980469 -34.609375 6.90625 -35.472656 C 6.761719 -36.265625 6.691406 -36.984375 6.621094 -37.632812 C 6.476562 -38.207031 6.402344 -38.78125 6.402344 -39.214844 C 6.402344 -39.644531 6.332031 -40.003906 6.332031 -40.292969 C 6.261719 -40.582031 6.1875 -40.796875 6.1875 -41.011719 C 6.1875 -41.230469 6.1875 -41.445312 6.1875 -41.589844 L 6.1875 -42.738281 C 6.1875 -42.882812 6.1875 -43.097656 6.261719 -43.386719 C 6.691406 -43.242188 7.050781 -43.171875 7.484375 -43.097656 C 7.84375 -43.027344 8.203125 -42.957031 8.5625 -42.882812 C 8.851562 -42.738281 9.210938 -42.667969 9.496094 -42.59375 C 9.785156 -42.453125 10 -42.378906 10.289062 -42.308594 C 10.722656 -42.019531 11.152344 -41.660156 11.585938 -41.230469 C 11.945312 -40.652344 12.230469 -40.003906 12.449219 -39.214844 C 12.734375 -37.917969 12.808594 -36.625 12.664062 -35.328125 C 12.519531 -33.960938 12.230469 -32.667969 11.800781 -31.371094 C 11.367188 -30.148438 10.863281 -28.925781 10.144531 -27.703125 C 9.496094 -26.550781 8.777344 -25.542969 8.058594 -24.75 Z M 8.058594 -24.75 "/></g></g></g><g fill="#fe4a49" fill-opacity="1"><g transform="translate(568.333909, 530.284867)"><g><path d="M 12.664062 -4.605469 L 13.167969 -5.109375 C 13.886719 -5.109375 14.460938 -5.394531 14.75 -5.828125 C 15.039062 -6.261719 15.183594 -7.050781 15.183594 -8.203125 C 15.183594 -9.355469 15.039062 -11.007812 14.75 -13.167969 C 14.605469 -14.246094 14.460938 -15.46875 14.320312 -16.910156 C 14.175781 -18.347656 13.957031 -19.929688 13.816406 -21.800781 C 14.964844 -23.457031 15.757812 -25.183594 16.1875 -27.054688 C 16.621094 -28.925781 16.980469 -30.867188 17.269531 -32.738281 C 17.554688 -34.753906 17.917969 -36.625 18.347656 -38.496094 C 18.78125 -40.363281 18.78125 -42.308594 18.347656 -44.324219 C 17.484375 -44.609375 16.621094 -44.753906 15.902344 -44.753906 C 15.109375 -44.753906 14.320312 -44.464844 13.527344 -43.960938 C 13.382812 -43.242188 13.3125 -42.59375 13.238281 -41.875 C 13.167969 -41.15625 13.09375 -40.507812 13.023438 -39.863281 C 12.878906 -39.140625 12.808594 -38.496094 12.734375 -37.773438 C 12.664062 -37.054688 12.589844 -36.40625 12.519531 -35.6875 C 12.375 -34.96875 12.304688 -34.25 12.160156 -33.53125 L 11.726562 -31.371094 C 11.585938 -30.652344 11.367188 -29.933594 11.152344 -29.210938 C 10.9375 -28.492188 10.722656 -27.703125 10.503906 -26.980469 C 9.28125 -29.789062 8.417969 -32.304688 7.988281 -34.535156 C 7.699219 -35.6875 7.484375 -36.695312 7.265625 -37.703125 C 6.980469 -38.636719 6.761719 -39.5 6.546875 -40.363281 C 6.117188 -41.949219 5.539062 -43.097656 4.820312 -43.820312 C 4.101562 -44.539062 2.878906 -44.683594 1.222656 -44.324219 C 0.574219 -44.179688 0.144531 -43.890625 -0.0703125 -43.53125 C -0.289062 -43.171875 -0.359375 -42.738281 -0.359375 -42.234375 C -0.359375 -41.660156 -0.289062 -41.15625 -0.144531 -40.726562 C -0.0703125 -40.4375 0 -40.222656 0 -39.933594 C 0 -39.644531 0.0703125 -39.429688 0.144531 -39.214844 C 0.144531 -38.496094 0.214844 -37.773438 0.289062 -37.054688 C 0.359375 -36.335938 0.503906 -35.617188 0.648438 -34.898438 C 0.933594 -33.457031 1.296875 -32.089844 1.726562 -30.796875 C 1.941406 -30.074219 2.160156 -29.429688 2.375 -28.851562 C 2.589844 -28.207031 2.804688 -27.558594 3.09375 -26.980469 C 3.308594 -26.335938 3.527344 -25.757812 3.742188 -25.253906 C 3.957031 -24.679688 4.171875 -24.175781 4.460938 -23.671875 C 5.179688 -23.097656 5.683594 -22.378906 5.972656 -21.585938 C 6.117188 -20.792969 6.261719 -19.714844 6.402344 -18.417969 C 6.402344 -17.699219 6.476562 -16.980469 6.476562 -16.261719 C 6.476562 -15.46875 6.546875 -14.605469 6.691406 -13.671875 C 6.761719 -12.664062 6.90625 -11.65625 7.125 -10.578125 C 7.265625 -9.425781 7.554688 -8.203125 7.914062 -6.90625 C 8.128906 -5.757812 8.707031 -5.109375 9.640625 -4.820312 C 10.503906 -4.53125 11.511719 -4.460938 12.664062 -4.605469 Z M 12.664062 -4.605469 "/></g></g></g></svg>