<svg xmlns="http://www.w3.org/2000/svg" xmlns:xlink="http://www.w3.org/1999/xlink" width="1000" zoomAndPan="magnify" viewBox="0 0 750 225" height="300" preserveAspectRatio="xMidYMid meet" version="1.0"><defs><g/></defs><g fill="#2ab7ca" fill-opacity="1"><g transform="translate(6.304687, 149.000032)"><g><path d="M 28.398438 -66.398438 C 28.398438 -67.199219 28.398438 -67.796875 28.398438 -68.597656 C 28.800781 -77 30.800781 -84.996094 33.597656 -92.796875 C 35 -97.398438 37.199219 -101.199219 40.199219 -104.796875 C 44.597656 -110.796875 50.597656 -113.398438 58 -112.996094 C 62.398438 -112.597656 65.199219 -110.597656 67.398438 -106.996094 C 67.597656 -106.398438 67.796875 -105.796875 68.199219 -105.398438 C 69.597656 -102.597656 72 -101.199219 75.199219 -101.597656 C 78.199219 -101.796875 80.199219 -103.597656 81.199219 -106.398438 C 82.199219 -108.996094 82.199219 -111.597656 81.199219 -114.398438 C 78.398438 -122.796875 72.398438 -128.195312 64.597656 -131.195312 C 56.398438 -134.195312 48 -134.195312 39.800781 -131.398438 C 29.398438 -127.796875 21.597656 -120.796875 15.601562 -111.796875 C 1.601562 -90.597656 -3.398438 -67.597656 2.800781 -42.800781 C 7.199219 -24.597656 17.199219 -10.398438 35.597656 -3.800781 C 47.597656 0.398438 59 -1.199219 69.199219 -9 C 75.199219 -13.398438 79.796875 -19 83.398438 -25.398438 C 84.996094 -28 86.199219 -31 86.996094 -34 C 87.996094 -36.800781 87.996094 -39.800781 87.199219 -42.800781 C 85.996094 -47.398438 81.996094 -50.199219 77.398438 -49.199219 C 74.398438 -48.597656 72.796875 -46.398438 71.398438 -43.597656 C 68.796875 -37.398438 65.597656 -31.597656 60.398438 -26.800781 C 52.199219 -19.199219 42 -23 38 -30.199219 C 31.800781 -41.398438 29 -53.597656 28.398438 -66.398438 Z M 38.199219 -7.601562 C 29.597656 -7.601562 18.199219 -17.199219 15.601562 -24.597656 C 19.199219 -21.398438 22.398438 -18 26 -15.199219 C 29.597656 -12.398438 33.597656 -10.398438 38.199219 -7.601562 Z M 43.199219 -128.398438 C 36.800781 -124.398438 30.800781 -120.597656 24.800781 -116.796875 C 26.199219 -121.597656 37.398438 -128.796875 43.199219 -128.398438 Z M 83.597656 -45.199219 C 76.796875 -46.199219 75.597656 -40.398438 71.796875 -37.199219 C 71.796875 -38.199219 71.597656 -38.800781 71.796875 -39.398438 C 73.199219 -41.597656 74.398438 -44.199219 76.199219 -46 C 78.199219 -48.398438 80.796875 -48 83.597656 -45.199219 Z M 78.996094 -107.199219 C 76 -102.398438 69.199219 -105.199219 68 -112.398438 C 71.398438 -109.597656 73.398438 -105.199219 78.996094 -107.199219 Z M 78.996094 -107.199219 "/></g></g></g><g fill="#2ab7ca" fill-opacity="1"><g transform="translate(100.102165, 149.000032)"><g><path d="M 10.800781 -85.996094 C 9.199219 -84.597656 7.199219 -83.199219 5.800781 -81.398438 C 0.398438 -73.597656 -0.800781 -64.597656 0.601562 -55.597656 C 2 -46.800781 7 -40.398438 15.398438 -37 C 18.800781 -35.800781 22.398438 -35 26 -36 C 33.800781 -37.800781 38 -43.398438 41 -50 C 43 -54.199219 43.800781 -59.199219 44.597656 -63.796875 C 45.597656 -69 45.800781 -74.398438 44.597656 -79.597656 C 42.800781 -87.996094 39.398438 -95.398438 31.597656 -99.996094 C 25.398438 -103.796875 18.800781 -105.398438 11.800781 -103.199219 C 6.601562 -101.398438 4 -95.796875 6.398438 -91.199219 C 7.398438 -89.199219 9.398438 -87.597656 10.800781 -85.996094 Z M 21.597656 -83.597656 C 24.800781 -82.398438 26.199219 -79.796875 27.199219 -77.199219 C 28.800781 -72 28.597656 -67 27.597656 -61.796875 C 27.199219 -58.597656 26.199219 -55.597656 23.800781 -53.199219 C 22.597656 -52 22 -52.199219 20.800781 -53.199219 C 18.398438 -55.597656 18.199219 -58.796875 18.398438 -61.796875 C 18.597656 -64.597656 19 -67.597656 19.597656 -70.398438 C 19.597656 -71 20 -71.796875 20.398438 -72.398438 C 23 -75.796875 24 -79.398438 21.597656 -83.597656 Z M 5.398438 -59.398438 C 5.601562 -59 5.800781 -58.597656 5.800781 -58.199219 C 7.199219 -52.398438 10.398438 -48 14.800781 -44.199219 C 17.199219 -42 20.199219 -41.199219 23.398438 -40.597656 C 24 -40.398438 24.597656 -39.800781 25 -39.398438 C 24.398438 -39.199219 23.800781 -38.597656 23.199219 -38.597656 C 18 -38.597656 13.601562 -40.597656 10.199219 -44.398438 C 7.199219 -48 5.199219 -52 4.601562 -56.597656 C 4.601562 -57.398438 4.601562 -58.398438 4.601562 -59.398438 C 5 -59.398438 5.199219 -59.398438 5.398438 -59.398438 Z M 30.800781 -60.398438 C 30.800781 -67.199219 30.800781 -73.597656 30.800781 -79.996094 C 34.199219 -77.796875 34.597656 -63.199219 30.800781 -60.398438 Z M 14.199219 -88.996094 C 11.800781 -89.597656 10.199219 -91.199219 9.601562 -93.597656 C 9 -95.796875 9.398438 -98.199219 11.199219 -99.996094 C 11.601562 -100.199219 12.199219 -100.199219 12.800781 -100.398438 C 12.800781 -99.996094 12.800781 -99.398438 12.601562 -98.996094 C 11.398438 -96.398438 12.199219 -93.996094 13.601562 -91.597656 C 14 -90.796875 14.398438 -89.996094 14.800781 -89.398438 C 14.601562 -89.199219 14.398438 -88.996094 14.199219 -88.996094 Z M 14.199219 -88.996094 "/></g></g></g><g fill="#2ab7ca" fill-opacity="1"><g transform="translate(151.700803, 149.000032)"><g><path d="M 60.199219 -84.199219 C 60.398438 -84.199219 60.398438 -84.199219 60.597656 -84.199219 C 60.597656 -83.398438 60.597656 -82.597656 60.597656 -81.796875 C 60.597656 -76.398438 60.199219 -71 60.398438 -65.597656 C 60.398438 -57.597656 60.597656 -49.398438 61.199219 -41.398438 C 61.597656 -33.597656 70 -30.398438 75.597656 -34.199219 C 78.796875 -36.597656 79.796875 -40 79.996094 -43.597656 C 80.796875 -49.398438 81.199219 -55 81.199219 -60.796875 C 81.597656 -72.199219 81.597656 -83.398438 78.597656 -94.398438 C 77.597656 -98.199219 76.199219 -101.796875 73.199219 -104.398438 C 67.398438 -109.597656 60.796875 -109.996094 54.398438 -105.398438 C 48.796875 -101.597656 45 -96.199219 42.199219 -90.199219 C 41.398438 -88.597656 40.597656 -86.996094 39.800781 -85.398438 C 38.398438 -87.996094 37.199219 -90.199219 35.597656 -92.398438 C 31.199219 -98.398438 24.800781 -100.398438 17.800781 -96.996094 C 11.601562 -93.996094 8.398438 -87.996094 5.398438 -82.199219 C 1.601562 -74.796875 1 -66.796875 0.398438 -59 C 0 -54 0 -49 0.398438 -44 C 1 -36.597656 7.398438 -32.199219 14.398438 -34.800781 C 18.597656 -36.199219 21 -40.199219 21 -45.199219 C 21 -50.597656 20.597656 -56.199219 20.597656 -61.597656 C 20.800781 -66.199219 21.398438 -70.796875 23.199219 -75.199219 C 23.398438 -75.597656 23.800781 -76 24.398438 -76.796875 C 25.597656 -72.796875 27 -69.398438 27.800781 -65.796875 C 29 -59.796875 29.800781 -53.597656 30.800781 -47.398438 C 31.597656 -43.398438 35.199219 -40 39 -40 C 42.800781 -40 46.597656 -42.800781 47.796875 -46.597656 C 50.199219 -55.597656 52.597656 -64.597656 55 -73.398438 C 56.199219 -77.199219 57.796875 -80.996094 60.199219 -84.199219 Z M 34.597656 -63 C 34.800781 -61.796875 35.199219 -60.796875 35.398438 -59.796875 C 36.199219 -57 36.597656 -54.199219 37.597656 -51.597656 C 38.199219 -49.597656 39.597656 -48 40.597656 -46.199219 C 40.800781 -45.800781 41.199219 -45.398438 41.398438 -45 C 40.800781 -44.800781 40.199219 -44.199219 39.800781 -44.398438 C 38.800781 -44.800781 37.398438 -45.199219 37 -46 C 35.800781 -47.597656 34.800781 -49.398438 34.597656 -51.199219 C 33.800781 -55 33.800781 -58.796875 33.398438 -62.796875 C 33.800781 -62.796875 34.199219 -62.796875 34.597656 -63 Z M 26 -94.199219 C 23 -92.597656 19.597656 -91.398438 17.199219 -89.398438 C 14.601562 -87.199219 12.800781 -84.199219 10.601562 -81.398438 C 9.601562 -84.996094 14.199219 -91.597656 19.199219 -94.199219 C 22.398438 -95.796875 24.800781 -95.796875 26 -94.199219 Z M 65.597656 -52 C 66 -51 66.199219 -50.199219 66.398438 -49.199219 C 66.796875 -47.398438 67 -45.597656 67.597656 -44 C 68.398438 -41.199219 70.199219 -39.398438 73 -38.597656 C 73.597656 -38.398438 73.796875 -38 74.199219 -37.597656 C 73.796875 -37.199219 73.398438 -36.800781 72.796875 -36.597656 C 70.796875 -36.398438 69 -37 67.597656 -38.199219 C 64.398438 -41 63.199219 -47.796875 65 -51.796875 C 65.199219 -51.796875 65.398438 -51.796875 65.597656 -52 Z M 46.800781 -90.398438 C 49.398438 -95.796875 51.597656 -101.199219 57.597656 -103.796875 C 59.398438 -104.398438 61.199219 -104.398438 63 -103.398438 C 59.796875 -101.597656 56.398438 -100.199219 53.796875 -97.796875 C 51.398438 -95.597656 49.597656 -92.597656 47.597656 -89.796875 C 47.398438 -89.996094 47.199219 -90.199219 46.800781 -90.398438 Z M 12.800781 -37.800781 C 11.398438 -36.800781 10 -37 8.800781 -37.597656 C 5 -39.800781 2.800781 -46 4.601562 -50 C 4.601562 -50.199219 4.800781 -50.199219 5.199219 -50.398438 C 6 -48 6.398438 -45.398438 7.601562 -43.398438 C 8.800781 -41.199219 11 -39.597656 12.800781 -37.800781 Z M 12.800781 -37.800781 "/></g></g></g><g fill="#2ab7ca" fill-opacity="1"><g transform="translate(239.098471, 149.000032)"><g><path d="M 44.800781 -47 C 45 -47 45 -47 45.199219 -47 C 45.199219 -45 45 -43.199219 45.199219 -41.199219 C 45.597656 -39 45.597656 -36.398438 46.398438 -34.398438 C 49 -27.597656 57.199219 -25 62.597656 -30.800781 C 65.398438 -33.597656 66 -37.398438 66.199219 -41.199219 C 66.597656 -49.199219 66.597656 -57.398438 66.597656 -65.597656 C 66.597656 -71 66.398438 -76.398438 66.199219 -81.796875 C 66.199219 -86.398438 65.199219 -90.796875 62.796875 -94.996094 C 58.796875 -101.996094 49.398438 -103.996094 44 -96.199219 C 41.597656 -92.796875 39.800781 -88.796875 38.398438 -84.996094 C 34.800781 -76 31.800781 -66.796875 28.597656 -57.796875 C 27.597656 -55.199219 26.398438 -52.796875 25.398438 -50.398438 C 25.199219 -50.398438 25 -50.398438 24.597656 -50.398438 C 24 -52.199219 23 -53.796875 22.597656 -55.597656 C 20.597656 -63.796875 19 -72.199219 18.199219 -80.597656 C 18 -84.199219 16.199219 -86.996094 12.601562 -87.996094 C 7.601562 -89.597656 2.601562 -87.796875 1.199219 -81.398438 C 0.398438 -77.398438 0 -73.398438 0 -69.398438 C 0 -62.398438 0.199219 -55.398438 0.800781 -48.597656 C 1.398438 -40.800781 4.601562 -34.398438 10.601562 -29.199219 C 15.601562 -24.597656 23.597656 -23.199219 29.597656 -25.800781 C 35.800781 -28.597656 39.398438 -33.597656 41.800781 -39.597656 C 43 -42.199219 43.800781 -44.597656 44.800781 -47 Z M 28 -30.199219 C 26.800781 -29.800781 25.597656 -29 24.398438 -29 C 18.398438 -28.398438 14 -31.199219 10.800781 -35.800781 C 9.199219 -38.199219 8.199219 -41 7 -43.597656 C 6.800781 -44 7 -44.597656 7 -45.199219 C 7.199219 -45.199219 7.398438 -45.398438 7.601562 -45.398438 C 8.199219 -44.597656 8.601562 -44 9 -43.199219 C 10.800781 -39.597656 13.199219 -36.398438 16.398438 -33.800781 C 19.199219 -31.800781 22.398438 -31.199219 25.800781 -31 C 26.398438 -31 26.800781 -31 27.398438 -31 C 27.398438 -31 27.597656 -30.800781 27.597656 -30.800781 C 27.800781 -30.597656 27.800781 -30.398438 28 -30.199219 Z M 42.800781 -83.996094 C 42.800781 -85.199219 42.597656 -86.199219 42.800781 -87.199219 C 44.199219 -91.199219 46.199219 -94.597656 50 -96.597656 C 51.199219 -97.199219 52.597656 -97.398438 54 -97.597656 C 54.398438 -97.597656 54.796875 -97.199219 55.199219 -96.996094 C 55 -96.597656 54.597656 -96.199219 54.199219 -95.796875 C 54.199219 -95.796875 54.199219 -95.796875 54 -95.796875 C 50 -94.199219 47.597656 -90.996094 45.800781 -87.398438 C 45.199219 -86.199219 44.398438 -84.996094 43.597656 -83.796875 C 43.398438 -83.996094 43 -83.996094 42.800781 -83.996094 Z M 50.398438 -47 C 50.597656 -46 50.796875 -45.199219 51 -44.199219 C 51.796875 -41.800781 52.199219 -39.199219 53.199219 -36.800781 C 53.796875 -35.597656 55.398438 -34.800781 56.597656 -33.597656 C 57 -33.398438 57.199219 -33 57.597656 -32.597656 C 57 -32.398438 56.597656 -32 56.199219 -32 C 54 -32 52.398438 -33.199219 51 -35 C 48.796875 -38.199219 48.796875 -42 49 -45.800781 C 49 -46.199219 49.398438 -46.597656 49.796875 -47 C 50 -47 50.199219 -47 50.398438 -47 Z M 10.800781 -85.199219 C 9.601562 -83.398438 8.398438 -81.597656 7.398438 -79.796875 C 7 -78.996094 7.199219 -78 6.800781 -77.199219 C 6.601562 -76.597656 6.199219 -76.199219 5.800781 -75.796875 C 5.398438 -76.199219 5 -76.796875 4.800781 -77.199219 C 4.398438 -80.199219 5.199219 -82.796875 7.398438 -84.796875 C 8.601562 -85.996094 9.800781 -85.996094 10.800781 -85.199219 Z M 10.800781 -85.199219 "/></g></g></g><g fill="#2ab7ca" fill-opacity="1"><g transform="translate(311.696536, 149.000032)"><g><path d="M 23 -58.199219 C 23.199219 -58.199219 23.398438 -58.199219 23.398438 -58.398438 C 24 -57.796875 24.398438 -57.199219 24.800781 -56.597656 C 26 -54.398438 27.199219 -52.199219 28.800781 -50.199219 C 31.800781 -46.199219 34.199219 -41.597656 38.199219 -38.199219 C 43 -34.398438 49.199219 -34.597656 53.199219 -39.199219 C 57 -43.199219 57.796875 -48.597656 58.597656 -53.796875 C 59.796875 -64 62 -86.597656 60.398438 -99.796875 C 59.597656 -104.796875 55.796875 -107.996094 50.796875 -108.597656 C 47 -108.996094 42.199219 -105.796875 40.800781 -101.199219 C 39.800781 -97.796875 39 -94.199219 38.800781 -90.597656 C 38.398438 -84.199219 38.398438 -77.597656 38.398438 -71.199219 C 38.199219 -70.597656 38.199219 -70 38.199219 -69.597656 C 38 -69.398438 37.800781 -69.398438 37.597656 -69.199219 C 35.199219 -73 32.597656 -77 30.199219 -80.796875 C 26.199219 -86.796875 22.398438 -92.796875 18 -98.597656 C 15.800781 -101.796875 12.398438 -103.597656 8.398438 -102.398438 C 5 -101.398438 2.800781 -98.996094 2 -95.597656 C 1.199219 -91.796875 0.601562 -87.996094 0.398438 -84.199219 C 0.199219 -78.199219 0 -72.398438 0 -66.597656 C 0 -59.199219 0 -51.796875 0 -44.597656 C 0 -43.199219 0.199219 -42 0.398438 -40.800781 C 1.601562 -36 6 -32.398438 10.601562 -32.398438 C 15.601562 -32.398438 19 -35 21 -39.800781 C 23 -44.398438 22.398438 -49.199219 23 -53.796875 C 23.199219 -55.398438 23 -56.796875 23 -58.199219 Z M 51 -41.800781 C 51 -39.800781 49.796875 -39.597656 48.398438 -39.398438 C 44.800781 -38.800781 41.597656 -40.398438 39.398438 -43 C 37.597656 -45.199219 36.199219 -47.796875 34.597656 -50.199219 C 34.398438 -50.597656 34.597656 -51.199219 34.597656 -51.597656 C 35 -51.398438 35.597656 -51.398438 36 -51 C 37 -49.796875 38.199219 -48.597656 39.199219 -47.199219 C 41.800781 -43.597656 45.398438 -41.398438 50 -41.800781 C 50.199219 -42 50.597656 -41.800781 51 -41.800781 Z M 44.398438 -88.597656 C 42 -92.796875 44.199219 -101.199219 48.199219 -104.199219 C 50.199219 -105.796875 52.199219 -105.996094 53.398438 -104.597656 C 46.398438 -101.796875 46.398438 -94.597656 44.398438 -88.597656 Z M 4.398438 -49.597656 C 4.601562 -48.796875 5 -48.199219 5 -47.597656 C 6 -42.800781 8.199219 -39.199219 12.800781 -37.398438 C 13.199219 -37.199219 13.398438 -36.597656 13.800781 -36.199219 C 13.199219 -36 12.601562 -35.597656 12.199219 -35.597656 C 8.199219 -35.597656 3.800781 -40 3.398438 -44.398438 C 3.199219 -45.597656 3.199219 -46.800781 3.199219 -48 C 3.199219 -48.597656 3.601562 -49 3.800781 -49.398438 C 4 -49.398438 4.199219 -49.597656 4.398438 -49.597656 Z M 12 -97.796875 C 9 -96.199219 7.398438 -93.597656 6.800781 -90.398438 C 6.800781 -89.597656 6.601562 -88.796875 6.199219 -87.996094 C 6 -87.597656 5.398438 -87.199219 5 -86.796875 C 4.800781 -87.199219 4.398438 -87.597656 4.398438 -87.996094 C 3.601562 -91.597656 5.601562 -96.398438 8.800781 -98.199219 C 10 -98.996094 10.800781 -98.996094 12 -97.796875 Z M 12 -97.796875 "/></g></g></g><g fill="#2ab7ca" fill-opacity="1"><g transform="translate(378.694732, 149.000032)"><g><path d="M 22.398438 -79.398438 C 21.800781 -84.597656 21.398438 -89.996094 20 -95.199219 C 18.800781 -100.398438 15.601562 -102.597656 11.199219 -102.597656 C 7 -102.796875 3 -99.597656 2.199219 -94.796875 C 2 -93.597656 2 -92.199219 1.800781 -90.796875 C 1.199219 -83.996094 0.199219 -77 0 -70 C 0 -61.796875 0.601562 -53.597656 1.199219 -45.398438 C 1.398438 -42 1.601562 -38.800781 2.199219 -35.398438 C 2.800781 -32.597656 3.601562 -30 6.199219 -28.398438 C 11.398438 -25.199219 17.199219 -27.199219 19 -33.199219 C 20 -37 20.398438 -41.199219 21 -45 Z M 5.800781 -86.796875 C 5.199219 -87.398438 5 -87.597656 5 -87.996094 C 3.601562 -91.597656 7 -98.398438 10.601562 -99.398438 C 11.199219 -99.597656 12 -99.597656 12.601562 -99.398438 C 13 -99.398438 13.398438 -99.199219 13.398438 -98.796875 C 13.398438 -98.597656 13.199219 -97.996094 13 -97.996094 C 8.800781 -96.796875 8 -92.796875 6.601562 -89.597656 C 6.398438 -88.796875 6.199219 -87.996094 5.800781 -86.796875 Z M 6 -41 C 6.601562 -36.800781 8.800781 -33.800781 12.199219 -31.199219 C 10 -30 8.601562 -30.597656 7.398438 -31.800781 C 5.601562 -33.398438 3.800781 -38.398438 6 -41 Z M 6 -41 "/></g></g></g><g fill="#2ab7ca" fill-opacity="1"><g transform="translate(407.093978, 149.000032)"><g><path d="M 28.398438 -66.398438 C 28.398438 -67.199219 28.398438 -67.796875 28.398438 -68.597656 C 28.800781 -77 30.800781 -84.996094 33.597656 -92.796875 C 35 -97.398438 37.199219 -101.199219 40.199219 -104.796875 C 44.597656 -110.796875 50.597656 -113.398438 58 -112.996094 C 62.398438 -112.597656 65.199219 -110.597656 67.398438 -106.996094 C 67.597656 -106.398438 67.796875 -105.796875 68.199219 -105.398438 C 69.597656 -102.597656 72 -101.199219 75.199219 -101.597656 C 78.199219 -101.796875 80.199219 -103.597656 81.199219 -106.398438 C 82.199219 -108.996094 82.199219 -111.597656 81.199219 -114.398438 C 78.398438 -122.796875 72.398438 -128.195312 64.597656 -131.195312 C 56.398438 -134.195312 48 -134.195312 39.800781 -131.398438 C 29.398438 -127.796875 21.597656 -120.796875 15.601562 -111.796875 C 1.601562 -90.597656 -3.398438 -67.597656 2.800781 -42.800781 C 7.199219 -24.597656 17.199219 -10.398438 35.597656 -3.800781 C 47.597656 0.398438 59 -1.199219 69.199219 -9 C 75.199219 -13.398438 79.796875 -19 83.398438 -25.398438 C 84.996094 -28 86.199219 -31 86.996094 -34 C 87.996094 -36.800781 87.996094 -39.800781 87.199219 -42.800781 C 85.996094 -47.398438 81.996094 -50.199219 77.398438 -49.199219 C 74.398438 -48.597656 72.796875 -46.398438 71.398438 -43.597656 C 68.796875 -37.398438 65.597656 -31.597656 60.398438 -26.800781 C 52.199219 -19.199219 42 -23 38 -30.199219 C 31.800781 -41.398438 29 -53.597656 28.398438 -66.398438 Z M 38.199219 -7.601562 C 29.597656 -7.601562 18.199219 -17.199219 15.601562 -24.597656 C 19.199219 -21.398438 22.398438 -18 26 -15.199219 C 29.597656 -12.398438 33.597656 -10.398438 38.199219 -7.601562 Z M 43.199219 -128.398438 C 36.800781 -124.398438 30.800781 -120.597656 24.800781 -116.796875 C 26.199219 -121.597656 37.398438 -128.796875 43.199219 -128.398438 Z M 83.597656 -45.199219 C 76.796875 -46.199219 75.597656 -40.398438 71.796875 -37.199219 C 71.796875 -38.199219 71.597656 -38.800781 71.796875 -39.398438 C 73.199219 -41.597656 74.398438 -44.199219 76.199219 -46 C 78.199219 -48.398438 80.796875 -48 83.597656 -45.199219 Z M 78.996094 -107.199219 C 76 -102.398438 69.199219 -105.199219 68 -112.398438 C 71.398438 -109.597656 73.398438 -105.199219 78.996094 -107.199219 Z M 78.996094 -107.199219 "/></g></g></g><g fill="#2ab7ca" fill-opacity="1"><g transform="translate(500.891444, 149.000032)"><g><path d="M 66 -44.199219 C 65.796875 -44.199219 65.796875 -44.199219 65.796875 -44.199219 C 65.597656 -46.597656 65.597656 -49 65.398438 -51.398438 C 64.597656 -56.597656 63.597656 -61.796875 63 -67.199219 C 62.398438 -74.597656 60.597656 -81.996094 58.199219 -89.199219 C 56.398438 -94.398438 53.597656 -98.796875 49.597656 -102.199219 C 46.398438 -104.996094 42.597656 -106.597656 38.597656 -106.398438 C 32 -105.996094 27 -102.597656 23.398438 -96.996094 C 17.398438 -88.199219 13.199219 -78.398438 10 -68.199219 C 6.601562 -57.796875 4 -47 1 -36.597656 C 0.199219 -33.199219 -0.398438 -29.800781 1 -26.398438 C 2.398438 -23 5 -21.199219 8.199219 -20.800781 C 11.398438 -20.597656 14.398438 -21.597656 15.800781 -24.398438 C 17.199219 -27.199219 18.199219 -30.199219 18.800781 -33.199219 C 19.597656 -36.597656 21.398438 -38.800781 24.597656 -39.800781 C 30.398438 -41.597656 36.597656 -42 42.800781 -42.398438 C 43.398438 -42.398438 44.398438 -41.800781 44.398438 -41.199219 C 45.199219 -38.398438 45.800781 -35.398438 46.199219 -32.398438 C 46.800781 -28.398438 50.398438 -24.199219 54.199219 -24 C 59 -23.398438 63.199219 -26.398438 64.199219 -31 C 65 -35.398438 65.398438 -39.800781 66 -44.199219 Z M 27.800781 -60 C 30 -67 33.398438 -73.398438 37.597656 -79.996094 C 38 -78.199219 38.597656 -76.597656 39 -74.796875 C 39.597656 -70.597656 40.199219 -66.398438 40.800781 -62.199219 C 40.800781 -61.796875 40.398438 -61 40 -61 C 36.199219 -60.398438 32.199219 -60 28.199219 -59.796875 C 28.199219 -59.597656 28 -59.796875 27.800781 -60 Z M 23.597656 -89.398438 C 24.199219 -93.597656 27 -96.597656 30.199219 -98.996094 C 32.199219 -100.597656 34.398438 -102.199219 37.597656 -101.398438 C 34.800781 -99.398438 32.199219 -97.796875 30 -95.597656 C 27.800781 -93.597656 26.199219 -91.199219 24.199219 -88.996094 C 24 -89.199219 23.800781 -89.199219 23.597656 -89.398438 Z M 9.398438 -24 C 7 -23.800781 5 -25.398438 4.199219 -28 C 2.800781 -31.597656 3.800781 -36.199219 6.601562 -38 C 5 -32.597656 5.800781 -28 9.398438 -24 Z M 49.796875 -40.199219 C 51 -35.398438 51.796875 -30.597656 56.796875 -27.800781 C 56.796875 -27.597656 56.597656 -27.398438 56.597656 -27.199219 C 56 -27.199219 55.398438 -26.800781 54.796875 -27 C 52 -27.800781 50.796875 -29.800781 49.796875 -32.398438 C 48.796875 -34.800781 48.597656 -37.398438 49.796875 -40.199219 Z M 49.796875 -40.199219 "/></g></g></g><g fill="#2ab7ca" fill-opacity="1"><g transform="translate(572.889518, 149.000032)"><g><path d="M 40.199219 -50.398438 C 43.800781 -53.199219 47.398438 -55.597656 50.199219 -58.597656 C 57.597656 -66 59.597656 -74.796875 57.199219 -84.796875 C 55.597656 -90.996094 52.199219 -96.199219 47.199219 -100.398438 C 41.398438 -105.398438 34.597656 -108.199219 27 -108.597656 C 20.597656 -108.996094 14.398438 -107.199219 8.199219 -105.796875 C 3 -104.597656 0 -100.199219 0 -94.996094 C 0.199219 -91.996094 0.601562 -88.996094 0.800781 -85.996094 C 1 -78.796875 1 -71.398438 1.199219 -64.199219 C 1.199219 -61.199219 1.199219 -58.199219 1.199219 -55.199219 C 1 -50.398438 0.601562 -45.597656 0.398438 -41 C 0.199219 -36.800781 -0.199219 -32.800781 0.199219 -28.800781 C 0.398438 -24.398438 4.601562 -20.597656 9 -19.800781 C 13.398438 -19.199219 17.800781 -21.597656 19.800781 -25.800781 C 21 -28.199219 21 -31 21 -33.597656 C 21.199219 -36 21.597656 -38.398438 21.800781 -40.800781 C 22.597656 -40.398438 23 -40 23.199219 -39.597656 C 25.199219 -35.597656 26.800781 -31.398438 29 -27.597656 C 31.398438 -23.800781 34.199219 -20.199219 37.199219 -17 C 39.398438 -14.601562 42.597656 -13 45.199219 -11 C 47 -9.800781 48.796875 -9.398438 50.796875 -9.398438 C 54.199219 -9.398438 56.597656 -11 58 -14 C 59.597656 -16.800781 59.597656 -19.597656 57.597656 -22.199219 C 56.398438 -23.800781 54.796875 -25 53.597656 -26.398438 C 47.597656 -33.800781 43.800781 -42.199219 40.199219 -50.398438 Z M 21.800781 -68.597656 C 21.199219 -75.796875 20.597656 -82.796875 20 -89.996094 C 24.800781 -91.199219 32.199219 -88.597656 35 -83.996094 C 36.199219 -82.398438 37.199219 -80.398438 37.199219 -78.398438 C 37.398438 -77 36.398438 -75.199219 35.199219 -74.199219 C 31.398438 -70.796875 27.199219 -69 21.800781 -68.597656 Z M 39.800781 -88.796875 C 40.398438 -88.199219 41 -87.398438 41.597656 -86.796875 C 44.800781 -80.996094 42.199219 -72.398438 36.398438 -69.199219 C 36 -69 35.398438 -69.199219 34.800781 -69 C 35 -69.597656 35 -70.199219 35.398438 -70.597656 C 36.398438 -72 37.597656 -73.398438 38.597656 -75 C 41.199219 -78.796875 41.398438 -82.796875 39.597656 -86.996094 C 39.398438 -87.398438 39.398438 -87.996094 39.199219 -88.398438 C 39.398438 -88.597656 39.597656 -88.597656 39.800781 -88.796875 Z M 39.800781 -24.199219 C 40.597656 -23.398438 41.597656 -22.597656 42.597656 -21.800781 C 45.398438 -19.398438 48.398438 -17.199219 52 -16.199219 C 52.597656 -16 53.199219 -15.199219 53.597656 -14.800781 C 53 -14.398438 52.199219 -13.601562 51.597656 -13.800781 C 49.796875 -14.199219 47.796875 -14.398438 46.597656 -15.398438 C 44 -17.597656 41.800781 -20.199219 39.597656 -22.800781 C 39.398438 -23 39.398438 -23.597656 39.398438 -24 C 39.398438 -24 39.597656 -24.199219 39.800781 -24.199219 Z M 4.800781 -38.398438 C 5 -37.597656 5.398438 -37.199219 5.398438 -36.597656 C 5.800781 -32.199219 7.800781 -29 11.601562 -26.800781 C 12.199219 -26.398438 12.398438 -25.800781 12.601562 -25.199219 C 12 -25 11.398438 -24.597656 11 -24.800781 C 9.800781 -25 8.601562 -25.398438 7.800781 -26 C 4.601562 -28.800781 3.398438 -32.398438 3.601562 -36.597656 C 3.800781 -36.800781 3.800781 -37.199219 4 -37.398438 C 4 -37.597656 4.199219 -37.800781 4.800781 -38.398438 Z M 5.601562 -92.398438 C 5.398438 -92.996094 5 -93.398438 4.800781 -93.996094 C 4.199219 -96.996094 6.398438 -101.597656 9.199219 -102.996094 C 9.601562 -103.199219 10.398438 -102.996094 11 -102.996094 C 10.800781 -102.398438 10.800781 -101.796875 10.398438 -101.398438 C 8 -99.398438 7.199219 -96.796875 6.601562 -93.996094 C 6.398438 -93.597656 6.398438 -92.996094 6.199219 -92.597656 C 6 -92.597656 5.800781 -92.398438 5.601562 -92.398438 Z M 5.601562 -92.398438 "/></g></g></g><g fill="#2ab7ca" fill-opacity="1"><g transform="translate(638.087788, 149.000032)"><g><path d="M 55 -71.398438 C 54.796875 -74.597656 54.597656 -77.796875 54.199219 -81.199219 C 52.597656 -90.796875 47.398438 -98.398438 39.398438 -104.199219 C 33.199219 -108.597656 26.398438 -109.996094 18.800781 -109.199219 C 14.199219 -108.796875 9.800781 -107.597656 5.800781 -105.398438 C 1.199219 -102.796875 -1 -98.199219 0.800781 -93.996094 C 2 -90.996094 2.199219 -88.199219 2.199219 -85.199219 C 2.199219 -74.796875 2.199219 -64.398438 2.199219 -53.796875 C 2.199219 -51.597656 2.601562 -49.398438 3 -47.199219 C 3.601562 -44.199219 4.398438 -41.199219 5.398438 -38.398438 C 7 -33.597656 10.398438 -30.800781 15.398438 -29.597656 C 19.398438 -28.800781 22.800781 -29.597656 26.597656 -30.800781 C 33.800781 -33.199219 40.199219 -37.199219 45.199219 -43 C 52 -51 54.597656 -60.796875 55 -71.398438 Z M 20.800781 -50.796875 C 20.597656 -64 20.199219 -76.796875 20 -89.796875 C 22.597656 -90.398438 25.398438 -90.199219 27.597656 -88.597656 C 31.597656 -85.796875 33.800781 -81.996094 34.398438 -76.796875 C 35.199219 -71.398438 34 -66.199219 32.199219 -61.199219 C 30.199219 -55.597656 25.597656 -53.199219 20.800781 -50.796875 Z M 36 -88.398438 C 36.800781 -87.398438 37.597656 -86.597656 38.199219 -85.597656 C 41.800781 -79.796875 42.199219 -73.398438 40.597656 -66.796875 C 40.199219 -64.597656 39 -62.398438 38.199219 -60.199219 C 38 -59.796875 37.199219 -59.398438 36.398438 -59.199219 C 39.597656 -69 39.398438 -78.597656 35 -87.796875 C 35.398438 -87.996094 35.597656 -88.199219 36 -88.398438 Z M 23 -34.398438 C 20.199219 -32.597656 15.800781 -33 13.199219 -35.199219 C 8.800781 -38.398438 6 -44.800781 7.398438 -49.199219 C 8 -48.199219 8.398438 -47.398438 8.800781 -46.800781 C 10.199219 -44.199219 11.199219 -41.597656 12.800781 -39.398438 C 14.601562 -36.800781 17.398438 -35.597656 20.597656 -35 C 21.199219 -35 21.800781 -34.597656 23 -34.398438 Z M 5.800781 -93.597656 C 5.800781 -94.597656 5.398438 -95.796875 5.398438 -96.796875 C 5.398438 -99.398438 5.800781 -101.996094 8 -103.796875 C 8.601562 -104.199219 9.398438 -103.996094 10.199219 -104.199219 C 10 -103.597656 9.800781 -102.996094 9.601562 -102.398438 C 8.800781 -100.199219 8 -97.796875 7.199219 -95.597656 C 7 -94.996094 6.800781 -94.199219 6.601562 -93.597656 C 6.398438 -93.597656 6.199219 -93.597656 5.800781 -93.597656 Z M 5.800781 -93.597656 "/></g></g></g><g fill="#2ab7ca" fill-opacity="1"><g transform="translate(699.086168, 149.000032)"><g><path d="M 16.597656 -22 C 17.800781 -22.199219 18.800781 -22.199219 20 -22.398438 C 24.800781 -23.398438 28 -26.398438 31.398438 -29.800781 C 39.398438 -38 40.398438 -51 36 -60.597656 C 33.597656 -65.597656 30 -69.398438 25.800781 -72.796875 C 24.597656 -73.796875 24.398438 -74.796875 24.800781 -76.199219 C 26 -81.996094 29.199219 -86.398438 34.199219 -89.597656 C 39.398438 -92.796875 40 -99.199219 35.597656 -103.597656 C 32.597656 -106.597656 28.800781 -106.796875 24.800781 -105.597656 C 17.800781 -103.398438 12.199219 -98.996094 7.800781 -93.199219 C 2.601562 -86.199219 -1 -78.597656 0.398438 -69.398438 C 1.398438 -63.398438 4.398438 -58.796875 9.601562 -55.597656 C 11.800781 -54.398438 13.800781 -53.199219 16 -52 C 19.199219 -49.796875 19.199219 -46.398438 16 -44.199219 C 13.800781 -42.597656 11.398438 -41.199219 9.199219 -39.597656 C 5 -36.597656 3.800781 -30.800781 6.398438 -26.800781 C 8.800781 -23.398438 12.398438 -21.800781 16.597656 -22 Z M 12.199219 -62 C 8.398438 -62.199219 4.800781 -68.398438 4.601562 -74 C 4.199219 -80.199219 7.601562 -88.199219 11.800781 -88.996094 C 9.199219 -84.597656 7.601562 -80.199219 7.398438 -75.398438 C 7.199219 -70.398438 9.800781 -66.398438 12.199219 -62 Z M 10.199219 -34 C 10.398438 -33.800781 10.800781 -33.597656 10.800781 -33.199219 C 11.398438 -29.800781 14 -28.800781 16.800781 -27.800781 C 17.800781 -27.597656 18.800781 -26.800781 19.597656 -26.199219 C 18.398438 -26 17.398438 -25.398438 16.199219 -25.398438 C 12.800781 -25.800781 10 -28.199219 9.398438 -31.199219 C 9.199219 -32 9.398438 -33 9.398438 -34 C 9.601562 -34 9.800781 -34 10.199219 -34 Z M 33.398438 -99.996094 C 34.800781 -98.199219 34.199219 -96.597656 33.398438 -95.199219 C 32.597656 -93.199219 31.398438 -91.398438 29.398438 -90.597656 C 29.199219 -90.796875 29 -90.996094 28.800781 -91.199219 C 30.398438 -93.996094 31.800781 -96.796875 33.398438 -99.996094 Z M 33.398438 -99.996094 "/></g></g></g><g fill="#fe4a49" fill-opacity="1"><g transform="translate(542.713655, 186.614793)"><g><path d="M 2.488281 0.53125 L 2.699219 -0.0546875 C 3.335938 -0.105469 3.707031 -0.476562 3.757812 -1.21875 C 3.8125 -2.011719 3.863281 -2.804688 3.972656 -3.601562 C 4.078125 -4.339844 4.183594 -5.136719 4.289062 -5.984375 C 4.5 -7.570312 4.660156 -9.160156 4.765625 -10.800781 C 4.765625 -11.066406 4.816406 -11.4375 4.816406 -11.859375 L 4.816406 -19.484375 C 4.816406 -20.222656 4.816406 -20.964844 4.871094 -21.8125 C 4.871094 -22.605469 4.921875 -23.402344 4.921875 -24.140625 C 4.921875 -24.882812 4.976562 -25.570312 5.082031 -26.3125 C 5.136719 -27 5.1875 -27.691406 5.242188 -28.324219 C 5.292969 -28.960938 5.347656 -29.542969 5.453125 -30.125 C 5.558594 -31.183594 5.769531 -31.976562 6.089844 -32.507812 C 6.460938 -31.449219 6.828125 -30.285156 7.199219 -29.117188 C 7.570312 -27.796875 7.886719 -26.578125 8.152344 -25.414062 C 8.257812 -24.777344 8.417969 -24.195312 8.523438 -23.664062 C 8.628906 -23.082031 8.734375 -22.554688 8.839844 -22.078125 C 8.949219 -21.546875 9 -21.125 9.054688 -20.753906 L 9.210938 -19.855469 C 9.210938 -19.113281 9.371094 -18.371094 9.636719 -17.578125 C 9.742188 -17.152344 9.847656 -16.78125 9.953125 -16.464844 C 10.058594 -16.09375 10.21875 -15.722656 10.378906 -15.40625 C 10.589844 -14.613281 11.222656 -14.1875 12.230469 -14.136719 C 13.078125 -14.082031 13.816406 -14.242188 14.347656 -14.613281 C 14.824219 -14.929688 15.246094 -15.566406 15.671875 -16.464844 C 16.042969 -17.257812 16.359375 -18 16.625 -18.6875 C 16.890625 -19.378906 17.101562 -20.011719 17.3125 -20.59375 C 17.683594 -21.761719 18 -22.820312 18.265625 -23.824219 C 18.371094 -24.355469 18.53125 -24.882812 18.636719 -25.414062 C 18.742188 -25.941406 18.847656 -26.523438 18.953125 -27.160156 C 19.058594 -27.742188 19.164062 -28.378906 19.324219 -29.117188 C 19.484375 -29.808594 19.695312 -30.601562 19.960938 -31.449219 C 19.960938 -31.554688 20.066406 -31.714844 20.171875 -31.820312 C 20.222656 -31.871094 20.332031 -32.03125 20.488281 -32.242188 C 20.59375 -31.976562 20.753906 -31.132812 20.859375 -29.703125 C 20.914062 -28.960938 20.964844 -28.167969 20.964844 -27.320312 C 20.964844 -26.472656 21.019531 -25.519531 21.070312 -24.511719 C 21.070312 -22.5 21.125 -20.332031 21.230469 -18 C 21.230469 -16.835938 21.285156 -15.671875 21.285156 -14.558594 C 21.285156 -13.394531 21.335938 -12.28125 21.390625 -11.222656 C 21.390625 -9 21.441406 -7.09375 21.546875 -5.507812 C 21.546875 -4.660156 21.601562 -3.972656 21.652344 -3.386719 C 21.652344 -2.804688 21.707031 -2.382812 21.8125 -2.066406 C 21.8125 -1.535156 22.023438 -1.164062 22.394531 -0.847656 C 22.710938 -0.53125 23.082031 -0.316406 23.507812 -0.210938 C 23.929688 -0.105469 24.355469 -0.105469 24.832031 -0.210938 C 25.253906 -0.316406 25.675781 -0.53125 26.101562 -0.847656 C 26.101562 -0.953125 26.152344 -1.113281 26.152344 -1.375 L 26.152344 -10.164062 C 26.152344 -11.011719 26.101562 -11.914062 26.101562 -12.867188 C 26.101562 -13.765625 26.046875 -14.71875 26.046875 -15.722656 C 25.996094 -16.675781 25.941406 -17.683594 25.941406 -18.636719 C 25.941406 -19.589844 25.890625 -20.59375 25.835938 -21.601562 C 25.730469 -22.554688 25.675781 -23.507812 25.625 -24.460938 C 25.570312 -25.359375 25.519531 -26.261719 25.464844 -27.214844 C 25.308594 -28.960938 25.09375 -30.546875 24.832031 -32.03125 C 24.511719 -33.511719 24.25 -34.679688 23.984375 -35.523438 C 23.664062 -36.425781 23.242188 -36.953125 22.820312 -37.113281 C 21.761719 -37.484375 20.808594 -37.535156 19.960938 -37.21875 C 19.007812 -36.902344 18.371094 -36.265625 17.949219 -35.3125 C 17.578125 -34.464844 17.207031 -33.671875 16.890625 -32.929688 C 16.570312 -32.136719 16.199219 -31.34375 15.882812 -30.601562 C 15.195312 -29.117188 14.769531 -27.476562 14.558594 -25.675781 C 14.453125 -24.9375 14.347656 -24.25 14.242188 -23.613281 C 14.082031 -22.976562 13.765625 -22.289062 13.34375 -21.546875 C 13.128906 -21.917969 12.917969 -22.449219 12.707031 -23.1875 C 12.601562 -23.558594 12.496094 -23.929688 12.390625 -24.25 C 12.28125 -24.566406 12.175781 -24.9375 12.125 -25.308594 C 12.019531 -25.625 11.964844 -25.996094 11.914062 -26.3125 C 11.804688 -26.628906 11.753906 -26.894531 11.699219 -27.214844 C 11.59375 -27.742188 11.542969 -28.058594 11.542969 -28.167969 C 11.4375 -28.535156 11.328125 -28.960938 11.222656 -29.382812 C 11.117188 -29.808594 10.960938 -30.230469 10.800781 -30.761719 C 10.589844 -31.238281 10.429688 -31.714844 10.269531 -32.136719 C 10.058594 -32.558594 9.902344 -33.035156 9.742188 -33.460938 C 9.316406 -34.308594 8.949219 -35.046875 8.628906 -35.683594 C 8.257812 -36.214844 7.941406 -36.636719 7.730469 -36.847656 C 7.414062 -37.007812 6.988281 -37.113281 6.460938 -37.21875 C 5.929688 -37.21875 5.453125 -37.167969 5.03125 -37.0625 C 4.5 -36.847656 4.078125 -36.636719 3.757812 -36.425781 C 3.335938 -36.109375 3.070312 -35.789062 2.964844 -35.472656 C 2.488281 -34.414062 2.117188 -33.355469 1.90625 -32.191406 C 1.589844 -30.917969 1.375 -29.382812 1.269531 -27.582031 C 1.164062 -26.628906 1.113281 -25.625 1.058594 -24.511719 C 0.953125 -23.402344 0.898438 -22.183594 0.847656 -20.914062 C 0.742188 -18.265625 0.636719 -15.089844 0.53125 -11.382812 C 0.421875 -9.476562 0.371094 -7.996094 0.371094 -6.988281 L 0.210938 -4.605469 C 0.105469 -4.078125 0.0546875 -3.707031 0.0546875 -3.496094 C -0.0546875 -3.175781 -0.105469 -3.019531 -0.105469 -2.910156 C -0.160156 -2.804688 -0.160156 -2.542969 -0.160156 -2.222656 L -0.160156 -0.6875 C -0.160156 0 0.160156 0.371094 0.6875 0.476562 C 1.113281 0.582031 1.746094 0.636719 2.488281 0.53125 Z M 2.488281 0.53125 "/></g></g></g><g fill="#fe4a49" fill-opacity="1"><g transform="translate(582.312798, 186.614793)"><g><path d="M 9 -3.496094 L 9.210938 -3.601562 C 9.316406 -3.601562 9.476562 -3.707031 9.6875 -3.917969 C 9.792969 -4.023438 9.953125 -4.128906 10.164062 -4.289062 C 9.902344 -4.660156 9.582031 -4.921875 9.210938 -5.136719 C 8.789062 -5.292969 8.417969 -5.398438 8.046875 -5.453125 C 7.835938 -5.453125 7.625 -5.507812 7.414062 -5.507812 L 6.777344 -5.507812 C 6.351562 -5.507812 5.929688 -5.558594 5.507812 -5.769531 L 5.453125 -17.683594 C 6.035156 -17.734375 6.566406 -17.789062 7.042969 -17.84375 C 7.464844 -17.84375 7.886719 -17.894531 8.3125 -17.949219 C 8.683594 -17.949219 9 -18 9.316406 -18.054688 C 9.582031 -18.054688 9.847656 -18.105469 10.058594 -18.210938 C 10.429688 -18.320312 10.695312 -18.425781 10.90625 -18.636719 C 11.011719 -18.742188 11.117188 -18.953125 11.117188 -19.273438 C 10.90625 -19.484375 10.640625 -19.695312 10.324219 -19.800781 C 10.058594 -19.855469 9.6875 -19.90625 9.210938 -20.011719 C 9 -20.011719 8.734375 -20.066406 8.472656 -20.066406 L 7.675781 -20.066406 C 7.359375 -20.066406 7.042969 -20.066406 6.671875 -20.117188 C 6.300781 -20.117188 5.929688 -20.171875 5.507812 -20.277344 C 5.398438 -20.699219 5.347656 -21.175781 5.347656 -21.707031 C 5.292969 -22.183594 5.242188 -22.710938 5.242188 -23.242188 C 5.1875 -23.773438 5.136719 -24.25 5.136719 -24.777344 C 5.136719 -25.308594 5.136719 -25.785156 5.136719 -26.3125 L 5.136719 -29.011719 C 5.136719 -29.382812 5.136719 -29.753906 5.136719 -30.070312 C 5.136719 -30.390625 5.1875 -30.65625 5.242188 -30.867188 L 6.617188 -30.867188 C 6.722656 -30.867188 6.882812 -30.867188 7.09375 -30.917969 C 8.046875 -31.023438 8.734375 -31.183594 9.054688 -31.394531 C 9.371094 -31.605469 9.476562 -31.820312 9.371094 -32.03125 C 9.265625 -32.242188 9 -32.453125 8.628906 -32.667969 C 8.3125 -32.824219 7.941406 -32.929688 7.519531 -33.035156 C 6.566406 -33.144531 5.769531 -33.25 5.03125 -33.300781 C 4.289062 -33.355469 3.707031 -33.40625 3.230469 -33.40625 C 2.222656 -33.40625 1.484375 -33.25 1.007812 -32.984375 C 0.476562 -32.667969 0.210938 -32.191406 0.105469 -31.554688 C 0 -30.8125 -0.0546875 -29.914062 -0.0546875 -28.855469 C -0.160156 -24.832031 -0.105469 -20.914062 0.105469 -17.101562 C 0.210938 -13.183594 0.476562 -9.265625 0.898438 -5.347656 C 1.007812 -4.289062 1.484375 -3.707031 2.328125 -3.601562 C 2.859375 -3.496094 3.441406 -3.441406 3.972656 -3.386719 C 4.5 -3.28125 5.082031 -3.230469 5.664062 -3.175781 C 6.722656 -3.070312 7.835938 -3.175781 9 -3.496094 Z M 9 -3.496094 "/></g></g></g><g fill="#fe4a49" fill-opacity="1"><g transform="translate(606.718149, 186.614793)"><g><path d="M 18.582031 -3.070312 L 18.953125 -3.386719 C 19.273438 -3.441406 19.535156 -3.496094 19.695312 -3.546875 C 19.855469 -3.546875 20.011719 -3.757812 20.222656 -4.183594 C 20.332031 -4.5 20.4375 -5.082031 20.542969 -5.929688 C 20.542969 -6.671875 20.542969 -7.835938 20.542969 -9.316406 C 20.488281 -10.746094 20.382812 -12.601562 20.222656 -14.929688 C 20.117188 -16.042969 20.066406 -17.3125 19.960938 -18.742188 C 19.855469 -20.117188 19.695312 -21.707031 19.589844 -23.402344 C 19.484375 -24.035156 19.429688 -24.617188 19.429688 -25.148438 C 19.378906 -25.675781 19.324219 -26.101562 19.324219 -26.523438 C 19.273438 -26.894531 19.21875 -27.214844 19.21875 -27.53125 C 19.21875 -27.847656 19.164062 -28.113281 19.113281 -28.429688 C 19.007812 -28.695312 18.953125 -28.960938 18.902344 -29.226562 C 18.796875 -29.4375 18.742188 -29.703125 18.6875 -30.019531 C 18.476562 -30.546875 18.210938 -31.238281 17.894531 -32.082031 C 17.683594 -32.507812 17.417969 -32.824219 17.101562 -33.035156 C 16.675781 -33.25 16.253906 -33.355469 15.832031 -33.355469 C 15.355469 -33.355469 14.878906 -33.195312 14.453125 -32.929688 C 13.976562 -32.613281 13.605469 -32.191406 13.394531 -31.660156 C 13.183594 -31.34375 13.078125 -31.023438 12.972656 -30.761719 L 12.496094 -29.332031 C 12.28125 -28.695312 11.964844 -27.847656 11.542969 -26.789062 C 11.328125 -26.261719 11.066406 -25.625 10.800781 -24.9375 C 10.535156 -24.195312 10.21875 -23.402344 9.902344 -22.5 L 9.53125 -22.554688 L 9.210938 -23.71875 C 8.949219 -24.671875 8.628906 -25.625 8.257812 -26.628906 C 7.835938 -27.582031 7.414062 -28.535156 6.9375 -29.382812 C 6.351562 -30.335938 5.769531 -31.023438 5.136719 -31.5 C 4.5 -31.976562 3.863281 -32.242188 3.335938 -32.296875 C 2.699219 -32.347656 2.222656 -32.191406 1.800781 -31.820312 C 1.324219 -31.394531 1.007812 -30.867188 0.898438 -30.230469 C 0.6875 -29.171875 0.582031 -27.953125 0.582031 -26.578125 C 0.582031 -25.835938 0.53125 -25.09375 0.476562 -24.355469 C 0.421875 -23.613281 0.371094 -22.820312 0.316406 -22.023438 C 0.160156 -20.542969 0.0546875 -18.847656 0 -16.996094 C -0.0546875 -16.042969 -0.0546875 -15.140625 -0.0546875 -14.242188 L -0.0546875 -9.265625 C -0.0546875 -8.523438 -0.0546875 -7.835938 0 -7.199219 C 0 -5.929688 0.0546875 -5.136719 0.160156 -4.816406 C 0.265625 -4.289062 0.476562 -3.917969 0.792969 -3.707031 C 1.113281 -3.386719 1.851562 -3.335938 3.019531 -3.441406 C 3.441406 -3.441406 3.8125 -3.601562 4.023438 -3.8125 C 4.234375 -4.023438 4.339844 -4.339844 4.339844 -4.816406 L 4.339844 -5.664062 C 4.339844 -5.984375 4.289062 -6.351562 4.289062 -6.777344 C 4.234375 -7.199219 4.183594 -7.675781 4.183594 -8.207031 C 4.183594 -8.734375 4.183594 -9.371094 4.183594 -10.113281 L 4.183594 -18.371094 C 4.183594 -18.902344 4.183594 -19.324219 4.234375 -19.640625 C 4.234375 -20.222656 4.289062 -20.542969 4.394531 -20.648438 C 4.394531 -20.648438 4.5 -20.699219 4.710938 -20.808594 C 5.136719 -19.589844 5.453125 -18.636719 5.664062 -17.894531 C 5.875 -17.046875 6.089844 -16.414062 6.300781 -15.988281 C 6.511719 -15.460938 6.777344 -15.089844 6.988281 -14.929688 C 7.253906 -14.664062 7.675781 -14.507812 8.257812 -14.507812 C 8.894531 -14.402344 9.476562 -14.507812 10.007812 -14.824219 C 10.484375 -15.089844 10.90625 -15.722656 11.222656 -16.730469 C 11.859375 -18.742188 12.335938 -20.332031 12.652344 -21.496094 C 12.8125 -22.023438 12.972656 -22.5 13.078125 -22.925781 C 13.183594 -23.296875 13.289062 -23.613281 13.394531 -23.878906 C 13.5 -24.300781 13.660156 -24.566406 13.816406 -24.726562 C 13.871094 -24.777344 14.03125 -24.832031 14.242188 -24.9375 C 14.242188 -24.566406 14.292969 -24.25 14.292969 -23.984375 L 14.292969 -20.808594 C 14.292969 -20.59375 14.292969 -20.382812 14.347656 -20.117188 C 14.347656 -19.324219 14.402344 -18.210938 14.507812 -16.835938 C 14.507812 -16.09375 14.558594 -15.40625 14.558594 -14.71875 C 14.558594 -13.976562 14.613281 -13.289062 14.71875 -12.546875 C 14.824219 -11.066406 14.929688 -9.636719 15.035156 -8.257812 C 15.089844 -7.519531 15.140625 -6.882812 15.195312 -6.351562 C 15.195312 -5.824219 15.246094 -5.347656 15.300781 -4.976562 C 15.300781 -4.078125 15.671875 -3.496094 16.359375 -3.230469 C 16.996094 -2.910156 17.734375 -2.859375 18.582031 -3.070312 Z M 18.582031 -3.070312 "/></g></g></g><g fill="#fe4a49" fill-opacity="1"><g transform="translate(640.493884, 186.614793)"><g><path d="M 6.566406 -3.496094 L 6.460938 -3.707031 C 7.941406 -3.386719 9.265625 -3.496094 10.324219 -3.917969 C 11.4375 -4.339844 12.390625 -4.976562 13.183594 -5.875 C 13.925781 -6.722656 14.558594 -7.835938 15.089844 -9.210938 C 15.566406 -10.535156 15.9375 -11.914062 16.199219 -13.394531 C 16.414062 -14.878906 16.570312 -16.414062 16.675781 -18 C 16.675781 -19.589844 16.675781 -21.125 16.675781 -22.660156 C 16.625 -23.136719 16.570312 -23.664062 16.519531 -24.195312 C 16.464844 -24.726562 16.414062 -25.253906 16.308594 -25.835938 C 16.09375 -26.894531 15.777344 -27.902344 15.355469 -28.855469 C 14.929688 -29.703125 14.402344 -30.441406 13.660156 -31.132812 C 12.972656 -31.714844 12.125 -32.03125 11.117188 -32.136719 C 10.640625 -32.136719 10.21875 -32.242188 9.902344 -32.453125 C 9.476562 -32.667969 9.054688 -32.824219 8.628906 -32.929688 C 8.152344 -33.035156 7.625 -33.035156 6.988281 -32.929688 C 6.351562 -32.824219 5.613281 -32.507812 4.710938 -31.976562 C 3.28125 -31.023438 2.328125 -29.753906 1.90625 -28.167969 C 1.007812 -25.148438 0.421875 -22.289062 0.210938 -19.589844 C -0.105469 -16.730469 -0.0546875 -14.1875 0.371094 -11.964844 C 0.6875 -9.636719 1.375 -7.730469 2.433594 -6.246094 C 3.386719 -4.710938 4.765625 -3.8125 6.566406 -3.496094 Z M 8.101562 -5.664062 L 8.257812 -5.875 C 7.199219 -6.777344 6.460938 -7.996094 5.929688 -9.53125 C 5.347656 -11.117188 4.976562 -12.757812 4.871094 -14.453125 C 4.765625 -15.300781 4.710938 -16.199219 4.710938 -17.046875 C 4.660156 -17.894531 4.660156 -18.796875 4.765625 -19.746094 C 4.816406 -20.648438 4.871094 -21.496094 4.976562 -22.34375 C 5.03125 -23.136719 5.136719 -23.929688 5.292969 -24.671875 C 5.507812 -26.046875 5.824219 -27.320312 6.195312 -28.429688 C 6.511719 -29.382812 6.777344 -29.964844 7.09375 -30.179688 C 8.363281 -30.125 9.371094 -29.488281 10.113281 -28.324219 C 10.851562 -27.160156 11.382812 -25.675781 11.699219 -23.929688 C 12.019531 -22.238281 12.125 -20.332031 12.070312 -18.210938 C 12.019531 -17.152344 11.964844 -16.199219 11.859375 -15.246094 C 11.753906 -14.292969 11.648438 -13.34375 11.488281 -12.441406 C 11.171875 -10.695312 10.695312 -9.160156 10.113281 -7.835938 C 9.476562 -6.566406 8.839844 -5.824219 8.101562 -5.664062 Z M 8.101562 -5.664062 "/></g></g></g><g fill="#fe4a49" fill-opacity="1"><g transform="translate(670.457936, 186.614793)"><g><path d="M 4.921875 -3.230469 L 5.136719 -3.175781 C 5.71875 -3.230469 6.140625 -3.335938 6.40625 -3.546875 C 6.671875 -3.757812 6.828125 -4.078125 6.882812 -4.554688 C 6.882812 -4.976562 6.882812 -5.613281 6.882812 -6.460938 C 6.828125 -7.199219 6.777344 -8.257812 6.722656 -9.582031 L 6.722656 -10.113281 C 6.722656 -10.269531 6.882812 -10.429688 7.199219 -10.640625 L 7.519531 -10.324219 L 7.675781 -10.164062 C 7.730469 -10.058594 7.835938 -9.953125 7.941406 -9.847656 C 8.046875 -9.6875 8.207031 -9.476562 8.417969 -9.265625 C 8.628906 -9.054688 8.839844 -8.734375 9.160156 -8.417969 C 9.425781 -8.046875 9.792969 -7.570312 10.21875 -7.042969 C 10.640625 -6.511719 11.117188 -5.875 11.753906 -5.136719 C 12.175781 -4.5 12.757812 -4.078125 13.5 -3.863281 C 14.242188 -3.652344 14.824219 -3.546875 15.300781 -3.601562 C 15.832031 -3.652344 16.199219 -3.863281 16.519531 -4.183594 C 16.730469 -4.5 16.730469 -4.871094 16.519531 -5.347656 C 16.414062 -5.507812 16.308594 -5.664062 16.199219 -5.824219 C 16.09375 -5.984375 15.988281 -6.140625 15.9375 -6.300781 C 15.777344 -6.511719 15.40625 -6.9375 14.878906 -7.570312 C 14.347656 -8.101562 13.605469 -8.949219 12.601562 -10.164062 C 11.542969 -11.328125 10.113281 -12.972656 8.3125 -15.089844 C 9.476562 -16.570312 10.484375 -17.894531 11.328125 -19.058594 C 12.125 -20.222656 12.757812 -21.230469 13.183594 -22.183594 C 13.605469 -23.136719 13.871094 -24.089844 13.976562 -25.042969 C 14.082031 -25.996094 14.082031 -27.054688 13.976562 -28.21875 C 13.765625 -30.546875 12.546875 -32.082031 10.324219 -32.824219 C 9.902344 -32.929688 9.476562 -33.089844 9.054688 -33.195312 C 8.578125 -33.300781 8.046875 -33.40625 7.519531 -33.511719 C 6.351562 -33.726562 5.292969 -33.832031 4.289062 -33.832031 C 3.230469 -33.832031 2.277344 -33.671875 1.535156 -33.355469 C 0.742188 -33.035156 0.316406 -32.453125 0.210938 -31.714844 C 0.0546875 -30.707031 -0.0546875 -29.914062 -0.105469 -29.382812 C -0.160156 -29.066406 -0.210938 -28.800781 -0.210938 -28.535156 C -0.210938 -28.21875 -0.210938 -27.953125 -0.210938 -27.636719 C -0.210938 -27.320312 -0.210938 -26.949219 -0.210938 -26.578125 C -0.210938 -26.152344 -0.160156 -25.730469 -0.105469 -25.308594 C -0.105469 -24.355469 0 -23.03125 0.210938 -21.335938 C 0.316406 -19.855469 0.371094 -18.53125 0.476562 -17.367188 C 0.582031 -16.199219 0.636719 -15.140625 0.742188 -14.242188 C 0.792969 -13.289062 0.847656 -12.496094 0.898438 -11.753906 C 0.953125 -11.011719 1.007812 -10.324219 1.113281 -9.742188 C 1.164062 -9.105469 1.21875 -8.628906 1.21875 -8.207031 C 1.21875 -7.78125 1.269531 -7.414062 1.324219 -7.148438 C 1.324219 -6.511719 1.375 -6.089844 1.484375 -5.875 C 1.484375 -5.71875 1.535156 -5.613281 1.535156 -5.507812 L 1.535156 -5.292969 L 1.589844 -4.816406 C 1.746094 -3.972656 2.117188 -3.496094 2.753906 -3.386719 C 3.386719 -3.175781 4.078125 -3.125 4.921875 -3.230469 Z M 5.929688 -18.210938 L 5.929688 -18.105469 C 5.769531 -19.324219 5.664062 -20.4375 5.558594 -21.390625 C 5.453125 -22.34375 5.347656 -23.242188 5.292969 -24.035156 C 5.1875 -24.777344 5.136719 -25.464844 5.082031 -26.101562 C 4.976562 -26.683594 4.921875 -27.214844 4.871094 -27.691406 C 4.765625 -28.113281 4.710938 -28.535156 4.710938 -28.855469 C 4.710938 -29.171875 4.660156 -29.4375 4.660156 -29.648438 C 4.605469 -29.859375 4.554688 -30.019531 4.554688 -30.179688 C 4.554688 -30.335938 4.554688 -30.496094 4.554688 -30.601562 L 4.554688 -31.449219 C 4.554688 -31.554688 4.554688 -31.714844 4.605469 -31.925781 C 4.921875 -31.820312 5.1875 -31.765625 5.507812 -31.714844 C 5.769531 -31.660156 6.035156 -31.605469 6.300781 -31.554688 C 6.511719 -31.449219 6.777344 -31.394531 6.988281 -31.34375 C 7.199219 -31.238281 7.359375 -31.183594 7.570312 -31.132812 C 7.886719 -30.917969 8.207031 -30.65625 8.523438 -30.335938 C 8.789062 -29.914062 9 -29.4375 9.160156 -28.855469 C 9.371094 -27.902344 9.425781 -26.949219 9.316406 -25.996094 C 9.210938 -24.988281 9 -24.035156 8.683594 -23.082031 C 8.363281 -22.183594 7.996094 -21.285156 7.464844 -20.382812 C 6.988281 -19.535156 6.460938 -18.796875 5.929688 -18.210938 Z M 5.929688 -18.210938 "/></g></g></g><g fill="#fe4a49" fill-opacity="1"><g transform="translate(700.421988, 186.614793)"><g><path d="M 9.316406 -3.386719 L 9.6875 -3.757812 C 10.21875 -3.757812 10.640625 -3.972656 10.851562 -4.289062 C 11.066406 -4.605469 11.171875 -5.1875 11.171875 -6.035156 C 11.171875 -6.882812 11.066406 -8.101562 10.851562 -9.6875 C 10.746094 -10.484375 10.640625 -11.382812 10.535156 -12.441406 C 10.429688 -13.5 10.269531 -14.664062 10.164062 -16.042969 C 11.011719 -17.257812 11.59375 -18.53125 11.914062 -19.90625 C 12.230469 -21.285156 12.496094 -22.710938 12.707031 -24.089844 C 12.917969 -25.570312 13.183594 -26.949219 13.5 -28.324219 C 13.816406 -29.703125 13.816406 -31.132812 13.5 -32.613281 C 12.867188 -32.824219 12.230469 -32.929688 11.699219 -32.929688 C 11.117188 -32.929688 10.535156 -32.71875 9.953125 -32.347656 C 9.847656 -31.820312 9.792969 -31.34375 9.742188 -30.8125 C 9.6875 -30.285156 9.636719 -29.808594 9.582031 -29.332031 C 9.476562 -28.800781 9.425781 -28.324219 9.371094 -27.796875 C 9.316406 -27.265625 9.265625 -26.789062 9.210938 -26.261719 C 9.105469 -25.730469 9.054688 -25.203125 8.949219 -24.671875 L 8.628906 -23.082031 C 8.523438 -22.554688 8.363281 -22.023438 8.207031 -21.496094 C 8.046875 -20.964844 7.886719 -20.382812 7.730469 -19.855469 C 6.828125 -21.917969 6.195312 -23.773438 5.875 -25.414062 C 5.664062 -26.261719 5.507812 -27 5.347656 -27.742188 C 5.136719 -28.429688 4.976562 -29.066406 4.816406 -29.703125 C 4.5 -30.867188 4.078125 -31.714844 3.546875 -32.242188 C 3.019531 -32.773438 2.117188 -32.878906 0.898438 -32.613281 C 0.421875 -32.507812 0.105469 -32.296875 -0.0546875 -32.03125 C -0.210938 -31.765625 -0.265625 -31.449219 -0.265625 -31.078125 C -0.265625 -30.65625 -0.210938 -30.285156 -0.105469 -29.964844 C -0.0546875 -29.753906 0 -29.59375 0 -29.382812 C 0 -29.171875 0.0546875 -29.011719 0.105469 -28.855469 C 0.105469 -28.324219 0.160156 -27.796875 0.210938 -27.265625 C 0.265625 -26.738281 0.371094 -26.207031 0.476562 -25.675781 C 0.6875 -24.617188 0.953125 -23.613281 1.269531 -22.660156 C 1.429688 -22.128906 1.589844 -21.652344 1.746094 -21.230469 C 1.90625 -20.753906 2.066406 -20.277344 2.277344 -19.855469 C 2.433594 -19.378906 2.59375 -18.953125 2.753906 -18.582031 C 2.910156 -18.160156 3.070312 -17.789062 3.28125 -17.417969 C 3.8125 -16.996094 4.183594 -16.464844 4.394531 -15.882812 C 4.5 -15.300781 4.605469 -14.507812 4.710938 -13.554688 C 4.710938 -13.023438 4.765625 -12.496094 4.765625 -11.964844 C 4.765625 -11.382812 4.816406 -10.746094 4.921875 -10.058594 C 4.976562 -9.316406 5.082031 -8.578125 5.242188 -7.78125 C 5.347656 -6.9375 5.558594 -6.035156 5.824219 -5.082031 C 5.984375 -4.234375 6.40625 -3.757812 7.09375 -3.546875 C 7.730469 -3.335938 8.472656 -3.28125 9.316406 -3.386719 Z M 9.316406 -3.386719 "/></g></g></g></svg>