<svg xmlns="http://www.w3.org/2000/svg" xmlns:xlink="http://www.w3.org/1999/xlink" width="250" zoomAndPan="magnify" viewBox="0 0 187.5 187.499992" height="250" preserveAspectRatio="xMidYMid meet" version="1.0"><defs><clipPath id="bb31894274"><path d="M 3.75 3.75 L 183.75 3.75 L 183.75 183.75 L 3.75 183.75 Z M 3.75 3.75 " clip-rule="nonzero"/></clipPath></defs><g clip-path="url(#bb31894274)"><path fill="#ffcc4d" d="M 183.75 93.75 C 183.75 143.453125 143.453125 183.75 93.75 183.75 C 44.050781 183.75 3.75 143.453125 3.75 93.75 C 3.75 44.050781 44.050781 3.75 93.75 3.75 C 143.453125 3.75 183.75 44.050781 183.75 93.75 " fill-opacity="1" fill-rule="nonzero"/></g><path fill="#664500" d="M 73.75 66.25 C 73.75 67.152344 73.730469 68.050781 73.691406 68.945312 C 73.648438 69.839844 73.589844 70.730469 73.511719 71.613281 C 73.429688 72.5 73.332031 73.371094 73.210938 74.234375 C 73.09375 75.09375 72.957031 75.941406 72.796875 76.773438 C 72.640625 77.605469 72.46875 78.417969 72.273438 79.214844 C 72.082031 80.007812 71.871094 80.777344 71.644531 81.527344 C 71.414062 82.277344 71.171875 83 70.914062 83.695312 C 70.652344 84.390625 70.378906 85.058594 70.089844 85.695312 C 69.800781 86.332031 69.496094 86.9375 69.179688 87.507812 C 68.863281 88.078125 68.535156 88.613281 68.195312 89.117188 C 67.855469 89.617188 67.503906 90.078125 67.140625 90.503906 C 66.78125 90.925781 66.410156 91.3125 66.035156 91.65625 C 65.65625 92 65.269531 92.304688 64.878906 92.566406 C 64.488281 92.828125 64.089844 93.046875 63.6875 93.222656 C 63.285156 93.398438 62.882812 93.527344 62.476562 93.617188 C 62.066406 93.707031 61.660156 93.75 61.25 93.75 C 60.839844 93.75 60.433594 93.707031 60.023438 93.617188 C 59.617188 93.527344 59.214844 93.398438 58.8125 93.222656 C 58.410156 93.046875 58.011719 92.828125 57.621094 92.566406 C 57.230469 92.304688 56.84375 92 56.464844 91.65625 C 56.089844 91.3125 55.71875 90.925781 55.359375 90.503906 C 54.996094 90.078125 54.644531 89.617188 54.304688 89.117188 C 53.964844 88.613281 53.636719 88.078125 53.320312 87.507812 C 53.003906 86.9375 52.699219 86.332031 52.410156 85.695312 C 52.121094 85.058594 51.847656 84.390625 51.585938 83.695312 C 51.328125 83 51.085938 82.277344 50.855469 81.527344 C 50.628906 80.777344 50.417969 80.007812 50.226562 79.214844 C 50.03125 78.417969 49.859375 77.605469 49.703125 76.773438 C 49.542969 75.941406 49.40625 75.09375 49.289062 74.234375 C 49.167969 73.371094 49.070312 72.5 48.988281 71.613281 C 48.910156 70.730469 48.851562 69.839844 48.808594 68.945312 C 48.769531 68.050781 48.75 67.152344 48.75 66.25 C 48.75 65.347656 48.769531 64.449219 48.808594 63.554688 C 48.851562 62.65625 48.910156 61.769531 48.988281 60.886719 C 49.070312 60 49.167969 59.128906 49.289062 58.265625 C 49.40625 57.40625 49.542969 56.558594 49.703125 55.726562 C 49.859375 54.894531 50.03125 54.082031 50.226562 53.285156 C 50.417969 52.492188 50.628906 51.71875 50.855469 50.972656 C 51.085938 50.222656 51.328125 49.5 51.585938 48.804688 C 51.847656 48.109375 52.121094 47.441406 52.410156 46.804688 C 52.699219 46.167969 53.003906 45.5625 53.320312 44.992188 C 53.636719 44.421875 53.964844 43.886719 54.304688 43.382812 C 54.644531 42.882812 54.996094 42.421875 55.359375 41.996094 C 55.71875 41.574219 56.089844 41.1875 56.464844 40.84375 C 56.84375 40.5 57.230469 40.195312 57.621094 39.933594 C 58.011719 39.671875 58.410156 39.453125 58.8125 39.277344 C 59.214844 39.101562 59.617188 38.96875 60.023438 38.882812 C 60.433594 38.792969 60.839844 38.75 61.25 38.75 C 61.660156 38.75 62.066406 38.792969 62.476562 38.882812 C 62.882812 38.96875 63.285156 39.101562 63.6875 39.277344 C 64.089844 39.453125 64.488281 39.671875 64.878906 39.933594 C 65.269531 40.195312 65.65625 40.5 66.035156 40.84375 C 66.410156 41.1875 66.78125 41.574219 67.140625 41.996094 C 67.503906 42.421875 67.855469 42.882812 68.195312 43.382812 C 68.535156 43.886719 68.863281 44.421875 69.179688 44.992188 C 69.496094 45.5625 69.800781 46.167969 70.089844 46.804688 C 70.378906 47.441406 70.652344 48.109375 70.914062 48.804688 C 71.171875 49.5 71.414062 50.222656 71.644531 50.972656 C 71.871094 51.71875 72.082031 52.492188 72.273438 53.285156 C 72.46875 54.082031 72.640625 54.894531 72.796875 55.726562 C 72.957031 56.558594 73.09375 57.40625 73.210938 58.265625 C 73.332031 59.128906 73.429688 60 73.511719 60.886719 C 73.589844 61.769531 73.648438 62.65625 73.691406 63.554688 C 73.730469 64.449219 73.75 65.347656 73.75 66.25 Z M 73.75 66.25 " fill-opacity="1" fill-rule="nonzero"/><path fill="#664500" d="M 138.75 66.25 C 138.75 67.152344 138.730469 68.050781 138.691406 68.945312 C 138.648438 69.839844 138.589844 70.730469 138.511719 71.613281 C 138.429688 72.5 138.332031 73.371094 138.210938 74.234375 C 138.09375 75.09375 137.957031 75.941406 137.796875 76.773438 C 137.640625 77.605469 137.46875 78.417969 137.273438 79.214844 C 137.082031 80.007812 136.871094 80.777344 136.644531 81.527344 C 136.414062 82.277344 136.171875 83 135.914062 83.695312 C 135.652344 84.390625 135.378906 85.058594 135.089844 85.695312 C 134.800781 86.332031 134.496094 86.9375 134.179688 87.507812 C 133.863281 88.078125 133.535156 88.613281 133.195312 89.117188 C 132.855469 89.617188 132.503906 90.078125 132.140625 90.503906 C 131.78125 90.925781 131.410156 91.3125 131.035156 91.65625 C 130.65625 92 130.269531 92.304688 129.878906 92.566406 C 129.488281 92.828125 129.089844 93.046875 128.6875 93.222656 C 128.285156 93.398438 127.882812 93.527344 127.476562 93.617188 C 127.066406 93.707031 126.660156 93.75 126.25 93.75 C 125.839844 93.75 125.433594 93.707031 125.023438 93.617188 C 124.617188 93.527344 124.210938 93.398438 123.8125 93.222656 C 123.410156 93.046875 123.011719 92.828125 122.621094 92.566406 C 122.230469 92.304688 121.84375 92 121.464844 91.65625 C 121.089844 91.3125 120.71875 90.925781 120.359375 90.503906 C 119.996094 90.078125 119.644531 89.617188 119.304688 89.117188 C 118.964844 88.613281 118.636719 88.078125 118.320312 87.507812 C 118.003906 86.9375 117.699219 86.332031 117.410156 85.695312 C 117.121094 85.058594 116.847656 84.390625 116.585938 83.695312 C 116.328125 83 116.085938 82.277344 115.855469 81.527344 C 115.628906 80.777344 115.417969 80.007812 115.226562 79.214844 C 115.03125 78.417969 114.859375 77.605469 114.703125 76.773438 C 114.542969 75.941406 114.40625 75.09375 114.289062 74.234375 C 114.167969 73.371094 114.070312 72.5 113.988281 71.613281 C 113.910156 70.730469 113.851562 69.839844 113.808594 68.945312 C 113.769531 68.050781 113.75 67.152344 113.75 66.25 C 113.75 65.347656 113.769531 64.449219 113.808594 63.554688 C 113.851562 62.65625 113.910156 61.769531 113.988281 60.886719 C 114.070312 60 114.167969 59.128906 114.289062 58.265625 C 114.40625 57.40625 114.542969 56.558594 114.703125 55.726562 C 114.859375 54.894531 115.03125 54.082031 115.226562 53.285156 C 115.417969 52.492188 115.628906 51.71875 115.855469 50.972656 C 116.085938 50.222656 116.328125 49.5 116.585938 48.804688 C 116.847656 48.109375 117.121094 47.441406 117.410156 46.804688 C 117.699219 46.167969 118.003906 45.5625 118.320312 44.992188 C 118.636719 44.421875 118.964844 43.886719 119.304688 43.382812 C 119.644531 42.882812 119.996094 42.421875 120.359375 41.996094 C 120.71875 41.574219 121.089844 41.1875 121.464844 40.84375 C 121.84375 40.5 122.230469 40.195312 122.621094 39.933594 C 123.011719 39.671875 123.410156 39.453125 123.8125 39.277344 C 124.210938 39.101562 124.617188 38.96875 125.023438 38.882812 C 125.433594 38.792969 125.839844 38.75 126.25 38.75 C 126.660156 38.75 127.066406 38.792969 127.476562 38.882812 C 127.882812 38.96875 128.285156 39.101562 128.6875 39.277344 C 129.089844 39.453125 129.488281 39.671875 129.878906 39.933594 C 130.269531 40.195312 130.65625 40.5 131.035156 40.84375 C 131.410156 41.1875 131.78125 41.574219 132.140625 41.996094 C 132.503906 42.421875 132.855469 42.882812 133.195312 43.382812 C 133.535156 43.886719 133.863281 44.421875 134.179688 44.992188 C 134.496094 45.5625 134.800781 46.167969 135.089844 46.804688 C 135.378906 47.441406 135.652344 48.109375 135.914062 48.804688 C 136.171875 49.5 136.414062 50.222656 136.644531 50.972656 C 136.871094 51.71875 137.082031 52.492188 137.273438 53.285156 C 137.46875 54.082031 137.640625 54.894531 137.796875 55.726562 C 137.957031 56.558594 138.09375 57.40625 138.210938 58.265625 C 138.332031 59.128906 138.429688 60 138.511719 60.886719 C 138.589844 61.769531 138.648438 62.65625 138.691406 63.554688 C 138.730469 64.449219 138.75 65.347656 138.75 66.25 Z M 138.75 66.25 " fill-opacity="1" fill-rule="nonzero"/><path fill="#664500" d="M 93.75 113.75 C 75.636719 113.75 63.613281 111.640625 48.75 108.75 C 45.355469 108.09375 38.75 108.75 38.75 118.75 C 38.75 138.75 61.726562 163.75 93.75 163.75 C 125.769531 163.75 148.75 138.75 148.75 118.75 C 148.75 108.75 142.144531 108.089844 138.75 108.75 C 123.886719 111.640625 111.863281 113.75 93.75 113.75 Z M 93.75 113.75 " fill-opacity="1" fill-rule="nonzero"/><path fill="#ffffff" d="M 48.75 118.75 C 48.75 118.75 63.75 123.75 93.75 123.75 C 123.75 123.75 138.75 118.75 138.75 118.75 C 138.75 118.75 128.75 138.75 93.75 138.75 C 58.75 138.75 48.75 118.75 48.75 118.75 Z M 48.75 118.75 " fill-opacity="1" fill-rule="nonzero"/></svg>