<svg xmlns="http://www.w3.org/2000/svg" xmlns:xlink="http://www.w3.org/1999/xlink" width="500" zoomAndPan="magnify" viewBox="0 0 375 374.999991" height="500" preserveAspectRatio="xMidYMid meet" version="1.0"><defs><g/><clipPath id="9e136adb3b"><path d="M 17.25 0 L 357.75 0 C 367.277344 0 375 7.722656 375 17.25 L 375 357.75 C 375 367.277344 367.277344 375 357.75 375 L 17.25 375 C 7.722656 375 0 367.277344 0 357.75 L 0 17.25 C 0 7.722656 7.722656 0 17.25 0 " clip-rule="nonzero"/></clipPath><clipPath id="3f53ef453e"><path d="M 31.25 17.085938 L 343.75 17.085938 L 343.75 302.121094 L 31.25 302.121094 Z M 31.25 17.085938 " clip-rule="nonzero"/></clipPath><clipPath id="ac9b20a733"><path d="M 48.5 17.085938 L 326.5 17.085938 C 331.074219 17.085938 335.460938 18.902344 338.699219 22.136719 C 341.933594 25.371094 343.75 29.761719 343.75 34.335938 L 343.75 284.777344 C 343.75 289.351562 341.933594 293.738281 338.699219 296.972656 C 335.460938 300.210938 331.074219 302.027344 326.5 302.027344 L 48.5 302.027344 C 43.925781 302.027344 39.539062 300.210938 36.300781 296.972656 C 33.066406 293.738281 31.25 289.351562 31.25 284.777344 L 31.25 34.335938 C 31.25 24.808594 38.972656 17.085938 48.5 17.085938 " clip-rule="nonzero"/></clipPath><clipPath id="90d4548d1c"><path d="M 31.25 17.089844 L 344 17.089844 L 344 302.085938 L 31.25 302.085938 Z M 31.25 17.089844 " clip-rule="nonzero"/></clipPath><clipPath id="f28423c27a"><path d="M 48.515625 17.089844 L 326.734375 17.089844 C 331.316406 17.089844 335.707031 18.90625 338.945312 22.140625 C 342.179688 25.378906 344 29.765625 344 34.34375 L 344 284.828125 C 344 289.40625 342.179688 293.792969 338.945312 297.027344 C 335.707031 300.265625 331.316406 302.082031 326.734375 302.082031 L 48.515625 302.082031 C 43.933594 302.082031 39.542969 300.265625 36.304688 297.027344 C 33.070312 293.792969 31.25 289.40625 31.25 284.828125 L 31.25 34.34375 C 31.25 24.8125 38.980469 17.089844 48.515625 17.089844 " clip-rule="nonzero"/></clipPath><clipPath id="969abb1373"><path d="M 50 26 L 218 26 L 218 194 L 50 194 Z M 50 26 " clip-rule="nonzero"/></clipPath><clipPath id="57e6c4a427"><path d="M 31.25 51.546875 L 192.597656 7.75 L 236.394531 169.097656 L 75.046875 212.894531 Z M 31.25 51.546875 " clip-rule="nonzero"/></clipPath><clipPath id="e63d77cfe4"><path d="M 31.25 51.546875 L 192.597656 7.75 L 236.394531 169.097656 L 75.046875 212.894531 Z M 31.25 51.546875 " clip-rule="nonzero"/></clipPath><clipPath id="22126c5b61"><path d="M 31.25 51.546875 L 192.597656 7.75 L 236.394531 169.097656 L 75.046875 212.894531 Z M 31.25 51.546875 " clip-rule="nonzero"/></clipPath><clipPath id="2bf9a44362"><path d="M 84 68 L 112 68 L 112 119 L 84 119 Z M 84 68 " clip-rule="nonzero"/></clipPath><clipPath id="4c15bfa95d"><path d="M 31.25 51.546875 L 192.597656 7.75 L 236.394531 169.097656 L 75.046875 212.894531 Z M 31.25 51.546875 " clip-rule="nonzero"/></clipPath><clipPath id="14d78fc9e6"><path d="M 31.25 51.546875 L 192.597656 7.75 L 236.394531 169.097656 L 75.046875 212.894531 Z M 31.25 51.546875 " clip-rule="nonzero"/></clipPath><clipPath id="26c262284e"><path d="M 31.25 51.546875 L 192.597656 7.75 L 236.394531 169.097656 L 75.046875 212.894531 Z M 31.25 51.546875 " clip-rule="nonzero"/></clipPath><clipPath id="c1162d368e"><path d="M 143 52 L 170 52 L 170 103 L 143 103 Z M 143 52 " clip-rule="nonzero"/></clipPath><clipPath id="e6db45136b"><path d="M 31.25 51.546875 L 192.597656 7.75 L 236.394531 169.097656 L 75.046875 212.894531 Z M 31.25 51.546875 " clip-rule="nonzero"/></clipPath><clipPath id="14661453ab"><path d="M 31.25 51.546875 L 192.597656 7.75 L 236.394531 169.097656 L 75.046875 212.894531 Z M 31.25 51.546875 " clip-rule="nonzero"/></clipPath><clipPath id="9a50bb0d2a"><path d="M 31.25 51.546875 L 192.597656 7.75 L 236.394531 169.097656 L 75.046875 212.894531 Z M 31.25 51.546875 " clip-rule="nonzero"/></clipPath><clipPath id="91ddf4540f"><path d="M 90 111 L 191 111 L 191 176 L 90 176 Z M 90 111 " clip-rule="nonzero"/></clipPath><clipPath id="4b24f9d342"><path d="M 31.25 51.546875 L 192.597656 7.75 L 236.394531 169.097656 L 75.046875 212.894531 Z M 31.25 51.546875 " clip-rule="nonzero"/></clipPath><clipPath id="e68031599e"><path d="M 31.25 51.546875 L 192.597656 7.75 L 236.394531 169.097656 L 75.046875 212.894531 Z M 31.25 51.546875 " clip-rule="nonzero"/></clipPath><clipPath id="6a867ffda2"><path d="M 31.25 51.546875 L 192.597656 7.75 L 236.394531 169.097656 L 75.046875 212.894531 Z M 31.25 51.546875 " clip-rule="nonzero"/></clipPath><clipPath id="b5ec205ef4"><path d="M 99 121 L 181 121 L 181 154 L 99 154 Z M 99 121 " clip-rule="nonzero"/></clipPath><clipPath id="490577eb4f"><path d="M 31.25 51.546875 L 192.597656 7.75 L 236.394531 169.097656 L 75.046875 212.894531 Z M 31.25 51.546875 " clip-rule="nonzero"/></clipPath><clipPath id="06f516e049"><path d="M 31.25 51.546875 L 192.597656 7.75 L 236.394531 169.097656 L 75.046875 212.894531 Z M 31.25 51.546875 " clip-rule="nonzero"/></clipPath><clipPath id="ccce9fa52d"><path d="M 31.25 51.546875 L 192.597656 7.75 L 236.394531 169.097656 L 75.046875 212.894531 Z M 31.25 51.546875 " clip-rule="nonzero"/></clipPath><clipPath id="dd819e6a56"><path d="M 198 148 L 327 148 L 327 277 L 198 277 Z M 198 148 " clip-rule="nonzero"/></clipPath><clipPath id="02d606aa5c"><path d="M 222.074219 131.730469 L 343.734375 171.914062 L 303.546875 293.574219 L 181.886719 253.390625 Z M 222.074219 131.730469 " clip-rule="nonzero"/></clipPath><clipPath id="b2de8da696"><path d="M 222.074219 131.730469 L 343.734375 171.914062 L 303.546875 293.574219 L 181.886719 253.390625 Z M 222.074219 131.730469 " clip-rule="nonzero"/></clipPath><clipPath id="7149d2597c"><path d="M 222.074219 131.730469 L 343.734375 171.914062 L 303.546875 293.574219 L 181.886719 253.390625 Z M 222.074219 131.730469 " clip-rule="nonzero"/></clipPath><clipPath id="a8ff8c0ef8"><path d="M 232 189 L 252 189 L 252 215 L 232 215 Z M 232 189 " clip-rule="nonzero"/></clipPath><clipPath id="a7110a06b5"><path d="M 222.074219 131.730469 L 343.734375 171.914062 L 303.546875 293.574219 L 181.886719 253.390625 Z M 222.074219 131.730469 " clip-rule="nonzero"/></clipPath><clipPath id="70f86b0f70"><path d="M 222.074219 131.730469 L 343.734375 171.914062 L 303.546875 293.574219 L 181.886719 253.390625 Z M 222.074219 131.730469 " clip-rule="nonzero"/></clipPath><clipPath id="6c71cd614d"><path d="M 222.074219 131.730469 L 343.734375 171.914062 L 303.546875 293.574219 L 181.886719 253.390625 Z M 222.074219 131.730469 " clip-rule="nonzero"/></clipPath><clipPath id="09bd4535a7"><path d="M 276 204 L 296 204 L 296 229 L 276 229 Z M 276 204 " clip-rule="nonzero"/></clipPath><clipPath id="50042990e5"><path d="M 222.074219 131.730469 L 343.734375 171.914062 L 303.546875 293.574219 L 181.886719 253.390625 Z M 222.074219 131.730469 " clip-rule="nonzero"/></clipPath><clipPath id="44128bb5bf"><path d="M 222.074219 131.730469 L 343.734375 171.914062 L 303.546875 293.574219 L 181.886719 253.390625 Z M 222.074219 131.730469 " clip-rule="nonzero"/></clipPath><clipPath id="22d2d1ef56"><path d="M 222.074219 131.730469 L 343.734375 171.914062 L 303.546875 293.574219 L 181.886719 253.390625 Z M 222.074219 131.730469 " clip-rule="nonzero"/></clipPath><clipPath id="bf3154739f"><path d="M 224 170 L 314 170 L 314 256 L 224 256 Z M 224 170 " clip-rule="nonzero"/></clipPath><clipPath id="3e25e86fd5"><path d="M 222.074219 131.730469 L 343.734375 171.914062 L 303.546875 293.574219 L 181.886719 253.390625 Z M 222.074219 131.730469 " clip-rule="nonzero"/></clipPath><clipPath id="fa84907bd7"><path d="M 222.074219 131.730469 L 343.734375 171.914062 L 303.546875 293.574219 L 181.886719 253.390625 Z M 222.074219 131.730469 " clip-rule="nonzero"/></clipPath><clipPath id="0021f75a32"><path d="M 222.074219 131.730469 L 343.734375 171.914062 L 303.546875 293.574219 L 181.886719 253.390625 Z M 222.074219 131.730469 " clip-rule="nonzero"/></clipPath><clipPath id="0c8101a0e5"><path d="M 206 214 L 243 214 L 243 267 L 206 267 Z M 206 214 " clip-rule="nonzero"/></clipPath><clipPath id="3e5fe80674"><path d="M 222.074219 131.730469 L 343.734375 171.914062 L 303.546875 293.574219 L 181.886719 253.390625 Z M 222.074219 131.730469 " clip-rule="nonzero"/></clipPath><clipPath id="996571be16"><path d="M 222.074219 131.730469 L 343.734375 171.914062 L 303.546875 293.574219 L 181.886719 253.390625 Z M 222.074219 131.730469 " clip-rule="nonzero"/></clipPath><clipPath id="cbad50946d"><path d="M 222.074219 131.730469 L 343.734375 171.914062 L 303.546875 293.574219 L 181.886719 253.390625 Z M 222.074219 131.730469 " clip-rule="nonzero"/></clipPath><clipPath id="b00f3c001a"><path d="M 68 211 L 143 211 L 143 286 L 68 286 Z M 68 211 " clip-rule="nonzero"/></clipPath><clipPath id="0e3000ce84"><path d="M 57.691406 227.652344 L 125.832031 200.261719 L 155.84375 274.921875 L 87.707031 302.3125 Z M 57.691406 227.652344 " clip-rule="nonzero"/></clipPath><clipPath id="1cf4ff871f"><path d="M 57.691406 227.652344 L 125.832031 200.261719 L 155.84375 274.921875 L 87.707031 302.3125 Z M 57.691406 227.652344 " clip-rule="nonzero"/></clipPath><clipPath id="9d6b42fa80"><path d="M 57.691406 227.652344 L 125.832031 200.261719 L 155.84375 274.921875 L 87.707031 302.3125 Z M 57.691406 227.652344 " clip-rule="nonzero"/></clipPath><clipPath id="83bb57c724"><path d="M 92 237 L 123 237 L 123 270 L 92 270 Z M 92 237 " clip-rule="nonzero"/></clipPath><clipPath id="8e310cb089"><path d="M 57.691406 227.652344 L 125.832031 200.261719 L 155.84375 274.921875 L 87.707031 302.3125 Z M 57.691406 227.652344 " clip-rule="nonzero"/></clipPath><clipPath id="fb7cb9ce06"><path d="M 57.691406 227.652344 L 125.832031 200.261719 L 155.84375 274.921875 L 87.707031 302.3125 Z M 57.691406 227.652344 " clip-rule="nonzero"/></clipPath><clipPath id="97f830d344"><path d="M 57.691406 227.652344 L 125.832031 200.261719 L 155.84375 274.921875 L 87.707031 302.3125 Z M 57.691406 227.652344 " clip-rule="nonzero"/></clipPath><clipPath id="6da85ba724"><path d="M 83 247 L 124 247 L 124 295 L 83 295 Z M 83 247 " clip-rule="nonzero"/></clipPath><clipPath id="25698c22f1"><path d="M 57.691406 227.652344 L 125.832031 200.261719 L 155.84375 274.921875 L 87.707031 302.3125 Z M 57.691406 227.652344 " clip-rule="nonzero"/></clipPath><clipPath id="7f0b9198a0"><path d="M 57.691406 227.652344 L 125.832031 200.261719 L 155.84375 274.921875 L 87.707031 302.3125 Z M 57.691406 227.652344 " clip-rule="nonzero"/></clipPath><clipPath id="129633f611"><path d="M 57.691406 227.652344 L 125.832031 200.261719 L 155.84375 274.921875 L 87.707031 302.3125 Z M 57.691406 227.652344 " clip-rule="nonzero"/></clipPath><clipPath id="68234326da"><path d="M 77 220 L 121 220 L 121 242 L 77 242 Z M 77 220 " clip-rule="nonzero"/></clipPath><clipPath id="c1b19c9aef"><path d="M 57.691406 227.652344 L 125.832031 200.261719 L 155.84375 274.921875 L 87.707031 302.3125 Z M 57.691406 227.652344 " clip-rule="nonzero"/></clipPath><clipPath id="1becb34738"><path d="M 57.691406 227.652344 L 125.832031 200.261719 L 155.84375 274.921875 L 87.707031 302.3125 Z M 57.691406 227.652344 " clip-rule="nonzero"/></clipPath><clipPath id="21ef8d4e89"><path d="M 57.691406 227.652344 L 125.832031 200.261719 L 155.84375 274.921875 L 87.707031 302.3125 Z M 57.691406 227.652344 " clip-rule="nonzero"/></clipPath><clipPath id="aea1ac7981"><path d="M 235 36 L 338 36 L 338 139 L 235 139 Z M 235 36 " clip-rule="nonzero"/></clipPath><clipPath id="d4fd2dea61"><path d="M 230.035156 43.640625 L 330.820312 31.085938 L 343.375 131.871094 L 242.589844 144.421875 Z M 230.035156 43.640625 " clip-rule="nonzero"/></clipPath><clipPath id="a7fdd4cb7e"><path d="M 230.035156 43.640625 L 330.820312 31.085938 L 343.375 131.871094 L 242.589844 144.421875 Z M 230.035156 43.640625 " clip-rule="nonzero"/></clipPath><clipPath id="7789b7d4c5"><path d="M 230.035156 43.640625 L 330.820312 31.085938 L 343.375 131.871094 L 242.589844 144.421875 Z M 230.035156 43.640625 " clip-rule="nonzero"/></clipPath><clipPath id="4508e5c8f6"><path d="M 275 96 L 304 96 L 304 130 L 275 130 Z M 275 96 " clip-rule="nonzero"/></clipPath><clipPath id="b6b305c895"><path d="M 230.035156 43.640625 L 330.820312 31.085938 L 343.375 131.871094 L 242.589844 144.421875 Z M 230.035156 43.640625 " clip-rule="nonzero"/></clipPath><clipPath id="837c310eca"><path d="M 230.035156 43.640625 L 330.820312 31.085938 L 343.375 131.871094 L 242.589844 144.421875 Z M 230.035156 43.640625 " clip-rule="nonzero"/></clipPath><clipPath id="75291c4773"><path d="M 230.035156 43.640625 L 330.820312 31.085938 L 343.375 131.871094 L 242.589844 144.421875 Z M 230.035156 43.640625 " clip-rule="nonzero"/></clipPath><clipPath id="f188cac3d2"><path d="M 247 49 L 321 49 L 321 73 L 247 73 Z M 247 49 " clip-rule="nonzero"/></clipPath><clipPath id="1934f4ad50"><path d="M 230.035156 43.640625 L 330.820312 31.085938 L 343.375 131.871094 L 242.589844 144.421875 Z M 230.035156 43.640625 " clip-rule="nonzero"/></clipPath><clipPath id="18bd1aaffb"><path d="M 230.035156 43.640625 L 330.820312 31.085938 L 343.375 131.871094 L 242.589844 144.421875 Z M 230.035156 43.640625 " clip-rule="nonzero"/></clipPath><clipPath id="e81b1216c8"><path d="M 230.035156 43.640625 L 330.820312 31.085938 L 343.375 131.871094 L 242.589844 144.421875 Z M 230.035156 43.640625 " clip-rule="nonzero"/></clipPath><clipPath id="4f91b2fca1"><path d="M 281 101 L 299 101 L 299 114 L 281 114 Z M 281 101 " clip-rule="nonzero"/></clipPath><clipPath id="fd8eb1d3ef"><path d="M 230.035156 43.640625 L 330.820312 31.085938 L 343.375 131.871094 L 242.589844 144.421875 Z M 230.035156 43.640625 " clip-rule="nonzero"/></clipPath><clipPath id="1fea5a84e1"><path d="M 230.035156 43.640625 L 330.820312 31.085938 L 343.375 131.871094 L 242.589844 144.421875 Z M 230.035156 43.640625 " clip-rule="nonzero"/></clipPath><clipPath id="d9fdcc7962"><path d="M 230.035156 43.640625 L 330.820312 31.085938 L 343.375 131.871094 L 242.589844 144.421875 Z M 230.035156 43.640625 " clip-rule="nonzero"/></clipPath><clipPath id="f222bad5ae"><path d="M 261 70 L 276 70 L 276 90 L 261 90 Z M 261 70 " clip-rule="nonzero"/></clipPath><clipPath id="558cd5fe36"><path d="M 230.035156 43.640625 L 330.820312 31.085938 L 343.375 131.871094 L 242.589844 144.421875 Z M 230.035156 43.640625 " clip-rule="nonzero"/></clipPath><clipPath id="42cfcd63d4"><path d="M 230.035156 43.640625 L 330.820312 31.085938 L 343.375 131.871094 L 242.589844 144.421875 Z M 230.035156 43.640625 " clip-rule="nonzero"/></clipPath><clipPath id="aedda823f1"><path d="M 230.035156 43.640625 L 330.820312 31.085938 L 343.375 131.871094 L 242.589844 144.421875 Z M 230.035156 43.640625 " clip-rule="nonzero"/></clipPath><clipPath id="78e8e2f5d0"><path d="M 295 66 L 310 66 L 310 86 L 295 86 Z M 295 66 " clip-rule="nonzero"/></clipPath><clipPath id="cebbbc6b31"><path d="M 230.035156 43.640625 L 330.820312 31.085938 L 343.375 131.871094 L 242.589844 144.421875 Z M 230.035156 43.640625 " clip-rule="nonzero"/></clipPath><clipPath id="a7bed4e073"><path d="M 230.035156 43.640625 L 330.820312 31.085938 L 343.375 131.871094 L 242.589844 144.421875 Z M 230.035156 43.640625 " clip-rule="nonzero"/></clipPath><clipPath id="8e6f0817c7"><path d="M 230.035156 43.640625 L 330.820312 31.085938 L 343.375 131.871094 L 242.589844 144.421875 Z M 230.035156 43.640625 " clip-rule="nonzero"/></clipPath></defs><g clip-path="url(#9e136adb3b)"><path fill="#fed766" d="M 0 0 L 374.878906 0 L 374.878906 374.878906 L 0 374.878906 Z M 0 0 " fill-opacity="1" fill-rule="nonzero"/><path stroke-linecap="butt" transform="matrix(0.75, 0, 0, 0.75, 0.0000045, 0)" fill="none" stroke-linejoin="miter" d="M 22.999997 0 L 477.000056 0 C 489.703182 0 500.000059 10.296876 500.000059 23.000003 L 500.000059 477.000062 C 500.000059 489.703188 489.703182 500.000065 477.000056 500.000065 L 22.999997 500.000065 C 10.29687 500.000065 -0.000006 489.703188 -0.000006 477.000062 L -0.000006 23.000003 C -0.000006 10.296876 10.29687 0 22.999997 0 " stroke="#ffffff" stroke-width="6" stroke-opacity="1" stroke-miterlimit="4"/></g><g clip-path="url(#3f53ef453e)"><g clip-path="url(#ac9b20a733)"><path fill="#f4f4f8" d="M 31.25 17.085938 L 343.75 17.085938 L 343.75 302.121094 L 31.25 302.121094 Z M 31.25 17.085938 " fill-opacity="1" fill-rule="nonzero"/></g></g><g clip-path="url(#90d4548d1c)"><g clip-path="url(#f28423c27a)"><path stroke-linecap="butt" transform="matrix(0.750619, 0, 0, 0.750154, 31.250005, 17.089051)" fill="none" stroke-linejoin="miter" d="M 23.00185 0.00105673 L 393.654399 0.00105673 C 399.758738 0.00105673 405.608079 2.422434 409.922228 6.734048 C 414.231173 11.05087 416.656256 16.898626 416.656256 23.001539 L 416.656256 356.912097 C 416.656256 363.01501 414.231173 368.862767 409.922228 373.174381 C 405.608079 377.491202 399.758738 379.91258 393.654399 379.91258 L 23.00185 379.91258 C 16.897511 379.91258 11.04817 377.491202 6.734021 373.174381 C 2.425076 368.862767 -0.00000667172 363.01501 -0.00000667172 356.912097 L -0.00000667172 23.001539 C -0.00000667172 10.295816 10.298789 0.00105673 23.00185 0.00105673 " stroke="#ffffff" stroke-width="6" stroke-opacity="1" stroke-miterlimit="4"/></g></g><g clip-path="url(#969abb1373)"><g clip-path="url(#57e6c4a427)"><g clip-path="url(#e63d77cfe4)"><g clip-path="url(#22126c5b61)"><path fill="#ffcc4d" d="M 214.496094 88.421875 C 226.589844 132.976562 200.277344 178.902344 155.722656 190.996094 C 111.171875 203.089844 65.242188 176.773438 53.148438 132.21875 C 41.054688 87.671875 67.375 41.738281 111.925781 29.648438 C 156.480469 17.554688 202.40625 43.875 214.496094 88.421875 " fill-opacity="1" fill-rule="nonzero"/></g></g></g></g><g clip-path="url(#2bf9a44362)"><g clip-path="url(#4c15bfa95d)"><g clip-path="url(#14d78fc9e6)"><g clip-path="url(#26c262284e)"><path fill="#664500" d="M 109.203125 90.539062 C 109.421875 91.34375 109.625 92.15625 109.804688 92.96875 C 109.988281 93.78125 110.152344 94.59375 110.292969 95.40625 C 110.4375 96.214844 110.5625 97.023438 110.664062 97.824219 C 110.765625 98.625 110.851562 99.417969 110.914062 100.203125 C 110.972656 100.988281 111.015625 101.757812 111.035156 102.515625 C 111.054688 103.277344 111.054688 104.019531 111.035156 104.746094 C 111.011719 105.472656 110.96875 106.179688 110.90625 106.867188 C 110.84375 107.554688 110.757812 108.21875 110.652344 108.859375 C 110.550781 109.5 110.425781 110.117188 110.28125 110.703125 C 110.136719 111.292969 109.972656 111.855469 109.789062 112.386719 C 109.605469 112.917969 109.402344 113.417969 109.183594 113.886719 C 108.960938 114.355469 108.722656 114.789062 108.46875 115.1875 C 108.214844 115.589844 107.941406 115.957031 107.65625 116.285156 C 107.367188 116.613281 107.066406 116.90625 106.75 117.164062 C 106.429688 117.417969 106.101562 117.632812 105.757812 117.8125 C 105.414062 117.992188 105.058594 118.128906 104.691406 118.230469 C 104.324219 118.328125 103.945312 118.390625 103.558594 118.410156 C 103.171875 118.429688 102.777344 118.410156 102.375 118.347656 C 101.972656 118.289062 101.566406 118.191406 101.148438 118.050781 C 100.734375 117.910156 100.316406 117.734375 99.894531 117.515625 C 99.46875 117.300781 99.046875 117.046875 98.617188 116.753906 C 98.191406 116.460938 97.765625 116.128906 97.339844 115.765625 C 96.910156 115.398438 96.488281 115 96.0625 114.5625 C 95.640625 114.128906 95.222656 113.660156 94.808594 113.160156 C 94.394531 112.660156 93.984375 112.128906 93.582031 111.566406 C 93.179688 111.007812 92.785156 110.417969 92.402344 109.804688 C 92.015625 109.1875 91.636719 108.546875 91.273438 107.882812 C 90.90625 107.214844 90.550781 106.53125 90.207031 105.824219 C 89.867188 105.113281 89.535156 104.390625 89.21875 103.644531 C 88.902344 102.902344 88.601562 102.144531 88.316406 101.371094 C 88.027344 100.597656 87.757812 99.816406 87.503906 99.023438 C 87.25 98.226562 87.015625 97.429688 86.792969 96.621094 C 86.574219 95.8125 86.375 95.003906 86.191406 94.191406 C 86.011719 93.375 85.847656 92.5625 85.703125 91.753906 C 85.5625 90.941406 85.4375 90.136719 85.335938 89.332031 C 85.230469 88.53125 85.148438 87.738281 85.085938 86.957031 C 85.023438 86.171875 84.984375 85.398438 84.964844 84.640625 C 84.945312 83.882812 84.945312 83.140625 84.964844 82.414062 C 84.988281 81.6875 85.03125 80.980469 85.09375 80.292969 C 85.15625 79.605469 85.242188 78.941406 85.34375 78.300781 C 85.449219 77.65625 85.574219 77.042969 85.71875 76.453125 C 85.863281 75.863281 86.027344 75.304688 86.210938 74.773438 C 86.394531 74.242188 86.597656 73.742188 86.816406 73.273438 C 87.035156 72.804688 87.273438 72.371094 87.53125 71.96875 C 87.785156 71.566406 88.054688 71.203125 88.34375 70.871094 C 88.632812 70.542969 88.933594 70.25 89.25 69.996094 C 89.566406 69.742188 89.898438 69.523438 90.242188 69.34375 C 90.585938 69.167969 90.941406 69.027344 91.308594 68.929688 C 91.675781 68.828125 92.050781 68.769531 92.4375 68.75 C 92.824219 68.730469 93.21875 68.75 93.621094 68.808594 C 94.027344 68.867188 94.433594 68.96875 94.847656 69.105469 C 95.265625 69.246094 95.683594 69.425781 96.105469 69.640625 C 96.527344 69.859375 96.953125 70.113281 97.378906 70.40625 C 97.808594 70.699219 98.234375 71.027344 98.660156 71.394531 C 99.089844 71.757812 99.511719 72.160156 99.933594 72.59375 C 100.359375 73.03125 100.777344 73.496094 101.191406 73.996094 C 101.605469 74.5 102.015625 75.027344 102.417969 75.589844 C 102.820312 76.152344 103.210938 76.738281 103.597656 77.355469 C 103.984375 77.972656 104.359375 78.613281 104.726562 79.277344 C 105.09375 79.941406 105.449219 80.628906 105.789062 81.335938 C 106.132812 82.042969 106.464844 82.769531 106.78125 83.511719 C 107.097656 84.257812 107.398438 85.015625 107.683594 85.785156 C 107.96875 86.558594 108.242188 87.34375 108.496094 88.136719 C 108.75 88.929688 108.984375 89.730469 109.203125 90.539062 Z M 109.203125 90.539062 " fill-opacity="1" fill-rule="nonzero"/></g></g></g></g><g clip-path="url(#c1162d368e)"><g clip-path="url(#e6db45136b)"><g clip-path="url(#14661453ab)"><g clip-path="url(#9a50bb0d2a)"><path fill="#664500" d="M 167.46875 74.722656 C 167.6875 75.53125 167.890625 76.339844 168.070312 77.152344 C 168.253906 77.964844 168.417969 78.777344 168.558594 79.589844 C 168.703125 80.402344 168.824219 81.207031 168.929688 82.007812 C 169.03125 82.808594 169.113281 83.601562 169.175781 84.386719 C 169.238281 85.171875 169.28125 85.941406 169.300781 86.703125 C 169.320312 87.460938 169.320312 88.203125 169.296875 88.929688 C 169.277344 89.65625 169.234375 90.363281 169.171875 91.050781 C 169.105469 91.738281 169.023438 92.402344 168.917969 93.042969 C 168.8125 93.683594 168.691406 94.300781 168.546875 94.890625 C 168.402344 95.476562 168.238281 96.039062 168.054688 96.570312 C 167.871094 97.101562 167.667969 97.601562 167.449219 98.070312 C 167.226562 98.539062 166.988281 98.972656 166.734375 99.375 C 166.480469 99.773438 166.207031 100.140625 165.921875 100.46875 C 165.632812 100.800781 165.332031 101.09375 165.011719 101.347656 C 164.695312 101.601562 164.367188 101.820312 164.023438 101.996094 C 163.679688 102.175781 163.324219 102.316406 162.957031 102.414062 C 162.589844 102.515625 162.210938 102.574219 161.824219 102.59375 C 161.4375 102.613281 161.042969 102.59375 160.640625 102.535156 C 160.238281 102.472656 159.828125 102.375 159.414062 102.234375 C 159 102.097656 158.582031 101.917969 158.160156 101.703125 C 157.734375 101.484375 157.3125 101.230469 156.882812 100.9375 C 156.457031 100.644531 156.03125 100.316406 155.601562 99.949219 C 155.175781 99.582031 154.75 99.183594 154.328125 98.75 C 153.90625 98.3125 153.488281 97.84375 153.074219 97.34375 C 152.660156 96.84375 152.25 96.3125 151.847656 95.753906 C 151.445312 95.191406 151.050781 94.601562 150.664062 93.988281 C 150.28125 93.371094 149.902344 92.730469 149.535156 92.066406 C 149.171875 91.402344 148.816406 90.714844 148.472656 90.007812 C 148.128906 89.300781 147.800781 88.574219 147.484375 87.828125 C 147.167969 87.085938 146.867188 86.328125 146.582031 85.554688 C 146.292969 84.785156 146.023438 84 145.769531 83.207031 C 145.515625 82.414062 145.277344 81.613281 145.058594 80.804688 C 144.839844 79.996094 144.640625 79.1875 144.457031 78.375 C 144.277344 77.5625 144.113281 76.75 143.96875 75.9375 C 143.828125 75.125 143.703125 74.320312 143.601562 73.519531 C 143.496094 72.71875 143.414062 71.925781 143.351562 71.140625 C 143.289062 70.355469 143.25 69.585938 143.230469 68.824219 C 143.207031 68.066406 143.210938 67.324219 143.230469 66.597656 C 143.253906 65.871094 143.292969 65.164062 143.359375 64.476562 C 143.421875 63.789062 143.503906 63.125 143.609375 62.484375 C 143.714844 61.84375 143.839844 61.226562 143.984375 60.636719 C 144.128906 60.046875 144.292969 59.488281 144.476562 58.957031 C 144.660156 58.425781 144.859375 57.925781 145.082031 57.457031 C 145.300781 56.988281 145.539062 56.554688 145.792969 56.152344 C 146.050781 55.753906 146.320312 55.386719 146.609375 55.058594 C 146.894531 54.726562 147.199219 54.433594 147.515625 54.179688 C 147.832031 53.925781 148.164062 53.707031 148.507812 53.53125 C 148.851562 53.351562 149.207031 53.210938 149.574219 53.113281 C 149.941406 53.011719 150.316406 52.953125 150.703125 52.933594 C 151.089844 52.914062 151.484375 52.933594 151.886719 52.992188 C 152.289062 53.054688 152.699219 53.152344 153.113281 53.292969 C 153.527344 53.429688 153.949219 53.609375 154.371094 53.824219 C 154.792969 54.042969 155.21875 54.296875 155.644531 54.589844 C 156.074219 54.882812 156.5 55.210938 156.925781 55.578125 C 157.351562 55.941406 157.777344 56.34375 158.199219 56.777344 C 158.625 57.214844 159.042969 57.683594 159.457031 58.183594 C 159.871094 58.683594 160.277344 59.214844 160.679688 59.773438 C 161.082031 60.335938 161.476562 60.921875 161.863281 61.539062 C 162.25 62.15625 162.625 62.796875 162.992188 63.460938 C 163.359375 64.125 163.714844 64.8125 164.054688 65.519531 C 164.398438 66.226562 164.726562 66.953125 165.042969 67.699219 C 165.359375 68.441406 165.664062 69.199219 165.949219 69.972656 C 166.234375 70.742188 166.503906 71.527344 166.757812 72.320312 C 167.011719 73.113281 167.25 73.914062 167.46875 74.722656 Z M 167.46875 74.722656 " fill-opacity="1" fill-rule="nonzero"/></g></g></g></g><g clip-path="url(#91ddf4540f)"><g clip-path="url(#4b24f9d342)"><g clip-path="url(#e68031599e)"><g clip-path="url(#6a867ffda2)"><path fill="#664500" d="M 138.691406 128.25 C 122.453125 132.65625 111.164062 133.691406 97.136719 134.714844 C 93.933594 134.957031 88.171875 137.148438 90.605469 146.113281 C 95.472656 164.042969 122.148438 180.859375 150.855469 173.070312 C 179.558594 165.277344 194.074219 137.277344 189.207031 119.347656 C 186.773438 110.386719 180.691406 111.402344 177.808594 112.820312 C 165.1875 119.027344 154.925781 123.84375 138.691406 128.25 Z M 138.691406 128.25 " fill-opacity="1" fill-rule="nonzero"/></g></g></g></g><g clip-path="url(#b5ec205ef4)"><g clip-path="url(#490577eb4f)"><g clip-path="url(#06f516e049)"><g clip-path="url(#ccce9fa52d)"><path fill="#ffffff" d="M 99.570312 143.679688 C 99.570312 143.679688 114.230469 144.511719 141.121094 137.214844 C 168.015625 129.914062 180.242188 121.78125 180.242188 121.78125 C 180.242188 121.78125 176.144531 142.144531 144.773438 150.660156 C 113.398438 159.175781 99.570312 143.679688 99.570312 143.679688 Z M 99.570312 143.679688 " fill-opacity="1" fill-rule="nonzero"/></g></g></g></g><g clip-path="url(#dd819e6a56)"><g clip-path="url(#02d606aa5c)"><g clip-path="url(#b2de8da696)"><g clip-path="url(#7149d2597c)"><path fill="#ffcc4d" d="M 323.640625 232.746094 C 312.542969 266.339844 276.3125 284.578125 242.71875 273.484375 C 209.125 262.386719 190.882812 226.15625 201.980469 192.558594 C 213.074219 158.96875 249.3125 140.726562 282.902344 151.824219 C 316.496094 162.917969 334.734375 199.152344 323.640625 232.746094 " fill-opacity="1" fill-rule="nonzero"/></g></g></g></g><g clip-path="url(#a8ff8c0ef8)"><g clip-path="url(#a7110a06b5)"><g clip-path="url(#70f86b0f70)"><g clip-path="url(#6c71cd614d)"><path fill="#664500" d="M 250.410156 204.808594 C 250.152344 205.585938 249.84375 206.335938 249.484375 207.0625 C 249.125 207.789062 248.71875 208.476562 248.269531 209.121094 C 247.820312 209.769531 247.335938 210.367188 246.816406 210.910156 C 246.292969 211.453125 245.746094 211.933594 245.171875 212.355469 C 244.597656 212.773438 244.007812 213.125 243.40625 213.402344 C 242.800781 213.683594 242.195312 213.886719 241.585938 214.011719 C 240.972656 214.140625 240.371094 214.191406 239.777344 214.164062 C 239.183594 214.136719 238.609375 214.027344 238.054688 213.847656 C 237.5 213.664062 236.972656 213.40625 236.480469 213.074219 C 235.984375 212.742188 235.53125 212.34375 235.117188 211.878906 C 234.703125 211.410156 234.335938 210.886719 234.019531 210.300781 C 233.699219 209.71875 233.433594 209.085938 233.222656 208.410156 C 233.011719 207.730469 232.859375 207.015625 232.765625 206.269531 C 232.671875 205.519531 232.636719 204.753906 232.660156 203.964844 C 232.683594 203.179688 232.769531 202.386719 232.910156 201.589844 C 233.054688 200.789062 233.253906 200.003906 233.511719 199.226562 C 233.769531 198.449219 234.078125 197.699219 234.4375 196.972656 C 234.796875 196.246094 235.199219 195.5625 235.648438 194.914062 C 236.097656 194.265625 236.585938 193.671875 237.105469 193.125 C 237.628906 192.582031 238.175781 192.101562 238.75 191.679688 C 239.324219 191.261719 239.910156 190.910156 240.515625 190.632812 C 241.117188 190.355469 241.726562 190.148438 242.335938 190.023438 C 242.949219 189.894531 243.550781 189.84375 244.144531 189.871094 C 244.738281 189.902344 245.3125 190.007812 245.867188 190.191406 C 246.421875 190.371094 246.945312 190.628906 247.441406 190.960938 C 247.933594 191.292969 248.386719 191.691406 248.804688 192.15625 C 249.21875 192.625 249.582031 193.148438 249.902344 193.734375 C 250.222656 194.316406 250.484375 194.949219 250.695312 195.628906 C 250.90625 196.304688 251.0625 197.019531 251.15625 197.765625 C 251.25 198.515625 251.285156 199.28125 251.261719 200.070312 C 251.234375 200.855469 251.152344 201.648438 251.007812 202.449219 C 250.867188 203.246094 250.664062 204.03125 250.410156 204.808594 Z M 250.410156 204.808594 " fill-opacity="1" fill-rule="nonzero"/></g></g></g></g><g clip-path="url(#09bd4535a7)"><g clip-path="url(#50042990e5)"><g clip-path="url(#44128bb5bf)"><g clip-path="url(#22d2d1ef56)"><path fill="#664500" d="M 294.34375 219.320312 C 294.085938 220.097656 293.777344 220.847656 293.417969 221.574219 C 293.058594 222.300781 292.652344 222.984375 292.203125 223.632812 C 291.753906 224.28125 291.269531 224.875 290.746094 225.421875 C 290.226562 225.964844 289.679688 226.445312 289.105469 226.867188 C 288.53125 227.285156 287.941406 227.636719 287.339844 227.914062 C 286.734375 228.191406 286.128906 228.398438 285.515625 228.523438 C 284.90625 228.652344 284.304688 228.703125 283.710938 228.675781 C 283.117188 228.644531 282.542969 228.539062 281.988281 228.355469 C 281.429688 228.175781 280.90625 227.917969 280.414062 227.585938 C 279.917969 227.253906 279.464844 226.855469 279.050781 226.390625 C 278.636719 225.921875 278.269531 225.398438 277.949219 224.8125 C 277.632812 224.230469 277.367188 223.597656 277.15625 222.917969 C 276.945312 222.242188 276.792969 221.527344 276.699219 220.78125 C 276.601562 220.03125 276.566406 219.265625 276.59375 218.476562 C 276.617188 217.691406 276.703125 216.898438 276.84375 216.097656 C 276.988281 215.300781 277.1875 214.515625 277.445312 213.738281 C 277.699219 212.960938 278.007812 212.210938 278.367188 211.484375 C 278.730469 210.757812 279.132812 210.070312 279.582031 209.425781 C 280.03125 208.777344 280.515625 208.179688 281.039062 207.636719 C 281.558594 207.09375 282.109375 206.613281 282.683594 206.191406 C 283.253906 205.773438 283.84375 205.421875 284.449219 205.144531 C 285.050781 204.863281 285.660156 204.660156 286.269531 204.535156 C 286.878906 204.40625 287.484375 204.355469 288.078125 204.382812 C 288.671875 204.410156 289.246094 204.519531 289.800781 204.699219 C 290.355469 204.882812 290.878906 205.140625 291.375 205.472656 C 291.867188 205.804688 292.320312 206.203125 292.734375 206.667969 C 293.148438 207.136719 293.515625 207.660156 293.835938 208.246094 C 294.152344 208.828125 294.417969 209.460938 294.628906 210.136719 C 294.839844 210.816406 294.992188 211.53125 295.089844 212.277344 C 295.183594 213.027344 295.21875 213.792969 295.195312 214.582031 C 295.167969 215.367188 295.085938 216.160156 294.941406 216.957031 C 294.796875 217.757812 294.597656 218.542969 294.34375 219.320312 Z M 294.34375 219.320312 " fill-opacity="1" fill-rule="nonzero"/></g></g></g></g><g clip-path="url(#bf3154739f)"><g clip-path="url(#3e25e86fd5)"><g clip-path="url(#fa84907bd7)"><g clip-path="url(#0021f75a32)"><path fill="#664500" d="M 227.277344 184.050781 C 226.574219 183.816406 225.933594 183.363281 225.476562 182.703125 C 224.351562 181.09375 224.75 178.875 226.363281 177.75 C 242.242188 166.691406 257.011719 171.382812 257.632812 171.585938 C 259.5 172.203125 260.511719 174.21875 259.898438 176.082031 C 259.28125 177.945312 257.277344 178.960938 255.414062 178.351562 C 254.890625 178.183594 243.261719 174.660156 230.429688 183.589844 C 229.476562 184.257812 228.304688 184.390625 227.277344 184.050781 Z M 308.390625 210.839844 C 307.359375 210.5 306.503906 209.699219 306.128906 208.59375 C 301.136719 193.75 289.664062 189.667969 289.175781 189.503906 C 287.324219 188.867188 286.324219 186.851562 286.949219 185 C 287.574219 183.140625 289.570312 182.136719 291.429688 182.75 C 292.050781 182.957031 306.707031 187.984375 312.875 206.324219 C 313.503906 208.191406 312.5 210.207031 310.636719 210.835938 C 309.878906 211.089844 309.097656 211.074219 308.390625 210.839844 Z M 269.761719 253.851562 C 269.773438 253.691406 270.78125 237.773438 256.113281 232.929688 C 241.445312 228.085938 232.773438 241.46875 232.6875 241.605469 C 232.273438 242.265625 232.355469 243.109375 232.867188 243.703125 C 233.375 244.292969 234.234375 244.476562 234.945312 244.164062 C 234.984375 244.148438 239.332031 242.378906 251.648438 246.449219 C 263.78125 250.453125 266.324219 254.40625 266.417969 254.5625 C 266.640625 254.972656 267.007812 255.269531 267.429688 255.40625 C 267.714844 255.5 268.023438 255.527344 268.332031 255.464844 C 269.121094 255.308594 269.703125 254.648438 269.761719 253.851562 Z M 269.761719 253.851562 " fill-opacity="1" fill-rule="nonzero"/></g></g></g></g><g clip-path="url(#0c8101a0e5)"><g clip-path="url(#3e5fe80674)"><g clip-path="url(#996571be16)"><g clip-path="url(#cbad50946d)"><path fill="#5dadec" d="M 241.539062 254.351562 C 238.457031 263.6875 228.394531 268.753906 219.0625 265.667969 C 209.726562 262.585938 204.664062 252.523438 207.746094 243.191406 C 210.828125 233.855469 232.425781 213.859375 235.804688 214.976562 C 239.183594 216.09375 244.625 245.019531 241.539062 254.351562 Z M 241.539062 254.351562 " fill-opacity="1" fill-rule="nonzero"/></g></g></g></g><g clip-path="url(#b00f3c001a)"><g clip-path="url(#0e3000ce84)"><g clip-path="url(#1cf4ff871f)"><g clip-path="url(#9d6b42fa80)"><path fill="#ffcc4d" d="M 139.699219 234.761719 C 147.328125 253.730469 138.253906 275.242188 119.441406 282.804688 C 100.625 290.367188 79.1875 281.125 71.5625 262.15625 C 63.9375 243.1875 73.011719 221.675781 91.824219 214.113281 C 110.640625 206.546875 132.074219 215.796875 139.699219 234.761719 " fill-opacity="1" fill-rule="nonzero"/></g></g></g></g><g clip-path="url(#83bb57c724)"><g clip-path="url(#8e310cb089)"><g clip-path="url(#fb7cb9ce06)"><g clip-path="url(#97f830d344)"><path fill="#664500" d="M 121.691406 247.871094 C 122.089844 248.863281 122.398438 249.886719 122.609375 250.933594 C 122.824219 251.984375 122.9375 253.035156 122.953125 254.097656 C 122.972656 255.160156 122.890625 256.207031 122.710938 257.238281 C 122.53125 258.273438 122.257812 259.269531 121.890625 260.234375 C 121.519531 261.203125 121.066406 262.113281 120.519531 262.976562 C 119.976562 263.835938 119.355469 264.628906 118.660156 265.351562 C 117.960938 266.074219 117.199219 266.714844 116.375 267.269531 C 115.546875 267.828125 114.675781 268.292969 113.753906 268.664062 C 112.832031 269.03125 111.882812 269.300781 110.902344 269.472656 C 109.917969 269.640625 108.925781 269.707031 107.921875 269.667969 C 106.917969 269.628906 105.921875 269.488281 104.933594 269.242188 C 103.945312 268.996094 102.984375 268.652344 102.050781 268.210938 C 101.117188 267.769531 100.226562 267.238281 99.382812 266.617188 C 98.539062 265.996094 97.753906 265.296875 97.035156 264.519531 C 96.3125 263.742188 95.664062 262.902344 95.09375 261.996094 C 94.519531 261.09375 94.035156 260.144531 93.632812 259.148438 C 93.234375 258.15625 92.929688 257.132812 92.714844 256.085938 C 92.503906 255.035156 92.386719 253.980469 92.371094 252.921875 C 92.355469 251.859375 92.433594 250.8125 92.613281 249.78125 C 92.792969 248.746094 93.066406 247.75 93.4375 246.78125 C 93.804688 245.816406 94.261719 244.90625 94.804688 244.042969 C 95.347656 243.183594 95.96875 242.390625 96.667969 241.667969 C 97.363281 240.945312 98.125 240.304688 98.953125 239.75 C 99.777344 239.191406 100.648438 238.726562 101.570312 238.355469 C 102.492188 237.988281 103.445312 237.71875 104.425781 237.546875 C 105.40625 237.378906 106.398438 237.3125 107.402344 237.351562 C 108.40625 237.390625 109.402344 237.53125 110.390625 237.777344 C 111.378906 238.023438 112.339844 238.367188 113.273438 238.808594 C 114.210938 239.25 115.097656 239.78125 115.941406 240.402344 C 116.785156 241.023438 117.570312 241.722656 118.292969 242.5 C 119.015625 243.277344 119.660156 244.117188 120.234375 245.023438 C 120.804688 245.925781 121.292969 246.875 121.691406 247.871094 Z M 121.691406 247.871094 " fill-opacity="1" fill-rule="nonzero"/></g></g></g></g><g clip-path="url(#6da85ba724)"><g clip-path="url(#25698c22f1)"><g clip-path="url(#7f0b9198a0)"><g clip-path="url(#129633f611)"><path fill="#f4900c" d="M 123.011719 265.8125 C 123.011719 265.8125 124.421875 263.550781 122.03125 262.417969 C 119.636719 261.285156 118.824219 263.828125 118.824219 263.828125 L 113.652344 274.980469 C 113.34375 274.625 112.128906 273.851562 111.777344 273.511719 L 118.953125 258.035156 C 118.953125 258.035156 120.367188 255.773438 117.972656 254.640625 C 115.578125 253.507812 114.761719 256.046875 114.761719 256.046875 L 108.011719 270.605469 C 107.632812 270.386719 106.648438 269.886719 106.253906 269.671875 L 114.082031 252.796875 C 114.082031 252.796875 115.492188 250.535156 113.097656 249.40625 C 110.707031 248.269531 109.890625 250.8125 109.890625 250.8125 L 102.058594 267.6875 C 101.640625 267.515625 100.339844 266.949219 99.921875 266.792969 L 107.238281 251.023438 C 107.238281 251.023438 108.648438 248.761719 106.253906 247.628906 C 103.859375 246.496094 103.046875 249.039062 103.046875 249.039062 L 95.3125 265.714844 L 94.691406 267.050781 L 94.421875 267.648438 C 94.421875 267.648438 93.945312 269.585938 92.386719 268.886719 L 92.703125 259 C 92.703125 259 92.992188 256.363281 90.371094 256.054688 C 87.742188 255.746094 87.453125 258.382812 87.453125 258.382812 L 86.351562 265.300781 C 85.910156 268.042969 85.417969 270.785156 84.597656 273.4375 C 82.289062 280.921875 85.78125 289.1875 93.054688 292.636719 C 100.988281 296.390625 110.410156 292.984375 114.101562 285.027344 L 114.65625 283.824219 Z M 123.011719 265.8125 " fill-opacity="1" fill-rule="nonzero"/></g></g></g></g><g clip-path="url(#68234326da)"><g clip-path="url(#c1b19c9aef)"><g clip-path="url(#1becb34738)"><g clip-path="url(#21ef8d4e89)"><path fill="#664500" d="M 82.765625 232.023438 C 78.738281 235.058594 77.386719 238.796875 77.308594 239.027344 C 76.914062 240.160156 77.511719 241.40625 78.636719 241.808594 C 79.765625 242.210938 80.996094 241.621094 81.390625 240.488281 C 81.476562 240.25 83.75 234.253906 91.820312 232.792969 C 93 232.582031 93.773438 231.449219 93.554688 230.269531 C 93.335938 229.085938 92.207031 228.296875 91.035156 228.511719 C 87.484375 229.148438 84.789062 230.5 82.765625 232.023438 Z M 110.761719 220.773438 C 108.246094 221.070312 105.367188 221.964844 102.359375 223.957031 C 101.363281 224.617188 101.09375 225.964844 101.753906 226.96875 C 102.417969 227.972656 103.757812 228.25 104.753906 227.59375 C 111.597656 223.050781 117.378906 225.8125 117.621094 225.933594 C 118.6875 226.457031 119.984375 226.023438 120.511719 224.953125 C 121.035156 223.882812 120.609375 222.589844 119.546875 222.046875 C 119.328125 221.9375 115.769531 220.175781 110.761719 220.773438 Z M 110.761719 220.773438 " fill-opacity="1" fill-rule="nonzero"/></g></g></g></g><g clip-path="url(#aea1ac7981)"><g clip-path="url(#d4fd2dea61)"><g clip-path="url(#a7fdd4cb7e)"><g clip-path="url(#7789b7d4c5)"><path fill="#ffcc4d" d="M 337.097656 81.476562 C 340.5625 109.308594 320.8125 134.679688 292.980469 138.144531 C 265.15625 141.613281 239.78125 121.859375 236.3125 94.03125 C 232.847656 66.203125 252.601562 40.828125 280.429688 37.363281 C 308.257812 33.894531 333.632812 53.648438 337.097656 81.476562 " fill-opacity="1" fill-rule="nonzero"/></g></g></g></g><g clip-path="url(#4508e5c8f6)"><g clip-path="url(#b6b305c895)"><g clip-path="url(#837c310eca)"><g clip-path="url(#75291c4773)"><path fill="#664500" d="M 303.839844 111.207031 C 303.980469 112.308594 304.023438 113.414062 303.980469 114.515625 C 303.9375 115.621094 303.800781 116.703125 303.578125 117.765625 C 303.351562 118.832031 303.039062 119.851562 302.644531 120.832031 C 302.25 121.8125 301.773438 122.734375 301.222656 123.59375 C 300.667969 124.457031 300.046875 125.238281 299.359375 125.949219 C 298.671875 126.65625 297.929688 127.273438 297.132812 127.800781 C 296.335938 128.328125 295.5 128.757812 294.625 129.085938 C 293.75 129.410156 292.855469 129.632812 291.9375 129.746094 C 291.015625 129.863281 290.09375 129.867188 289.164062 129.765625 C 288.238281 129.660156 287.320312 129.453125 286.417969 129.136719 C 285.519531 128.820312 284.648438 128.402344 283.804688 127.886719 C 282.964844 127.367188 282.171875 126.757812 281.425781 126.058594 C 280.679688 125.363281 279.992188 124.585938 279.367188 123.730469 C 278.742188 122.878906 278.191406 121.964844 277.710938 120.988281 C 277.234375 120.015625 276.835938 118.996094 276.523438 117.9375 C 276.207031 116.878906 275.984375 115.796875 275.847656 114.695312 C 275.707031 113.589844 275.660156 112.488281 275.707031 111.382812 C 275.75 110.277344 275.886719 109.195312 276.109375 108.132812 C 276.335938 107.070312 276.644531 106.046875 277.042969 105.066406 C 277.4375 104.085938 277.914062 103.167969 278.464844 102.304688 C 279.019531 101.445312 279.640625 100.660156 280.328125 99.953125 C 281.015625 99.246094 281.757812 98.625 282.554688 98.097656 C 283.351562 97.570312 284.1875 97.144531 285.0625 96.816406 C 285.933594 96.488281 286.832031 96.265625 287.75 96.152344 C 288.671875 96.039062 289.59375 96.03125 290.523438 96.136719 C 291.449219 96.238281 292.367188 96.449219 293.265625 96.765625 C 294.167969 97.082031 295.039062 97.496094 295.878906 98.015625 C 296.722656 98.53125 297.515625 99.140625 298.261719 99.839844 C 299.007812 100.539062 299.695312 101.316406 300.320312 102.167969 C 300.945312 103.023438 301.496094 103.9375 301.976562 104.910156 C 302.453125 105.886719 302.851562 106.902344 303.164062 107.964844 C 303.476562 109.023438 303.703125 110.105469 303.839844 111.207031 Z M 303.839844 111.207031 " fill-opacity="1" fill-rule="nonzero"/></g></g></g></g><g clip-path="url(#f188cac3d2)"><g clip-path="url(#1934f4ad50)"><g clip-path="url(#18bd1aaffb)"><g clip-path="url(#e81b1216c8)"><path fill="#664500" d="M 250.667969 72.34375 C 250.085938 72.414062 249.472656 72.304688 248.921875 71.992188 C 247.566406 71.21875 247.101562 69.496094 247.871094 68.140625 C 255.488281 54.824219 267.660156 53.167969 268.175781 53.105469 C 269.71875 52.910156 271.128906 54.007812 271.324219 55.554688 C 271.515625 57.097656 270.425781 58.503906 268.882812 58.703125 C 268.449219 58.761719 258.925781 60.1875 252.769531 70.941406 C 252.3125 71.746094 251.519531 72.234375 250.667969 72.34375 Z M 317.863281 63.972656 C 317.007812 64.078125 316.121094 63.796875 315.480469 63.132812 C 306.859375 54.195312 297.257812 55.171875 296.851562 55.21875 C 295.308594 55.394531 293.910156 54.289062 293.726562 52.75 C 293.542969 51.207031 294.628906 49.808594 296.167969 49.617188 C 296.683594 49.550781 308.890625 48.175781 319.539062 59.214844 C 320.625 60.335938 320.589844 62.125 319.46875 63.203125 C 319.011719 63.644531 318.445312 63.898438 317.863281 63.972656 Z M 317.863281 63.972656 " fill-opacity="1" fill-rule="nonzero"/></g></g></g></g><g clip-path="url(#4f91b2fca1)"><g clip-path="url(#fd8eb1d3ef)"><g clip-path="url(#1fea5a84e1)"><g clip-path="url(#d9fdcc7962)"><path fill="#f5f8fa" d="M 288.449219 101.753906 C 283.808594 102.328125 280.675781 107.808594 281.445312 113.996094 L 298.242188 111.902344 C 297.472656 105.71875 293.085938 101.175781 288.449219 101.753906 Z M 288.449219 101.753906 " fill-opacity="1" fill-rule="nonzero"/></g></g></g></g><g clip-path="url(#f222bad5ae)"><g clip-path="url(#558cd5fe36)"><g clip-path="url(#42cfcd63d4)"><g clip-path="url(#aedda823f1)"><path fill="#664500" d="M 275.6875 79.175781 C 275.765625 79.820312 275.800781 80.460938 275.789062 81.105469 C 275.777344 81.746094 275.722656 82.375 275.621094 82.992188 C 275.519531 83.609375 275.375 84.199219 275.183594 84.765625 C 274.996094 85.332031 274.769531 85.863281 274.5 86.359375 C 274.230469 86.855469 273.929688 87.304688 273.589844 87.710938 C 273.253906 88.117188 272.886719 88.46875 272.492188 88.765625 C 272.097656 89.066406 271.683594 89.304688 271.25 89.488281 C 270.816406 89.667969 270.367188 89.789062 269.90625 89.847656 C 269.449219 89.902344 268.984375 89.898438 268.519531 89.828125 C 268.050781 89.757812 267.59375 89.628906 267.136719 89.433594 C 266.679688 89.242188 266.242188 88.988281 265.8125 88.679688 C 265.386719 88.371094 264.984375 88.007812 264.601562 87.59375 C 264.21875 87.179688 263.867188 86.71875 263.546875 86.214844 C 263.222656 85.714844 262.9375 85.175781 262.6875 84.601562 C 262.4375 84.03125 262.230469 83.433594 262.0625 82.816406 C 261.894531 82.195312 261.769531 81.5625 261.6875 80.917969 C 261.609375 80.277344 261.574219 79.632812 261.585938 78.992188 C 261.597656 78.347656 261.652344 77.71875 261.753906 77.105469 C 261.855469 76.488281 262 75.894531 262.191406 75.328125 C 262.378906 74.761719 262.605469 74.230469 262.875 73.734375 C 263.144531 73.242188 263.445312 72.789062 263.785156 72.386719 C 264.121094 71.980469 264.488281 71.628906 264.882812 71.328125 C 265.277344 71.03125 265.691406 70.789062 266.125 70.609375 C 266.558594 70.425781 267.007812 70.308594 267.46875 70.25 C 267.925781 70.191406 268.390625 70.199219 268.855469 70.269531 C 269.320312 70.335938 269.78125 70.46875 270.238281 70.660156 C 270.695312 70.855469 271.132812 71.105469 271.5625 71.417969 C 271.988281 71.726562 272.390625 72.089844 272.773438 72.503906 C 273.15625 72.917969 273.507812 73.375 273.828125 73.878906 C 274.152344 74.382812 274.4375 74.921875 274.6875 75.492188 C 274.9375 76.066406 275.144531 76.660156 275.3125 77.28125 C 275.480469 77.902344 275.605469 78.53125 275.6875 79.175781 Z M 275.6875 79.175781 " fill-opacity="1" fill-rule="nonzero"/></g></g></g></g><g clip-path="url(#78e8e2f5d0)"><g clip-path="url(#cebbbc6b31)"><g clip-path="url(#a7bed4e073)"><g clip-path="url(#8e6f0817c7)"><path fill="#664500" d="M 309.28125 74.992188 C 309.359375 75.636719 309.394531 76.277344 309.382812 76.921875 C 309.375 77.5625 309.316406 78.191406 309.214844 78.808594 C 309.113281 79.425781 308.96875 80.015625 308.78125 80.582031 C 308.589844 81.148438 308.363281 81.679688 308.09375 82.175781 C 307.824219 82.671875 307.523438 83.121094 307.183594 83.527344 C 306.847656 83.929688 306.480469 84.285156 306.089844 84.582031 C 305.695312 84.882812 305.28125 85.121094 304.84375 85.304688 C 304.410156 85.484375 303.960938 85.605469 303.503906 85.660156 C 303.042969 85.71875 302.578125 85.714844 302.113281 85.644531 C 301.648438 85.574219 301.1875 85.441406 300.730469 85.25 C 300.277344 85.054688 299.835938 84.804688 299.410156 84.496094 C 298.980469 84.183594 298.578125 83.824219 298.195312 83.410156 C 297.8125 82.996094 297.460938 82.535156 297.140625 82.03125 C 296.820312 81.527344 296.53125 80.992188 296.28125 80.417969 C 296.03125 79.847656 295.824219 79.25 295.65625 78.628906 C 295.488281 78.011719 295.363281 77.378906 295.28125 76.734375 C 295.203125 76.09375 295.167969 75.449219 295.179688 74.808594 C 295.191406 74.164062 295.246094 73.535156 295.347656 72.917969 C 295.449219 72.304688 295.597656 71.710938 295.785156 71.144531 C 295.972656 70.578125 296.203125 70.046875 296.46875 69.550781 C 296.738281 69.054688 297.042969 68.605469 297.378906 68.199219 C 297.714844 67.796875 298.082031 67.445312 298.476562 67.144531 C 298.871094 66.84375 299.285156 66.605469 299.71875 66.421875 C 300.15625 66.242188 300.601562 66.121094 301.0625 66.066406 C 301.519531 66.007812 301.984375 66.015625 302.449219 66.082031 C 302.917969 66.152344 303.378906 66.285156 303.832031 66.476562 C 304.289062 66.671875 304.730469 66.921875 305.15625 67.230469 C 305.582031 67.542969 305.988281 67.902344 306.367188 68.320312 C 306.75 68.734375 307.101562 69.191406 307.421875 69.695312 C 307.746094 70.199219 308.03125 70.734375 308.28125 71.308594 C 308.53125 71.882812 308.738281 72.476562 308.910156 73.097656 C 309.078125 73.71875 309.199219 74.347656 309.28125 74.992188 Z M 309.28125 74.992188 " fill-opacity="1" fill-rule="nonzero"/></g></g></g></g><g fill="#000000" fill-opacity="1"><g transform="translate(97.571328, 350.845916)"><g><path d="M 3.628906 0.140625 L 4.148438 -0.046875 C 4.996094 -0.09375 5.75 -0.140625 6.410156 -0.1875 C 7.070312 -0.234375 7.636719 -0.28125 8.152344 -0.378906 C 9.097656 -0.472656 9.851562 -0.566406 10.414062 -0.660156 C 10.980469 -0.753906 11.3125 -0.847656 11.5 -0.988281 C 11.6875 -1.132812 11.875 -1.320312 12.019531 -1.554688 C 11.734375 -1.980469 11.3125 -2.261719 10.839844 -2.402344 C 10.367188 -2.496094 9.804688 -2.59375 9.144531 -2.59375 C 8.8125 -2.59375 8.484375 -2.546875 8.199219 -2.546875 C 7.917969 -2.546875 7.589844 -2.496094 7.257812 -2.496094 C 6.597656 -2.402344 5.984375 -2.402344 5.46875 -2.496094 C 5.371094 -2.6875 5.324219 -2.78125 5.324219 -2.875 C 5.230469 -2.96875 5.230469 -3.0625 5.230469 -3.15625 L 5.230469 -15.082031 C 5.230469 -15.269531 5.230469 -15.410156 5.277344 -15.457031 C 5.277344 -15.457031 5.324219 -15.601562 5.421875 -15.882812 C 5.796875 -15.976562 6.269531 -16.070312 6.832031 -16.070312 L 8.246094 -16.070312 C 8.625 -16.070312 9.097656 -16.117188 9.660156 -16.308594 C 10.085938 -16.402344 10.511719 -16.683594 10.980469 -17.15625 C 10.605469 -17.484375 10.132812 -17.722656 9.613281 -17.910156 C 9.050781 -18.050781 8.578125 -18.144531 8.199219 -18.144531 L 6.785156 -18.144531 C 6.269531 -18.144531 5.796875 -18.191406 5.421875 -18.285156 C 5.324219 -18.523438 5.230469 -18.945312 5.136719 -19.605469 C 5.042969 -20.265625 4.949219 -21.019531 4.855469 -21.867188 C 4.761719 -22.292969 4.714844 -22.714844 4.714844 -23.1875 C 4.714844 -23.660156 4.664062 -24.128906 4.664062 -24.648438 C 4.570312 -25.589844 4.523438 -26.535156 4.523438 -27.476562 C 4.476562 -27.902344 4.429688 -28.324219 4.429688 -28.703125 C 4.429688 -29.078125 4.429688 -29.410156 4.429688 -29.785156 L 4.429688 -30.632812 C 4.429688 -30.824219 4.429688 -31.011719 4.476562 -31.152344 C 5.421875 -31.339844 6.175781 -31.4375 6.785156 -31.4375 C 7.304688 -31.386719 7.824219 -31.339844 8.390625 -31.292969 C 8.859375 -31.199219 9.332031 -31.246094 9.707031 -31.339844 C 10.085938 -31.4375 10.605469 -31.71875 11.265625 -32.285156 C 11.027344 -32.613281 10.746094 -32.847656 10.414062 -33.039062 C 10.039062 -33.179688 9.707031 -33.273438 9.378906 -33.320312 C 9.144531 -33.320312 8.90625 -33.367188 8.625 -33.367188 C 8.34375 -33.367188 8.011719 -33.414062 7.683594 -33.507812 C 7.304688 -33.554688 6.976562 -33.605469 6.597656 -33.605469 C 6.222656 -33.605469 5.796875 -33.652344 5.371094 -33.699219 C 4.902344 -33.699219 4.476562 -33.699219 4.054688 -33.699219 C 3.582031 -33.699219 3.15625 -33.652344 2.6875 -33.605469 C 1.742188 -33.507812 0.800781 -33.320312 -0.140625 -33.039062 C -0.234375 -32.519531 -0.28125 -32.046875 -0.328125 -31.578125 C -0.378906 -31.105469 -0.378906 -30.679688 -0.378906 -30.257812 L -0.378906 -28.890625 C -0.378906 -28.417969 -0.378906 -27.949219 -0.328125 -27.429688 C -0.328125 -26.863281 -0.28125 -26.296875 -0.28125 -25.734375 C -0.28125 -25.167969 -0.234375 -24.507812 -0.140625 -23.847656 C -0.046875 -22.433594 0.046875 -20.738281 0.140625 -18.851562 C 0.234375 -16.871094 0.328125 -14.515625 0.425781 -11.78125 C 0.472656 -10.367188 0.519531 -8.859375 0.566406 -7.257812 C 0.566406 -5.65625 0.613281 -3.910156 0.660156 -2.027344 C 0.660156 -1.789062 0.660156 -1.601562 0.660156 -1.414062 C 0.660156 -1.226562 0.707031 -1.085938 0.753906 -0.941406 C 0.753906 -0.660156 0.894531 -0.425781 1.179688 -0.234375 C 1.414062 0 1.695312 0.140625 2.074219 0.140625 C 2.449219 0.234375 2.96875 0.234375 3.628906 0.140625 Z M 3.628906 0.140625 "/></g></g></g><g fill="#000000" fill-opacity="1"><g transform="translate(121.41899, 350.845916)"><g><path d="M 16.542969 -2.734375 L 16.871094 -3.015625 C 17.15625 -3.0625 17.390625 -3.109375 17.53125 -3.15625 C 17.671875 -3.15625 17.816406 -3.347656 18.003906 -3.722656 C 18.097656 -4.007812 18.191406 -4.523438 18.285156 -5.277344 C 18.285156 -5.9375 18.285156 -6.976562 18.285156 -8.292969 C 18.238281 -9.566406 18.144531 -11.21875 18.003906 -13.289062 C 17.910156 -14.28125 17.863281 -15.410156 17.769531 -16.683594 C 17.671875 -17.910156 17.53125 -19.324219 17.4375 -20.832031 C 17.34375 -21.398438 17.296875 -21.914062 17.296875 -22.386719 C 17.25 -22.859375 17.203125 -23.234375 17.203125 -23.613281 C 17.15625 -23.941406 17.109375 -24.226562 17.109375 -24.507812 C 17.109375 -24.789062 17.0625 -25.027344 17.015625 -25.308594 C 16.917969 -25.542969 16.871094 -25.78125 16.824219 -26.015625 C 16.730469 -26.203125 16.683594 -26.441406 16.636719 -26.722656 C 16.449219 -27.195312 16.210938 -27.804688 15.929688 -28.5625 C 15.742188 -28.9375 15.503906 -29.21875 15.222656 -29.410156 C 14.847656 -29.597656 14.46875 -29.691406 14.09375 -29.691406 C 13.667969 -29.691406 13.242188 -29.550781 12.867188 -29.316406 C 12.441406 -29.03125 12.113281 -28.65625 11.925781 -28.183594 C 11.734375 -27.902344 11.640625 -27.617188 11.546875 -27.382812 L 11.121094 -26.109375 C 10.933594 -25.542969 10.652344 -24.789062 10.273438 -23.847656 C 10.085938 -23.375 9.851562 -22.8125 9.613281 -22.199219 C 9.378906 -21.539062 9.097656 -20.832031 8.8125 -20.03125 L 8.484375 -20.078125 L 8.199219 -21.113281 C 7.964844 -21.960938 7.683594 -22.8125 7.351562 -23.707031 C 6.976562 -24.554688 6.597656 -25.402344 6.175781 -26.15625 C 5.65625 -27.003906 5.136719 -27.617188 4.570312 -28.042969 C 4.007812 -28.464844 3.441406 -28.703125 2.96875 -28.75 C 2.402344 -28.796875 1.980469 -28.65625 1.601562 -28.324219 C 1.179688 -27.949219 0.894531 -27.476562 0.800781 -26.910156 C 0.613281 -25.96875 0.519531 -24.882812 0.519531 -23.660156 C 0.519531 -23 0.472656 -22.339844 0.425781 -21.679688 C 0.378906 -21.019531 0.328125 -20.3125 0.28125 -19.605469 C 0.140625 -18.285156 0.046875 -16.777344 0 -15.128906 C -0.046875 -14.28125 -0.046875 -13.480469 -0.046875 -12.679688 L -0.046875 -8.246094 C -0.046875 -7.589844 -0.046875 -6.976562 0 -6.410156 C 0 -5.277344 0.046875 -4.570312 0.140625 -4.289062 C 0.234375 -3.816406 0.425781 -3.488281 0.707031 -3.300781 C 0.988281 -3.015625 1.648438 -2.96875 2.6875 -3.0625 C 3.0625 -3.0625 3.394531 -3.203125 3.582031 -3.394531 C 3.769531 -3.582031 3.863281 -3.863281 3.863281 -4.289062 L 3.863281 -5.042969 C 3.863281 -5.324219 3.816406 -5.65625 3.816406 -6.03125 C 3.769531 -6.410156 3.722656 -6.832031 3.722656 -7.304688 C 3.722656 -7.777344 3.722656 -8.34375 3.722656 -9 L 3.722656 -16.355469 C 3.722656 -16.824219 3.722656 -17.203125 3.769531 -17.484375 C 3.769531 -18.003906 3.816406 -18.285156 3.910156 -18.378906 C 3.910156 -18.378906 4.007812 -18.429688 4.195312 -18.523438 C 4.570312 -17.4375 4.855469 -16.589844 5.042969 -15.929688 C 5.230469 -15.175781 5.421875 -14.609375 5.609375 -14.234375 C 5.796875 -13.761719 6.03125 -13.433594 6.222656 -13.289062 C 6.457031 -13.054688 6.832031 -12.914062 7.351562 -12.914062 C 7.917969 -12.820312 8.4375 -12.914062 8.90625 -13.195312 C 9.332031 -13.433594 9.707031 -13.996094 9.992188 -14.894531 C 10.558594 -16.683594 10.980469 -18.097656 11.265625 -19.132812 C 11.40625 -19.605469 11.546875 -20.03125 11.640625 -20.40625 C 11.734375 -20.738281 11.828125 -21.019531 11.925781 -21.253906 C 12.019531 -21.632812 12.160156 -21.867188 12.300781 -22.007812 C 12.347656 -22.058594 12.488281 -22.105469 12.679688 -22.199219 C 12.679688 -21.867188 12.726562 -21.585938 12.726562 -21.351562 L 12.726562 -18.523438 C 12.726562 -18.332031 12.726562 -18.144531 12.773438 -17.910156 C 12.773438 -17.203125 12.820312 -16.210938 12.914062 -14.988281 C 12.914062 -14.328125 12.960938 -13.714844 12.960938 -13.101562 C 12.960938 -12.441406 13.007812 -11.828125 13.101562 -11.167969 C 13.195312 -9.851562 13.289062 -8.578125 13.386719 -7.351562 C 13.433594 -6.691406 13.480469 -6.125 13.527344 -5.65625 C 13.527344 -5.183594 13.574219 -4.761719 13.621094 -4.429688 C 13.621094 -3.628906 13.949219 -3.109375 14.5625 -2.875 C 15.128906 -2.59375 15.789062 -2.546875 16.542969 -2.734375 Z M 16.542969 -2.734375 "/></g></g></g><g fill="#000000" fill-opacity="1"><g transform="translate(151.487797, 350.845916)"><g><path d="M 5.84375 -3.109375 L 5.75 -3.300781 C 7.070312 -3.015625 8.246094 -3.109375 9.191406 -3.488281 C 10.179688 -3.863281 11.027344 -4.429688 11.734375 -5.230469 C 12.394531 -5.984375 12.960938 -6.976562 13.433594 -8.199219 C 13.855469 -9.378906 14.1875 -10.605469 14.421875 -11.925781 C 14.609375 -13.242188 14.75 -14.609375 14.847656 -16.023438 C 14.847656 -17.4375 14.847656 -18.804688 14.847656 -20.171875 C 14.796875 -20.597656 14.75 -21.066406 14.703125 -21.539062 C 14.65625 -22.007812 14.609375 -22.480469 14.515625 -23 C 14.328125 -23.941406 14.042969 -24.835938 13.667969 -25.6875 C 13.289062 -26.441406 12.820312 -27.101562 12.160156 -27.710938 C 11.546875 -28.230469 10.792969 -28.511719 9.898438 -28.609375 C 9.472656 -28.609375 9.097656 -28.703125 8.8125 -28.890625 C 8.4375 -29.078125 8.058594 -29.21875 7.683594 -29.316406 C 7.257812 -29.410156 6.785156 -29.410156 6.222656 -29.316406 C 5.65625 -29.21875 4.996094 -28.9375 4.195312 -28.464844 C 2.921875 -27.617188 2.074219 -26.488281 1.695312 -25.074219 C 0.894531 -22.386719 0.378906 -19.839844 0.1875 -17.4375 C -0.09375 -14.894531 -0.046875 -12.628906 0.328125 -10.652344 C 0.613281 -8.578125 1.226562 -6.882812 2.167969 -5.5625 C 3.015625 -4.195312 4.242188 -3.394531 5.84375 -3.109375 Z M 7.210938 -5.042969 L 7.351562 -5.230469 C 6.410156 -6.03125 5.75 -7.117188 5.277344 -8.484375 C 4.761719 -9.898438 4.429688 -11.359375 4.335938 -12.867188 C 4.242188 -13.621094 4.195312 -14.421875 4.195312 -15.175781 C 4.148438 -15.929688 4.148438 -16.730469 4.242188 -17.578125 C 4.289062 -18.378906 4.335938 -19.132812 4.429688 -19.890625 C 4.476562 -20.597656 4.570312 -21.300781 4.714844 -21.960938 C 4.902344 -23.1875 5.183594 -24.320312 5.515625 -25.308594 C 5.796875 -26.15625 6.03125 -26.675781 6.316406 -26.863281 C 7.445312 -26.816406 8.34375 -26.25 9 -25.214844 C 9.660156 -24.175781 10.132812 -22.859375 10.414062 -21.300781 C 10.699219 -19.792969 10.792969 -18.097656 10.746094 -16.210938 C 10.699219 -15.269531 10.652344 -14.421875 10.558594 -13.574219 C 10.460938 -12.726562 10.367188 -11.875 10.226562 -11.074219 C 9.945312 -9.519531 9.519531 -8.152344 9 -6.976562 C 8.4375 -5.84375 7.871094 -5.183594 7.210938 -5.042969 Z M 7.210938 -5.042969 "/></g></g></g><g fill="#000000" fill-opacity="1"><g transform="translate(178.163258, 350.845916)"><g><path d="M 10.605469 -1.273438 L 11.167969 -1.839844 L 11.167969 -3.15625 L 11.734375 -3.253906 C 12.535156 -3.394531 13.195312 -3.675781 13.761719 -4.148438 C 14.328125 -4.617188 14.75 -5.136719 15.035156 -5.703125 C 15.316406 -6.269531 15.457031 -6.785156 15.457031 -7.351562 C 15.457031 -7.871094 15.269531 -8.246094 14.988281 -8.484375 C 14.421875 -8.859375 13.808594 -8.953125 13.148438 -8.765625 C 12.441406 -8.484375 11.972656 -8.058594 11.78125 -7.492188 L 11.5 -6.644531 C 11.40625 -6.363281 11.265625 -6.125 11.121094 -5.84375 C 10.746094 -5.183594 10.273438 -4.902344 9.707031 -4.902344 C 9.097656 -4.902344 8.484375 -5.136719 7.917969 -5.65625 C 7.257812 -6.222656 6.644531 -6.929688 6.125 -7.824219 C 5.515625 -8.765625 5.042969 -9.898438 4.761719 -11.21875 C 4.382812 -12.582031 4.242188 -14.09375 4.242188 -15.742188 C 4.242188 -17.484375 4.429688 -19.277344 4.855469 -21.160156 C 4.949219 -21.820312 5.183594 -22.527344 5.5625 -23.1875 C 5.84375 -23.847656 6.175781 -24.460938 6.550781 -25.027344 C 6.929688 -25.636719 7.257812 -26.15625 7.539062 -26.535156 C 7.824219 -26.910156 8.105469 -27.195312 8.390625 -27.382812 C 8.953125 -27.757812 9.425781 -27.757812 9.804688 -27.382812 L 10.511719 -26.535156 C 10.792969 -26.203125 11.121094 -25.828125 11.546875 -25.402344 C 11.828125 -25.027344 12.160156 -24.835938 12.535156 -24.835938 C 12.914062 -24.742188 13.242188 -24.835938 13.574219 -25.027344 C 13.855469 -25.214844 14.09375 -25.496094 14.1875 -25.875 C 14.28125 -26.25 14.140625 -26.675781 13.855469 -27.195312 C 13.195312 -28.089844 12.441406 -28.75 11.59375 -29.125 C 10.652344 -29.503906 9.757812 -29.691406 8.8125 -29.691406 C 7.824219 -29.691406 6.929688 -29.503906 6.125 -29.21875 C 5.277344 -28.890625 4.664062 -28.511719 4.242188 -28.089844 C 3.300781 -27.195312 2.546875 -26.015625 1.886719 -24.554688 C 1.226562 -23.046875 0.707031 -21.398438 0.328125 -19.652344 C -0.046875 -17.863281 -0.234375 -16.070312 -0.234375 -14.1875 C -0.234375 -12.207031 0 -10.511719 0.519531 -9 C 1.035156 -7.398438 1.839844 -6.03125 2.96875 -4.949219 C 4.101562 -3.769531 5.609375 -3.0625 7.398438 -2.875 C 7.445312 -2.121094 7.492188 -1.554688 7.539062 -1.085938 C 7.539062 -0.519531 7.589844 -0.1875 7.683594 -0.09375 C 7.683594 0.472656 7.824219 0.847656 8.105469 1.035156 C 8.292969 1.320312 8.71875 1.460938 9.378906 1.460938 C 9.945312 1.554688 10.320312 1.507812 10.605469 1.320312 C 10.699219 1.226562 10.839844 1.132812 10.933594 1.035156 C 11.027344 0.941406 11.167969 0.847656 11.265625 0.707031 C 11.40625 0.519531 11.640625 0.328125 11.972656 0.09375 C 12.207031 -0.09375 12.679688 -0.140625 13.433594 -0.09375 C 13.902344 0.753906 14.328125 1.601562 14.703125 2.449219 C 14.988281 3.300781 15.175781 4.242188 15.175781 5.277344 L 15.082031 6.316406 C 15.035156 6.691406 14.988281 7.023438 14.941406 7.351562 C 14.847656 8.058594 14.65625 8.671875 14.375 9.144531 C 14.042969 9.707031 13.667969 10.179688 13.195312 10.511719 C 12.679688 10.886719 12.019531 11.121094 11.21875 11.265625 C 11.074219 11.167969 10.933594 11.027344 10.746094 10.839844 L 10.320312 10.414062 C 10.132812 10.273438 9.945312 10.132812 9.660156 10.039062 C 9.378906 9.945312 9.097656 9.898438 8.90625 9.898438 C 8.71875 9.898438 8.484375 9.992188 8.292969 10.132812 C 8.105469 10.320312 8.011719 10.511719 8.011719 10.699219 C 8.011719 11.3125 8.390625 11.78125 9.191406 12.160156 C 9.945312 12.535156 10.886719 12.726562 12.019531 12.726562 C 13.054688 12.726562 14.140625 12.488281 15.269531 12.019531 C 16.308594 11.546875 17.109375 10.792969 17.578125 9.707031 C 18.050781 8.765625 18.378906 7.871094 18.570312 7.070312 C 18.757812 6.269531 18.804688 5.5625 18.804688 4.949219 C 18.710938 4.289062 18.570312 3.628906 18.332031 2.96875 C 18.050781 2.308594 17.625 1.554688 17.15625 0.800781 C 16.824219 0.234375 16.355469 -0.1875 15.789062 -0.472656 C 15.269531 -0.707031 14.65625 -0.894531 13.949219 -1.085938 C 13.335938 -1.179688 12.726562 -1.273438 12.066406 -1.273438 Z M 10.605469 -1.273438 "/></g></g></g><g fill="#000000" fill-opacity="1"><g transform="translate(205.451404, 350.845916)"><g><path d="M 5.84375 -3.109375 L 5.75 -3.300781 C 7.070312 -3.015625 8.246094 -3.109375 9.191406 -3.488281 C 10.179688 -3.863281 11.027344 -4.429688 11.734375 -5.230469 C 12.394531 -5.984375 12.960938 -6.976562 13.433594 -8.199219 C 13.855469 -9.378906 14.1875 -10.605469 14.421875 -11.925781 C 14.609375 -13.242188 14.75 -14.609375 14.847656 -16.023438 C 14.847656 -17.4375 14.847656 -18.804688 14.847656 -20.171875 C 14.796875 -20.597656 14.75 -21.066406 14.703125 -21.539062 C 14.65625 -22.007812 14.609375 -22.480469 14.515625 -23 C 14.328125 -23.941406 14.042969 -24.835938 13.667969 -25.6875 C 13.289062 -26.441406 12.820312 -27.101562 12.160156 -27.710938 C 11.546875 -28.230469 10.792969 -28.511719 9.898438 -28.609375 C 9.472656 -28.609375 9.097656 -28.703125 8.8125 -28.890625 C 8.4375 -29.078125 8.058594 -29.21875 7.683594 -29.316406 C 7.257812 -29.410156 6.785156 -29.410156 6.222656 -29.316406 C 5.65625 -29.21875 4.996094 -28.9375 4.195312 -28.464844 C 2.921875 -27.617188 2.074219 -26.488281 1.695312 -25.074219 C 0.894531 -22.386719 0.378906 -19.839844 0.1875 -17.4375 C -0.09375 -14.894531 -0.046875 -12.628906 0.328125 -10.652344 C 0.613281 -8.578125 1.226562 -6.882812 2.167969 -5.5625 C 3.015625 -4.195312 4.242188 -3.394531 5.84375 -3.109375 Z M 7.210938 -5.042969 L 7.351562 -5.230469 C 6.410156 -6.03125 5.75 -7.117188 5.277344 -8.484375 C 4.761719 -9.898438 4.429688 -11.359375 4.335938 -12.867188 C 4.242188 -13.621094 4.195312 -14.421875 4.195312 -15.175781 C 4.148438 -15.929688 4.148438 -16.730469 4.242188 -17.578125 C 4.289062 -18.378906 4.335938 -19.132812 4.429688 -19.890625 C 4.476562 -20.597656 4.570312 -21.300781 4.714844 -21.960938 C 4.902344 -23.1875 5.183594 -24.320312 5.515625 -25.308594 C 5.796875 -26.15625 6.03125 -26.675781 6.316406 -26.863281 C 7.445312 -26.816406 8.34375 -26.25 9 -25.214844 C 9.660156 -24.175781 10.132812 -22.859375 10.414062 -21.300781 C 10.699219 -19.792969 10.792969 -18.097656 10.746094 -16.210938 C 10.699219 -15.269531 10.652344 -14.421875 10.558594 -13.574219 C 10.460938 -12.726562 10.367188 -11.875 10.226562 -11.074219 C 9.945312 -9.519531 9.519531 -8.152344 9 -6.976562 C 8.4375 -5.84375 7.871094 -5.183594 7.210938 -5.042969 Z M 6.03125 -33.507812 L 5.984375 -33.792969 L 5.5625 -33.367188 C 5.371094 -33.179688 5.183594 -33.039062 4.996094 -32.847656 C 4.523438 -32.472656 4.101562 -32.238281 3.722656 -32.140625 C 3.628906 -32.285156 3.535156 -32.425781 3.441406 -32.519531 C 3.347656 -32.613281 3.300781 -32.753906 3.253906 -32.898438 C 3.15625 -32.992188 3.109375 -33.132812 3.015625 -33.226562 C 2.921875 -33.320312 2.875 -33.414062 2.828125 -33.507812 C 2.640625 -33.746094 2.402344 -33.933594 2.121094 -34.121094 C 1.839844 -34.261719 1.554688 -34.308594 1.320312 -34.261719 C 1.035156 -34.167969 0.800781 -34.074219 0.660156 -33.933594 C 0.472656 -33.746094 0.378906 -33.460938 0.378906 -33.085938 C 0.28125 -32.332031 0.519531 -31.71875 0.988281 -31.246094 C 1.460938 -30.679688 2.027344 -30.304688 2.734375 -30.117188 C 3.394531 -29.878906 4.195312 -29.785156 5.042969 -29.832031 C 5.890625 -29.878906 6.691406 -30.117188 7.492188 -30.585938 C 7.871094 -30.777344 8.199219 -31.058594 8.484375 -31.4375 C 8.71875 -31.71875 9.050781 -32.046875 9.519531 -32.425781 C 9.945312 -32.753906 10.414062 -32.992188 10.933594 -33.179688 C 11.027344 -32.800781 11.167969 -32.519531 11.359375 -32.332031 C 11.40625 -32.191406 11.453125 -32.046875 11.546875 -31.953125 C 11.640625 -31.859375 11.6875 -31.765625 11.78125 -31.671875 C 11.972656 -31.339844 12.207031 -31.105469 12.488281 -31.011719 C 12.726562 -30.871094 13.007812 -30.824219 13.335938 -30.824219 C 13.621094 -30.824219 13.855469 -30.917969 14.042969 -31.105469 C 14.234375 -31.292969 14.328125 -31.578125 14.328125 -31.953125 C 14.328125 -32.613281 14.09375 -33.179688 13.714844 -33.699219 C 13.242188 -34.214844 12.726562 -34.59375 12.113281 -34.828125 C 11.453125 -35.015625 10.746094 -35.160156 9.898438 -35.160156 C 9.050781 -35.160156 8.292969 -34.96875 7.539062 -34.59375 C 6.976562 -34.308594 6.457031 -33.980469 6.03125 -33.507812 Z M 6.03125 -33.507812 "/></g></g></g><g fill="#000000" fill-opacity="1"><g transform="translate(232.126865, 350.845916)"><g><path d="M 8.011719 -3.109375 L 8.199219 -3.203125 C 8.292969 -3.203125 8.4375 -3.300781 8.625 -3.488281 C 8.71875 -3.582031 8.859375 -3.675781 9.050781 -3.816406 C 8.8125 -4.148438 8.53125 -4.382812 8.199219 -4.570312 C 7.824219 -4.714844 7.492188 -4.808594 7.164062 -4.855469 C 6.976562 -4.855469 6.785156 -4.902344 6.597656 -4.902344 L 6.03125 -4.902344 C 5.65625 -4.902344 5.277344 -4.949219 4.902344 -5.136719 L 4.855469 -15.742188 C 5.371094 -15.789062 5.84375 -15.835938 6.269531 -15.882812 C 6.644531 -15.882812 7.023438 -15.929688 7.398438 -15.976562 C 7.730469 -15.976562 8.011719 -16.023438 8.292969 -16.070312 C 8.53125 -16.070312 8.765625 -16.117188 8.953125 -16.210938 C 9.285156 -16.308594 9.519531 -16.402344 9.707031 -16.589844 C 9.804688 -16.683594 9.898438 -16.871094 9.898438 -17.15625 C 9.707031 -17.34375 9.472656 -17.53125 9.191406 -17.625 C 8.953125 -17.671875 8.625 -17.722656 8.199219 -17.816406 C 8.011719 -17.816406 7.777344 -17.863281 7.539062 -17.863281 L 6.832031 -17.863281 C 6.550781 -17.863281 6.269531 -17.863281 5.9375 -17.910156 C 5.609375 -17.910156 5.277344 -17.957031 4.902344 -18.050781 C 4.808594 -18.429688 4.761719 -18.851562 4.761719 -19.324219 C 4.714844 -19.746094 4.664062 -20.21875 4.664062 -20.691406 C 4.617188 -21.160156 4.570312 -21.585938 4.570312 -22.058594 C 4.570312 -22.527344 4.570312 -22.953125 4.570312 -23.421875 L 4.570312 -25.828125 C 4.570312 -26.15625 4.570312 -26.488281 4.570312 -26.769531 C 4.570312 -27.050781 4.617188 -27.289062 4.664062 -27.476562 L 5.890625 -27.476562 C 5.984375 -27.476562 6.125 -27.476562 6.316406 -27.523438 C 7.164062 -27.617188 7.777344 -27.757812 8.058594 -27.949219 C 8.34375 -28.136719 8.4375 -28.324219 8.34375 -28.511719 C 8.246094 -28.703125 8.011719 -28.890625 7.683594 -29.078125 C 7.398438 -29.21875 7.070312 -29.316406 6.691406 -29.410156 C 5.84375 -29.503906 5.136719 -29.597656 4.476562 -29.644531 C 3.816406 -29.691406 3.300781 -29.738281 2.875 -29.738281 C 1.980469 -29.738281 1.320312 -29.597656 0.894531 -29.363281 C 0.425781 -29.078125 0.1875 -28.65625 0.09375 -28.089844 C 0 -27.429688 -0.046875 -26.628906 -0.046875 -25.6875 C -0.140625 -22.105469 -0.09375 -18.617188 0.09375 -15.222656 C 0.1875 -11.734375 0.425781 -8.246094 0.800781 -4.761719 C 0.894531 -3.816406 1.320312 -3.300781 2.074219 -3.203125 C 2.546875 -3.109375 3.0625 -3.0625 3.535156 -3.015625 C 4.007812 -2.921875 4.523438 -2.875 5.042969 -2.828125 C 5.984375 -2.734375 6.976562 -2.828125 8.011719 -3.109375 Z M 8.011719 -3.109375 "/></g></g></g><g fill="#000000" fill-opacity="1"><g transform="translate(253.85369, 350.845916)"><g><path d="M 3.769531 -2.828125 L 4.054688 -2.921875 C 4.523438 -2.828125 5.183594 -2.78125 6.03125 -2.78125 C 6.785156 -2.78125 7.589844 -2.875 8.4375 -3.15625 C 9.238281 -3.394531 9.945312 -3.769531 10.558594 -4.335938 C 11.121094 -4.902344 11.5 -5.65625 11.6875 -6.597656 C 11.78125 -7.351562 11.828125 -8.058594 11.734375 -8.71875 C 11.640625 -9.285156 11.40625 -9.898438 11.074219 -10.558594 C 10.699219 -11.121094 10.273438 -11.78125 9.804688 -12.535156 C 9.519531 -12.867188 9.238281 -13.242188 8.90625 -13.667969 C 8.578125 -14.09375 8.246094 -14.5625 7.871094 -15.128906 C 7.117188 -16.164062 6.457031 -17.0625 5.890625 -17.816406 C 5.230469 -18.570312 4.761719 -19.371094 4.476562 -20.125 C 4.101562 -20.972656 3.910156 -21.820312 3.816406 -22.714844 C 3.722656 -23.660156 3.816406 -24.835938 4.148438 -26.25 C 4.289062 -26.863281 4.476562 -27.242188 4.761719 -27.382812 C 5.042969 -27.523438 5.324219 -27.570312 5.609375 -27.476562 C 5.890625 -27.382812 6.125 -27.195312 6.410156 -26.957031 C 6.597656 -26.675781 6.738281 -26.441406 6.832031 -26.25 C 6.882812 -26.0625 6.929688 -25.875 6.929688 -25.6875 L 6.929688 -25.121094 C 6.929688 -24.882812 6.929688 -24.601562 6.976562 -24.273438 C 7.636719 -23.847656 8.199219 -23.707031 8.71875 -23.847656 C 9.191406 -23.941406 9.613281 -24.226562 9.898438 -24.695312 C 10.179688 -25.074219 10.320312 -25.589844 10.320312 -26.203125 C 10.320312 -26.769531 10.132812 -27.242188 9.757812 -27.710938 C 8.90625 -28.5625 7.917969 -29.171875 6.785156 -29.550781 C 5.65625 -29.832031 4.476562 -29.972656 3.253906 -29.878906 C 2.402344 -29.785156 1.789062 -29.550781 1.320312 -29.078125 C 0.800781 -28.5625 0.425781 -27.949219 0.234375 -27.289062 C -0.046875 -26.535156 -0.1875 -25.78125 -0.1875 -24.980469 C -0.28125 -24.128906 -0.28125 -23.328125 -0.1875 -22.574219 C -0.1875 -21.820312 -0.09375 -21.160156 0.09375 -20.597656 C 0.234375 -19.984375 0.378906 -19.558594 0.519531 -19.371094 C 0.847656 -18.851562 1.179688 -18.332031 1.460938 -17.863281 C 1.742188 -17.34375 2.074219 -16.824219 2.355469 -16.308594 C 2.921875 -15.269531 3.582031 -14.28125 4.429688 -13.386719 C 5.46875 -12.253906 6.269531 -11.121094 6.882812 -9.992188 C 7.445312 -8.90625 7.683594 -7.824219 7.589844 -6.691406 C 7.492188 -5.9375 7.304688 -5.46875 7.023438 -5.183594 C 6.691406 -4.902344 6.078125 -4.761719 5.183594 -4.714844 C 4.808594 -4.902344 4.570312 -5.183594 4.476562 -5.5625 L 4.054688 -6.550781 C 3.582031 -7.351562 2.96875 -7.777344 2.214844 -7.871094 C 1.460938 -7.871094 0.800781 -7.683594 0.28125 -7.210938 C 0.328125 -6.929688 0.378906 -6.691406 0.425781 -6.457031 C 0.425781 -6.222656 0.472656 -5.984375 0.566406 -5.75 C 0.660156 -5.230469 0.800781 -4.808594 1.035156 -4.476562 C 1.226562 -4.101562 1.554688 -3.769531 2.027344 -3.488281 C 2.496094 -3.15625 3.0625 -2.921875 3.769531 -2.828125 Z M 3.769531 -2.828125 "/></g></g></g></svg>